<?xml version="1.0" encoding="utf-8" standalone="no"?>
<!DOCTYPE svg PUBLIC "-//W3C//DTD SVG 1.1//EN"
  "http://www.w3.org/Graphics/SVG/1.1/DTD/svg11.dtd">
<!-- Created with matplotlib (https://matplotlib.org/) -->
<svg height="576pt" version="1.1" viewBox="0 0 864 576" width="864pt" xmlns="http://www.w3.org/2000/svg" xmlns:xlink="http://www.w3.org/1999/xlink">
 <defs>
  <style type="text/css">
*{stroke-linecap:butt;stroke-linejoin:round;}
  </style>
 </defs>
 <g id="figure_1">
  <g id="patch_1">
   <path d="M 0 576 
L 864 576 
L 864 0 
L 0 0 
z
" style="fill:#ffffff;"/>
  </g>
  <g id="axes_1">
   <g id="patch_2">
    <path d="M 120.96 495.36 
L 777.6 495.36 
L 777.6 115.2 
L 120.96 115.2 
z
" style="fill:#ffffff;"/>
   </g>
   <g id="matplotlib.axis_1">
    <g id="xtick_1">
     <g id="line2d_1">
      <defs>
       <path d="M 0 0 
L 0 3.5 
" id="m2878cd64d1" style="stroke:#000000;stroke-width:0.8;"/>
      </defs>
      <g>
       <use style="stroke:#000000;stroke-width:0.8;" x="150.807273" xlink:href="#m2878cd64d1" y="495.36"/>
      </g>
     </g>
     <g id="text_1">
      <!-- 0 -->
      <defs>
       <path d="M 31.78125 66.40625 
Q 24.171875 66.40625 20.328125 58.90625 
Q 16.5 51.421875 16.5 36.375 
Q 16.5 21.390625 20.328125 13.890625 
Q 24.171875 6.390625 31.78125 6.390625 
Q 39.453125 6.390625 43.28125 13.890625 
Q 47.125 21.390625 47.125 36.375 
Q 47.125 51.421875 43.28125 58.90625 
Q 39.453125 66.40625 31.78125 66.40625 
z
M 31.78125 74.21875 
Q 44.046875 74.21875 50.515625 64.515625 
Q 56.984375 54.828125 56.984375 36.375 
Q 56.984375 17.96875 50.515625 8.265625 
Q 44.046875 -1.421875 31.78125 -1.421875 
Q 19.53125 -1.421875 13.0625 8.265625 
Q 6.59375 17.96875 6.59375 36.375 
Q 6.59375 54.828125 13.0625 64.515625 
Q 19.53125 74.21875 31.78125 74.21875 
z
" id="DejaVuSans-48"/>
      </defs>
      <g transform="translate(145.081023 516.037187)scale(0.18 -0.18)">
       <use xlink:href="#DejaVuSans-48"/>
      </g>
     </g>
    </g>
    <g id="xtick_2">
     <g id="line2d_2">
      <g>
       <use style="stroke:#000000;stroke-width:0.8;" x="275.170909" xlink:href="#m2878cd64d1" y="495.36"/>
      </g>
     </g>
     <g id="text_2">
      <!-- 20 -->
      <defs>
       <path d="M 19.1875 8.296875 
L 53.609375 8.296875 
L 53.609375 0 
L 7.328125 0 
L 7.328125 8.296875 
Q 12.9375 14.109375 22.625 23.890625 
Q 32.328125 33.6875 34.8125 36.53125 
Q 39.546875 41.84375 41.421875 45.53125 
Q 43.3125 49.21875 43.3125 52.78125 
Q 43.3125 58.59375 39.234375 62.25 
Q 35.15625 65.921875 28.609375 65.921875 
Q 23.96875 65.921875 18.8125 64.3125 
Q 13.671875 62.703125 7.8125 59.421875 
L 7.8125 69.390625 
Q 13.765625 71.78125 18.9375 73 
Q 24.125 74.21875 28.421875 74.21875 
Q 39.75 74.21875 46.484375 68.546875 
Q 53.21875 62.890625 53.21875 53.421875 
Q 53.21875 48.921875 51.53125 44.890625 
Q 49.859375 40.875 45.40625 35.40625 
Q 44.1875 33.984375 37.640625 27.21875 
Q 31.109375 20.453125 19.1875 8.296875 
z
" id="DejaVuSans-50"/>
      </defs>
      <g transform="translate(263.718409 516.037187)scale(0.18 -0.18)">
       <use xlink:href="#DejaVuSans-50"/>
       <use x="63.623047" xlink:href="#DejaVuSans-48"/>
      </g>
     </g>
    </g>
    <g id="xtick_3">
     <g id="line2d_3">
      <g>
       <use style="stroke:#000000;stroke-width:0.8;" x="399.534545" xlink:href="#m2878cd64d1" y="495.36"/>
      </g>
     </g>
     <g id="text_3">
      <!-- 40 -->
      <defs>
       <path d="M 37.796875 64.3125 
L 12.890625 25.390625 
L 37.796875 25.390625 
z
M 35.203125 72.90625 
L 47.609375 72.90625 
L 47.609375 25.390625 
L 58.015625 25.390625 
L 58.015625 17.1875 
L 47.609375 17.1875 
L 47.609375 0 
L 37.796875 0 
L 37.796875 17.1875 
L 4.890625 17.1875 
L 4.890625 26.703125 
z
" id="DejaVuSans-52"/>
      </defs>
      <g transform="translate(388.082045 516.037187)scale(0.18 -0.18)">
       <use xlink:href="#DejaVuSans-52"/>
       <use x="63.623047" xlink:href="#DejaVuSans-48"/>
      </g>
     </g>
    </g>
    <g id="xtick_4">
     <g id="line2d_4">
      <g>
       <use style="stroke:#000000;stroke-width:0.8;" x="523.898182" xlink:href="#m2878cd64d1" y="495.36"/>
      </g>
     </g>
     <g id="text_4">
      <!-- 60 -->
      <defs>
       <path d="M 33.015625 40.375 
Q 26.375 40.375 22.484375 35.828125 
Q 18.609375 31.296875 18.609375 23.390625 
Q 18.609375 15.53125 22.484375 10.953125 
Q 26.375 6.390625 33.015625 6.390625 
Q 39.65625 6.390625 43.53125 10.953125 
Q 47.40625 15.53125 47.40625 23.390625 
Q 47.40625 31.296875 43.53125 35.828125 
Q 39.65625 40.375 33.015625 40.375 
z
M 52.59375 71.296875 
L 52.59375 62.3125 
Q 48.875 64.0625 45.09375 64.984375 
Q 41.3125 65.921875 37.59375 65.921875 
Q 27.828125 65.921875 22.671875 59.328125 
Q 17.53125 52.734375 16.796875 39.40625 
Q 19.671875 43.65625 24.015625 45.921875 
Q 28.375 48.1875 33.59375 48.1875 
Q 44.578125 48.1875 50.953125 41.515625 
Q 57.328125 34.859375 57.328125 23.390625 
Q 57.328125 12.15625 50.6875 5.359375 
Q 44.046875 -1.421875 33.015625 -1.421875 
Q 20.359375 -1.421875 13.671875 8.265625 
Q 6.984375 17.96875 6.984375 36.375 
Q 6.984375 53.65625 15.1875 63.9375 
Q 23.390625 74.21875 37.203125 74.21875 
Q 40.921875 74.21875 44.703125 73.484375 
Q 48.484375 72.75 52.59375 71.296875 
z
" id="DejaVuSans-54"/>
      </defs>
      <g transform="translate(512.445682 516.037187)scale(0.18 -0.18)">
       <use xlink:href="#DejaVuSans-54"/>
       <use x="63.623047" xlink:href="#DejaVuSans-48"/>
      </g>
     </g>
    </g>
    <g id="xtick_5">
     <g id="line2d_5">
      <g>
       <use style="stroke:#000000;stroke-width:0.8;" x="648.261818" xlink:href="#m2878cd64d1" y="495.36"/>
      </g>
     </g>
     <g id="text_5">
      <!-- 80 -->
      <defs>
       <path d="M 31.78125 34.625 
Q 24.75 34.625 20.71875 30.859375 
Q 16.703125 27.09375 16.703125 20.515625 
Q 16.703125 13.921875 20.71875 10.15625 
Q 24.75 6.390625 31.78125 6.390625 
Q 38.8125 6.390625 42.859375 10.171875 
Q 46.921875 13.96875 46.921875 20.515625 
Q 46.921875 27.09375 42.890625 30.859375 
Q 38.875 34.625 31.78125 34.625 
z
M 21.921875 38.8125 
Q 15.578125 40.375 12.03125 44.71875 
Q 8.5 49.078125 8.5 55.328125 
Q 8.5 64.0625 14.71875 69.140625 
Q 20.953125 74.21875 31.78125 74.21875 
Q 42.671875 74.21875 48.875 69.140625 
Q 55.078125 64.0625 55.078125 55.328125 
Q 55.078125 49.078125 51.53125 44.71875 
Q 48 40.375 41.703125 38.8125 
Q 48.828125 37.15625 52.796875 32.3125 
Q 56.78125 27.484375 56.78125 20.515625 
Q 56.78125 9.90625 50.3125 4.234375 
Q 43.84375 -1.421875 31.78125 -1.421875 
Q 19.734375 -1.421875 13.25 4.234375 
Q 6.78125 9.90625 6.78125 20.515625 
Q 6.78125 27.484375 10.78125 32.3125 
Q 14.796875 37.15625 21.921875 38.8125 
z
M 18.3125 54.390625 
Q 18.3125 48.734375 21.84375 45.5625 
Q 25.390625 42.390625 31.78125 42.390625 
Q 38.140625 42.390625 41.71875 45.5625 
Q 45.3125 48.734375 45.3125 54.390625 
Q 45.3125 60.0625 41.71875 63.234375 
Q 38.140625 66.40625 31.78125 66.40625 
Q 25.390625 66.40625 21.84375 63.234375 
Q 18.3125 60.0625 18.3125 54.390625 
z
" id="DejaVuSans-56"/>
      </defs>
      <g transform="translate(636.809318 516.037187)scale(0.18 -0.18)">
       <use xlink:href="#DejaVuSans-56"/>
       <use x="63.623047" xlink:href="#DejaVuSans-48"/>
      </g>
     </g>
    </g>
    <g id="xtick_6">
     <g id="line2d_6">
      <g>
       <use style="stroke:#000000;stroke-width:0.8;" x="772.625455" xlink:href="#m2878cd64d1" y="495.36"/>
      </g>
     </g>
     <g id="text_6">
      <!-- 100 -->
      <defs>
       <path d="M 12.40625 8.296875 
L 28.515625 8.296875 
L 28.515625 63.921875 
L 10.984375 60.40625 
L 10.984375 69.390625 
L 28.421875 72.90625 
L 38.28125 72.90625 
L 38.28125 8.296875 
L 54.390625 8.296875 
L 54.390625 0 
L 12.40625 0 
z
" id="DejaVuSans-49"/>
      </defs>
      <g transform="translate(755.446705 516.037187)scale(0.18 -0.18)">
       <use xlink:href="#DejaVuSans-49"/>
       <use x="63.623047" xlink:href="#DejaVuSans-48"/>
       <use x="127.246094" xlink:href="#DejaVuSans-48"/>
      </g>
     </g>
    </g>
    <g id="text_7">
     <!-- Time (hours) -->
     <defs>
      <path d="M -0.296875 72.90625 
L 61.375 72.90625 
L 61.375 64.59375 
L 35.5 64.59375 
L 35.5 0 
L 25.59375 0 
L 25.59375 64.59375 
L -0.296875 64.59375 
z
" id="DejaVuSans-84"/>
      <path d="M 9.421875 54.6875 
L 18.40625 54.6875 
L 18.40625 0 
L 9.421875 0 
z
M 9.421875 75.984375 
L 18.40625 75.984375 
L 18.40625 64.59375 
L 9.421875 64.59375 
z
" id="DejaVuSans-105"/>
      <path d="M 52 44.1875 
Q 55.375 50.25 60.0625 53.125 
Q 64.75 56 71.09375 56 
Q 79.640625 56 84.28125 50.015625 
Q 88.921875 44.046875 88.921875 33.015625 
L 88.921875 0 
L 79.890625 0 
L 79.890625 32.71875 
Q 79.890625 40.578125 77.09375 44.375 
Q 74.3125 48.1875 68.609375 48.1875 
Q 61.625 48.1875 57.5625 43.546875 
Q 53.515625 38.921875 53.515625 30.90625 
L 53.515625 0 
L 44.484375 0 
L 44.484375 32.71875 
Q 44.484375 40.625 41.703125 44.40625 
Q 38.921875 48.1875 33.109375 48.1875 
Q 26.21875 48.1875 22.15625 43.53125 
Q 18.109375 38.875 18.109375 30.90625 
L 18.109375 0 
L 9.078125 0 
L 9.078125 54.6875 
L 18.109375 54.6875 
L 18.109375 46.1875 
Q 21.1875 51.21875 25.484375 53.609375 
Q 29.78125 56 35.6875 56 
Q 41.65625 56 45.828125 52.96875 
Q 50 49.953125 52 44.1875 
z
" id="DejaVuSans-109"/>
      <path d="M 56.203125 29.59375 
L 56.203125 25.203125 
L 14.890625 25.203125 
Q 15.484375 15.921875 20.484375 11.0625 
Q 25.484375 6.203125 34.421875 6.203125 
Q 39.59375 6.203125 44.453125 7.46875 
Q 49.3125 8.734375 54.109375 11.28125 
L 54.109375 2.78125 
Q 49.265625 0.734375 44.1875 -0.34375 
Q 39.109375 -1.421875 33.890625 -1.421875 
Q 20.796875 -1.421875 13.15625 6.1875 
Q 5.515625 13.8125 5.515625 26.8125 
Q 5.515625 40.234375 12.765625 48.109375 
Q 20.015625 56 32.328125 56 
Q 43.359375 56 49.78125 48.890625 
Q 56.203125 41.796875 56.203125 29.59375 
z
M 47.21875 32.234375 
Q 47.125 39.59375 43.09375 43.984375 
Q 39.0625 48.390625 32.421875 48.390625 
Q 24.90625 48.390625 20.390625 44.140625 
Q 15.875 39.890625 15.1875 32.171875 
z
" id="DejaVuSans-101"/>
      <path id="DejaVuSans-32"/>
      <path d="M 31 75.875 
Q 24.46875 64.65625 21.28125 53.65625 
Q 18.109375 42.671875 18.109375 31.390625 
Q 18.109375 20.125 21.3125 9.0625 
Q 24.515625 -2 31 -13.1875 
L 23.1875 -13.1875 
Q 15.875 -1.703125 12.234375 9.375 
Q 8.59375 20.453125 8.59375 31.390625 
Q 8.59375 42.28125 12.203125 53.3125 
Q 15.828125 64.359375 23.1875 75.875 
z
" id="DejaVuSans-40"/>
      <path d="M 54.890625 33.015625 
L 54.890625 0 
L 45.90625 0 
L 45.90625 32.71875 
Q 45.90625 40.484375 42.875 44.328125 
Q 39.84375 48.1875 33.796875 48.1875 
Q 26.515625 48.1875 22.3125 43.546875 
Q 18.109375 38.921875 18.109375 30.90625 
L 18.109375 0 
L 9.078125 0 
L 9.078125 75.984375 
L 18.109375 75.984375 
L 18.109375 46.1875 
Q 21.34375 51.125 25.703125 53.5625 
Q 30.078125 56 35.796875 56 
Q 45.21875 56 50.046875 50.171875 
Q 54.890625 44.34375 54.890625 33.015625 
z
" id="DejaVuSans-104"/>
      <path d="M 30.609375 48.390625 
Q 23.390625 48.390625 19.1875 42.75 
Q 14.984375 37.109375 14.984375 27.296875 
Q 14.984375 17.484375 19.15625 11.84375 
Q 23.34375 6.203125 30.609375 6.203125 
Q 37.796875 6.203125 41.984375 11.859375 
Q 46.1875 17.53125 46.1875 27.296875 
Q 46.1875 37.015625 41.984375 42.703125 
Q 37.796875 48.390625 30.609375 48.390625 
z
M 30.609375 56 
Q 42.328125 56 49.015625 48.375 
Q 55.71875 40.765625 55.71875 27.296875 
Q 55.71875 13.875 49.015625 6.21875 
Q 42.328125 -1.421875 30.609375 -1.421875 
Q 18.84375 -1.421875 12.171875 6.21875 
Q 5.515625 13.875 5.515625 27.296875 
Q 5.515625 40.765625 12.171875 48.375 
Q 18.84375 56 30.609375 56 
z
" id="DejaVuSans-111"/>
      <path d="M 8.5 21.578125 
L 8.5 54.6875 
L 17.484375 54.6875 
L 17.484375 21.921875 
Q 17.484375 14.15625 20.5 10.265625 
Q 23.53125 6.390625 29.59375 6.390625 
Q 36.859375 6.390625 41.078125 11.03125 
Q 45.3125 15.671875 45.3125 23.6875 
L 45.3125 54.6875 
L 54.296875 54.6875 
L 54.296875 0 
L 45.3125 0 
L 45.3125 8.40625 
Q 42.046875 3.421875 37.71875 1 
Q 33.40625 -1.421875 27.6875 -1.421875 
Q 18.265625 -1.421875 13.375 4.4375 
Q 8.5 10.296875 8.5 21.578125 
z
M 31.109375 56 
z
" id="DejaVuSans-117"/>
      <path d="M 41.109375 46.296875 
Q 39.59375 47.171875 37.8125 47.578125 
Q 36.03125 48 33.890625 48 
Q 26.265625 48 22.1875 43.046875 
Q 18.109375 38.09375 18.109375 28.8125 
L 18.109375 0 
L 9.078125 0 
L 9.078125 54.6875 
L 18.109375 54.6875 
L 18.109375 46.1875 
Q 20.953125 51.171875 25.484375 53.578125 
Q 30.03125 56 36.53125 56 
Q 37.453125 56 38.578125 55.875 
Q 39.703125 55.765625 41.0625 55.515625 
z
" id="DejaVuSans-114"/>
      <path d="M 44.28125 53.078125 
L 44.28125 44.578125 
Q 40.484375 46.53125 36.375 47.5 
Q 32.28125 48.484375 27.875 48.484375 
Q 21.1875 48.484375 17.84375 46.4375 
Q 14.5 44.390625 14.5 40.28125 
Q 14.5 37.15625 16.890625 35.375 
Q 19.28125 33.59375 26.515625 31.984375 
L 29.59375 31.296875 
Q 39.15625 29.25 43.1875 25.515625 
Q 47.21875 21.78125 47.21875 15.09375 
Q 47.21875 7.46875 41.1875 3.015625 
Q 35.15625 -1.421875 24.609375 -1.421875 
Q 20.21875 -1.421875 15.453125 -0.5625 
Q 10.6875 0.296875 5.421875 2 
L 5.421875 11.28125 
Q 10.40625 8.6875 15.234375 7.390625 
Q 20.0625 6.109375 24.8125 6.109375 
Q 31.15625 6.109375 34.5625 8.28125 
Q 37.984375 10.453125 37.984375 14.40625 
Q 37.984375 18.0625 35.515625 20.015625 
Q 33.0625 21.96875 24.703125 23.78125 
L 21.578125 24.515625 
Q 13.234375 26.265625 9.515625 29.90625 
Q 5.8125 33.546875 5.8125 39.890625 
Q 5.8125 47.609375 11.28125 51.796875 
Q 16.75 56 26.8125 56 
Q 31.78125 56 36.171875 55.265625 
Q 40.578125 54.546875 44.28125 53.078125 
z
" id="DejaVuSans-115"/>
      <path d="M 8.015625 75.875 
L 15.828125 75.875 
Q 23.140625 64.359375 26.78125 53.3125 
Q 30.421875 42.28125 30.421875 31.390625 
Q 30.421875 20.453125 26.78125 9.375 
Q 23.140625 -1.703125 15.828125 -13.1875 
L 8.015625 -13.1875 
Q 14.5 -2 17.703125 9.0625 
Q 20.90625 20.125 20.90625 31.390625 
Q 20.90625 42.671875 17.703125 53.65625 
Q 14.5 64.65625 8.015625 75.875 
z
" id="DejaVuSans-41"/>
     </defs>
     <g transform="translate(392.07375 537.457813)scale(0.18 -0.18)">
      <use xlink:href="#DejaVuSans-84"/>
      <use x="57.958984" xlink:href="#DejaVuSans-105"/>
      <use x="85.742188" xlink:href="#DejaVuSans-109"/>
      <use x="183.154297" xlink:href="#DejaVuSans-101"/>
      <use x="244.677734" xlink:href="#DejaVuSans-32"/>
      <use x="276.464844" xlink:href="#DejaVuSans-40"/>
      <use x="315.478516" xlink:href="#DejaVuSans-104"/>
      <use x="378.857422" xlink:href="#DejaVuSans-111"/>
      <use x="440.039062" xlink:href="#DejaVuSans-117"/>
      <use x="503.417969" xlink:href="#DejaVuSans-114"/>
      <use x="544.53125" xlink:href="#DejaVuSans-115"/>
      <use x="596.630859" xlink:href="#DejaVuSans-41"/>
     </g>
    </g>
   </g>
   <g id="matplotlib.axis_2">
    <g id="ytick_1">
     <g id="line2d_7">
      <defs>
       <path d="M 0 0 
L -3.5 0 
" id="m37ab6df798" style="stroke:#000000;stroke-width:0.8;"/>
      </defs>
      <g>
       <use style="stroke:#000000;stroke-width:0.8;" x="120.96" xlink:href="#m37ab6df798" y="467.215956"/>
      </g>
     </g>
     <g id="text_8">
      <!-- 0.0 -->
      <defs>
       <path d="M 10.6875 12.40625 
L 21 12.40625 
L 21 0 
L 10.6875 0 
z
" id="DejaVuSans-46"/>
      </defs>
      <g transform="translate(85.334375 474.05455)scale(0.18 -0.18)">
       <use xlink:href="#DejaVuSans-48"/>
       <use x="63.623047" xlink:href="#DejaVuSans-46"/>
       <use x="95.410156" xlink:href="#DejaVuSans-48"/>
      </g>
     </g>
    </g>
    <g id="ytick_2">
     <g id="line2d_8">
      <g>
       <use style="stroke:#000000;stroke-width:0.8;" x="120.96" xlink:href="#m37ab6df798" y="385.601864"/>
      </g>
     </g>
     <g id="text_9">
      <!-- 0.2 -->
      <g transform="translate(85.334375 392.440458)scale(0.18 -0.18)">
       <use xlink:href="#DejaVuSans-48"/>
       <use x="63.623047" xlink:href="#DejaVuSans-46"/>
       <use x="95.410156" xlink:href="#DejaVuSans-50"/>
      </g>
     </g>
    </g>
    <g id="ytick_3">
     <g id="line2d_9">
      <g>
       <use style="stroke:#000000;stroke-width:0.8;" x="120.96" xlink:href="#m37ab6df798" y="303.987771"/>
      </g>
     </g>
     <g id="text_10">
      <!-- 0.4 -->
      <g transform="translate(85.334375 310.826365)scale(0.18 -0.18)">
       <use xlink:href="#DejaVuSans-48"/>
       <use x="63.623047" xlink:href="#DejaVuSans-46"/>
       <use x="95.410156" xlink:href="#DejaVuSans-52"/>
      </g>
     </g>
    </g>
    <g id="ytick_4">
     <g id="line2d_10">
      <g>
       <use style="stroke:#000000;stroke-width:0.8;" x="120.96" xlink:href="#m37ab6df798" y="222.373679"/>
      </g>
     </g>
     <g id="text_11">
      <!-- 0.6 -->
      <g transform="translate(85.334375 229.212273)scale(0.18 -0.18)">
       <use xlink:href="#DejaVuSans-48"/>
       <use x="63.623047" xlink:href="#DejaVuSans-46"/>
       <use x="95.410156" xlink:href="#DejaVuSans-54"/>
      </g>
     </g>
    </g>
    <g id="ytick_5">
     <g id="line2d_11">
      <g>
       <use style="stroke:#000000;stroke-width:0.8;" x="120.96" xlink:href="#m37ab6df798" y="140.759586"/>
      </g>
     </g>
     <g id="text_12">
      <!-- 0.8 -->
      <g transform="translate(85.334375 147.59818)scale(0.18 -0.18)">
       <use xlink:href="#DejaVuSans-48"/>
       <use x="63.623047" xlink:href="#DejaVuSans-46"/>
       <use x="95.410156" xlink:href="#DejaVuSans-56"/>
      </g>
     </g>
    </g>
    <g id="text_13">
     <!-- Confluence -->
     <defs>
      <path d="M 64.40625 67.28125 
L 64.40625 56.890625 
Q 59.421875 61.53125 53.78125 63.8125 
Q 48.140625 66.109375 41.796875 66.109375 
Q 29.296875 66.109375 22.65625 58.46875 
Q 16.015625 50.828125 16.015625 36.375 
Q 16.015625 21.96875 22.65625 14.328125 
Q 29.296875 6.6875 41.796875 6.6875 
Q 48.140625 6.6875 53.78125 8.984375 
Q 59.421875 11.28125 64.40625 15.921875 
L 64.40625 5.609375 
Q 59.234375 2.09375 53.4375 0.328125 
Q 47.65625 -1.421875 41.21875 -1.421875 
Q 24.65625 -1.421875 15.125 8.703125 
Q 5.609375 18.84375 5.609375 36.375 
Q 5.609375 53.953125 15.125 64.078125 
Q 24.65625 74.21875 41.21875 74.21875 
Q 47.75 74.21875 53.53125 72.484375 
Q 59.328125 70.75 64.40625 67.28125 
z
" id="DejaVuSans-67"/>
      <path d="M 54.890625 33.015625 
L 54.890625 0 
L 45.90625 0 
L 45.90625 32.71875 
Q 45.90625 40.484375 42.875 44.328125 
Q 39.84375 48.1875 33.796875 48.1875 
Q 26.515625 48.1875 22.3125 43.546875 
Q 18.109375 38.921875 18.109375 30.90625 
L 18.109375 0 
L 9.078125 0 
L 9.078125 54.6875 
L 18.109375 54.6875 
L 18.109375 46.1875 
Q 21.34375 51.125 25.703125 53.5625 
Q 30.078125 56 35.796875 56 
Q 45.21875 56 50.046875 50.171875 
Q 54.890625 44.34375 54.890625 33.015625 
z
" id="DejaVuSans-110"/>
      <path d="M 37.109375 75.984375 
L 37.109375 68.5 
L 28.515625 68.5 
Q 23.6875 68.5 21.796875 66.546875 
Q 19.921875 64.59375 19.921875 59.515625 
L 19.921875 54.6875 
L 34.71875 54.6875 
L 34.71875 47.703125 
L 19.921875 47.703125 
L 19.921875 0 
L 10.890625 0 
L 10.890625 47.703125 
L 2.296875 47.703125 
L 2.296875 54.6875 
L 10.890625 54.6875 
L 10.890625 58.5 
Q 10.890625 67.625 15.140625 71.796875 
Q 19.390625 75.984375 28.609375 75.984375 
z
" id="DejaVuSans-102"/>
      <path d="M 9.421875 75.984375 
L 18.40625 75.984375 
L 18.40625 0 
L 9.421875 0 
z
" id="DejaVuSans-108"/>
      <path d="M 48.78125 52.59375 
L 48.78125 44.1875 
Q 44.96875 46.296875 41.140625 47.34375 
Q 37.3125 48.390625 33.40625 48.390625 
Q 24.65625 48.390625 19.8125 42.84375 
Q 14.984375 37.3125 14.984375 27.296875 
Q 14.984375 17.28125 19.8125 11.734375 
Q 24.65625 6.203125 33.40625 6.203125 
Q 37.3125 6.203125 41.140625 7.25 
Q 44.96875 8.296875 48.78125 10.40625 
L 48.78125 2.09375 
Q 45.015625 0.34375 40.984375 -0.53125 
Q 36.96875 -1.421875 32.421875 -1.421875 
Q 20.0625 -1.421875 12.78125 6.34375 
Q 5.515625 14.109375 5.515625 27.296875 
Q 5.515625 40.671875 12.859375 48.328125 
Q 20.21875 56 33.015625 56 
Q 37.15625 56 41.109375 55.140625 
Q 45.0625 54.296875 48.78125 52.59375 
z
" id="DejaVuSans-99"/>
     </defs>
     <g transform="translate(77.590938 355.875469)rotate(-90)scale(0.18 -0.18)">
      <use xlink:href="#DejaVuSans-67"/>
      <use x="69.824219" xlink:href="#DejaVuSans-111"/>
      <use x="131.005859" xlink:href="#DejaVuSans-110"/>
      <use x="194.384766" xlink:href="#DejaVuSans-102"/>
      <use x="229.589844" xlink:href="#DejaVuSans-108"/>
      <use x="257.373047" xlink:href="#DejaVuSans-117"/>
      <use x="320.751953" xlink:href="#DejaVuSans-101"/>
      <use x="382.275391" xlink:href="#DejaVuSans-110"/>
      <use x="445.654297" xlink:href="#DejaVuSans-99"/>
      <use x="500.634766" xlink:href="#DejaVuSans-101"/>
     </g>
    </g>
   </g>
   <g id="LineCollection_1">
    <path clip-path="url(#p63141f6541)" d="M 150.807273 247.555707 
L 150.807273 223.071479 
" style="fill:none;stroke:#008000;stroke-width:1.5;"/>
    <path clip-path="url(#p63141f6541)" d="M 169.461818 247.631731 
L 169.461818 223.147503 
" style="fill:none;stroke:#008000;stroke-width:1.5;"/>
    <path clip-path="url(#p63141f6541)" d="M 188.116364 247.40366 
L 188.116364 222.919432 
" style="fill:none;stroke:#008000;stroke-width:1.5;"/>
    <path clip-path="url(#p63141f6541)" d="M 206.770909 247.197748 
L 206.770909 222.71352 
" style="fill:none;stroke:#008000;stroke-width:1.5;"/>
    <path clip-path="url(#p63141f6541)" d="M 225.425455 227.410533 
L 225.425455 202.926306 
" style="fill:none;stroke:#008000;stroke-width:1.5;"/>
    <path clip-path="url(#p63141f6541)" d="M 244.08 201.863976 
L 244.08 177.379748 
" style="fill:none;stroke:#008000;stroke-width:1.5;"/>
    <path clip-path="url(#p63141f6541)" d="M 262.734545 183.606903 
L 262.734545 159.122676 
" style="fill:none;stroke:#008000;stroke-width:1.5;"/>
    <path clip-path="url(#p63141f6541)" d="M 281.389091 169.297137 
L 281.389091 144.81291 
" style="fill:none;stroke:#008000;stroke-width:1.5;"/>
    <path clip-path="url(#p63141f6541)" d="M 300.043636 169.09755 
L 300.043636 144.613322 
" style="fill:none;stroke:#008000;stroke-width:1.5;"/>
    <path clip-path="url(#p63141f6541)" d="M 318.698182 169.693129 
L 318.698182 145.208901 
" style="fill:none;stroke:#008000;stroke-width:1.5;"/>
    <path clip-path="url(#p63141f6541)" d="M 337.352727 185.555195 
L 337.352727 161.070967 
" style="fill:none;stroke:#008000;stroke-width:1.5;"/>
    <path clip-path="url(#p63141f6541)" d="M 356.007273 223.374553 
L 356.007273 198.890326 
" style="fill:none;stroke:#008000;stroke-width:1.5;"/>
    <path clip-path="url(#p63141f6541)" d="M 374.661818 259.856991 
L 374.661818 235.372764 
" style="fill:none;stroke:#008000;stroke-width:1.5;"/>
    <path clip-path="url(#p63141f6541)" d="M 393.316364 295.236945 
L 393.316364 270.752717 
" style="fill:none;stroke:#008000;stroke-width:1.5;"/>
    <path clip-path="url(#p63141f6541)" d="M 411.970909 336.775499 
L 411.970909 312.291271 
" style="fill:none;stroke:#008000;stroke-width:1.5;"/>
    <path clip-path="url(#p63141f6541)" d="M 430.625455 363.402341 
L 430.625455 338.918113 
" style="fill:none;stroke:#008000;stroke-width:1.5;"/>
    <path clip-path="url(#p63141f6541)" d="M 449.28 399.49197 
L 449.28 375.007743 
" style="fill:none;stroke:#008000;stroke-width:1.5;"/>
    <path clip-path="url(#p63141f6541)" d="M 467.934545 422.589697 
L 467.934545 398.105469 
" style="fill:none;stroke:#008000;stroke-width:1.5;"/>
    <path clip-path="url(#p63141f6541)" d="M 486.589091 438.068422 
L 486.589091 413.584194 
" style="fill:none;stroke:#008000;stroke-width:1.5;"/>
    <path clip-path="url(#p63141f6541)" d="M 505.243636 451.370772 
L 505.243636 426.886544 
" style="fill:none;stroke:#008000;stroke-width:1.5;"/>
    <path clip-path="url(#p63141f6541)" d="M 523.898182 459.493472 
L 523.898182 435.009244 
" style="fill:none;stroke:#008000;stroke-width:1.5;"/>
    <path clip-path="url(#p63141f6541)" d="M 542.552727 466.833676 
L 542.552727 442.349448 
" style="fill:none;stroke:#008000;stroke-width:1.5;"/>
    <path clip-path="url(#p63141f6541)" d="M 561.207273 470.147384 
L 561.207273 445.663156 
" style="fill:none;stroke:#008000;stroke-width:1.5;"/>
    <path clip-path="url(#p63141f6541)" d="M 579.861818 471.864426 
L 579.861818 447.380198 
" style="fill:none;stroke:#008000;stroke-width:1.5;"/>
    <path clip-path="url(#p63141f6541)" d="M 598.516364 472.64058 
L 598.516364 448.156352 
" style="fill:none;stroke:#008000;stroke-width:1.5;"/>
    <path clip-path="url(#p63141f6541)" d="M 617.170909 474.782134 
L 617.170909 450.297906 
" style="fill:none;stroke:#008000;stroke-width:1.5;"/>
    <path clip-path="url(#p63141f6541)" d="M 635.825455 475.377713 
L 635.825455 450.893485 
" style="fill:none;stroke:#008000;stroke-width:1.5;"/>
    <path clip-path="url(#p63141f6541)" d="M 654.48 475.355538 
L 654.48 450.87131 
" style="fill:none;stroke:#008000;stroke-width:1.5;"/>
    <path clip-path="url(#p63141f6541)" d="M 673.134545 475.422066 
L 673.134545 450.937838 
" style="fill:none;stroke:#008000;stroke-width:1.5;"/>
    <path clip-path="url(#p63141f6541)" d="M 691.789091 476.255244 
L 691.789091 451.771016 
" style="fill:none;stroke:#008000;stroke-width:1.5;"/>
    <path clip-path="url(#p63141f6541)" d="M 710.443636 476.30593 
L 710.443636 451.821702 
" style="fill:none;stroke:#008000;stroke-width:1.5;"/>
    <path clip-path="url(#p63141f6541)" d="M 729.098182 477.196132 
L 729.098182 452.711904 
" style="fill:none;stroke:#008000;stroke-width:1.5;"/>
    <path clip-path="url(#p63141f6541)" d="M 747.752727 478.08 
L 747.752727 453.595772 
" style="fill:none;stroke:#008000;stroke-width:1.5;"/>
   </g>
   <g id="LineCollection_2">
    <path clip-path="url(#p63141f6541)" d="M 150.807273 473.046084 
L 150.807273 448.561856 
" style="fill:none;stroke:#ff0000;stroke-width:1.5;"/>
    <path clip-path="url(#p63141f6541)" d="M 169.461818 473.103107 
L 169.461818 448.61888 
" style="fill:none;stroke:#ff0000;stroke-width:1.5;"/>
    <path clip-path="url(#p63141f6541)" d="M 188.116364 473.128449 
L 188.116364 448.644221 
" style="fill:none;stroke:#ff0000;stroke-width:1.5;"/>
    <path clip-path="url(#p63141f6541)" d="M 206.770909 473.087266 
L 206.770909 448.603038 
" style="fill:none;stroke:#ff0000;stroke-width:1.5;"/>
    <path clip-path="url(#p63141f6541)" d="M 225.425455 473.258337 
L 225.425455 448.77411 
" style="fill:none;stroke:#ff0000;stroke-width:1.5;"/>
    <path clip-path="url(#p63141f6541)" d="M 244.08 473.334369 
L 244.08 448.850141 
" style="fill:none;stroke:#ff0000;stroke-width:1.5;"/>
    <path clip-path="url(#p63141f6541)" d="M 262.734545 473.252 
L 262.734545 448.767772 
" style="fill:none;stroke:#ff0000;stroke-width:1.5;"/>
    <path clip-path="url(#p63141f6541)" d="M 281.389091 473.128449 
L 281.389091 448.644221 
" style="fill:none;stroke:#ff0000;stroke-width:1.5;"/>
    <path clip-path="url(#p63141f6541)" d="M 300.043636 473.09677 
L 300.043636 448.612542 
" style="fill:none;stroke:#ff0000;stroke-width:1.5;"/>
    <path clip-path="url(#p63141f6541)" d="M 318.698182 471.994315 
L 318.698182 447.510087 
" style="fill:none;stroke:#ff0000;stroke-width:1.5;"/>
    <path clip-path="url(#p63141f6541)" d="M 337.352727 450.553436 
L 337.352727 426.069208 
" style="fill:none;stroke:#ff0000;stroke-width:1.5;"/>
    <path clip-path="url(#p63141f6541)" d="M 356.007273 403.638864 
L 356.007273 379.154636 
" style="fill:none;stroke:#ff0000;stroke-width:1.5;"/>
    <path clip-path="url(#p63141f6541)" d="M 374.661818 362.49316 
L 374.661818 338.008932 
" style="fill:none;stroke:#ff0000;stroke-width:1.5;"/>
    <path clip-path="url(#p63141f6541)" d="M 393.316364 318.737029 
L 393.316364 294.252802 
" style="fill:none;stroke:#ff0000;stroke-width:1.5;"/>
    <path clip-path="url(#p63141f6541)" d="M 411.970909 277.033738 
L 411.970909 252.54951 
" style="fill:none;stroke:#ff0000;stroke-width:1.5;"/>
    <path clip-path="url(#p63141f6541)" d="M 430.625455 246.925279 
L 430.625455 222.441051 
" style="fill:none;stroke:#ff0000;stroke-width:1.5;"/>
    <path clip-path="url(#p63141f6541)" d="M 449.28 212.844173 
L 449.28 188.359945 
" style="fill:none;stroke:#ff0000;stroke-width:1.5;"/>
    <path clip-path="url(#p63141f6541)" d="M 467.934545 189.195224 
L 467.934545 164.710997 
" style="fill:none;stroke:#ff0000;stroke-width:1.5;"/>
    <path clip-path="url(#p63141f6541)" d="M 486.589091 180.08093 
L 486.589091 155.596702 
" style="fill:none;stroke:#ff0000;stroke-width:1.5;"/>
    <path clip-path="url(#p63141f6541)" d="M 505.243636 167.976091 
L 505.243636 143.491863 
" style="fill:none;stroke:#ff0000;stroke-width:1.5;"/>
    <path clip-path="url(#p63141f6541)" d="M 523.898182 164.488149 
L 523.898182 140.003922 
" style="fill:none;stroke:#ff0000;stroke-width:1.5;"/>
    <path clip-path="url(#p63141f6541)" d="M 542.552727 159.324344 
L 542.552727 134.840116 
" style="fill:none;stroke:#ff0000;stroke-width:1.5;"/>
    <path clip-path="url(#p63141f6541)" d="M 561.207273 158.161711 
L 561.207273 133.677483 
" style="fill:none;stroke:#ff0000;stroke-width:1.5;"/>
    <path clip-path="url(#p63141f6541)" d="M 579.861818 157.192298 
L 579.861818 132.708071 
" style="fill:none;stroke:#ff0000;stroke-width:1.5;"/>
    <path clip-path="url(#p63141f6541)" d="M 598.516364 157.296846 
L 598.516364 132.812618 
" style="fill:none;stroke:#ff0000;stroke-width:1.5;"/>
    <path clip-path="url(#p63141f6541)" d="M 617.170909 157.195481 
L 617.170909 132.711254 
" style="fill:none;stroke:#ff0000;stroke-width:1.5;"/>
    <path clip-path="url(#p63141f6541)" d="M 635.825455 156.964228 
L 635.825455 132.48 
" style="fill:none;stroke:#ff0000;stroke-width:1.5;"/>
    <path clip-path="url(#p63141f6541)" d="M 654.48 158.076179 
L 654.48 133.591951 
" style="fill:none;stroke:#ff0000;stroke-width:1.5;"/>
    <path clip-path="url(#p63141f6541)" d="M 673.134545 158.427813 
L 673.134545 133.943586 
" style="fill:none;stroke:#ff0000;stroke-width:1.5;"/>
    <path clip-path="url(#p63141f6541)" d="M 691.789091 158.788956 
L 691.789091 134.304728 
" style="fill:none;stroke:#ff0000;stroke-width:1.5;"/>
    <path clip-path="url(#p63141f6541)" d="M 710.443636 159.270479 
L 710.443636 134.786251 
" style="fill:none;stroke:#ff0000;stroke-width:1.5;"/>
    <path clip-path="url(#p63141f6541)" d="M 729.098182 160.11951 
L 729.098182 135.635282 
" style="fill:none;stroke:#ff0000;stroke-width:1.5;"/>
    <path clip-path="url(#p63141f6541)" d="M 747.752727 159.625296 
L 747.752727 135.141068 
" style="fill:none;stroke:#ff0000;stroke-width:1.5;"/>
   </g>
   <g id="line2d_12">
    <path clip-path="url(#p63141f6541)" d="M 150.807273 235.313425 
L 169.461818 235.389604 
L 188.116364 235.16182 
L 206.770909 234.955392 
L 225.425455 217.052695 
L 244.08 189.959617 
L 262.734545 170.042255 
L 281.389091 159.963067 
L 300.043636 155.923617 
L 318.698182 155.720424 
L 337.352727 173.695092 
L 356.007273 212.118066 
L 374.661818 254.195337 
L 393.316364 291.717063 
L 411.970909 327.847726 
L 430.625455 362.993142 
L 449.28 393.78358 
L 467.934545 416.860419 
L 486.589091 433.319947 
L 505.243636 444.510567 
L 523.898182 451.525306 
L 542.552727 456.236404 
L 561.207273 459.362436 
L 579.861818 461.463046 
L 598.516364 462.828933 
L 617.170909 463.692573 
L 635.825455 464.398301 
L 654.48 464.941452 
L 673.134545 465.309077 
L 691.789091 465.603281 
L 710.443636 465.799452 
L 729.098182 465.929583 
L 747.752727 466.063787 
" style="fill:none;stroke:#808080;stroke-dasharray:9.6,2.4,1.5,2.4;stroke-dashoffset:0;stroke-width:1.5;"/>
   </g>
   <g id="line2d_13">
    <path clip-path="url(#p63141f6541)" d="M 150.807273 235.313425 
L 169.461818 235.389604 
L 188.116364 235.16182 
L 206.770909 234.955392 
L 225.425455 214.790496 
L 244.08 186.127253 
L 262.734545 166.902267 
L 281.389091 157.87283 
L 300.043636 154.560854 
L 318.698182 154.610278 
L 337.352727 173.456995 
L 356.007273 209.561609 
L 374.661818 248.458126 
L 393.316364 282.462639 
L 411.970909 317.637206 
L 430.625455 354.396993 
L 449.28 386.78519 
L 467.934545 412.051904 
L 486.589091 429.562266 
L 505.243636 441.425305 
L 523.898182 449.533797 
L 542.552727 455.025542 
L 561.207273 458.711816 
L 579.861818 461.195998 
L 598.516364 462.561639 
L 617.170909 463.686202 
L 635.825455 464.546255 
L 654.48 465.077675 
L 673.134545 465.405439 
L 691.789091 465.704553 
L 710.443636 465.869844 
L 729.098182 466.06967 
L 747.752727 466.147025 
" style="fill:none;stroke:#0000ff;stroke-dasharray:9.6,2.4,1.5,2.4;stroke-dashoffset:0;stroke-width:1.5;"/>
   </g>
   <g id="line2d_14">
    <path clip-path="url(#p63141f6541)" d="M 150.807273 235.313425 
L 169.461818 235.389604 
L 188.116364 235.16182 
L 206.770909 234.955392 
L 225.425455 213.805905 
L 244.08 184.345236 
L 262.734545 165.957371 
L 281.389091 156.817411 
L 300.043636 153.824892 
L 318.698182 154.317479 
L 337.352727 175.050339 
L 356.007273 212.965209 
L 374.661818 252.075791 
L 393.316364 286.313854 
L 411.970909 322.111123 
L 430.625455 358.422457 
L 449.28 390.064895 
L 467.934545 415.00488 
L 486.589091 431.926871 
L 505.243636 443.228546 
L 523.898182 451.014601 
L 542.552727 455.80027 
L 561.207273 459.127133 
L 579.861818 461.46806 
L 598.516364 463.117915 
L 617.170909 464.046933 
L 635.825455 464.68328 
L 654.48 465.179399 
L 673.134545 465.461523 
L 691.789091 465.694805 
L 710.443636 465.913743 
L 729.098182 466.108139 
L 747.752727 466.211637 
" style="fill:none;stroke:#808080;stroke-dasharray:1.5,2.475;stroke-dashoffset:0;stroke-width:1.5;"/>
   </g>
   <g id="line2d_15">
    <path clip-path="url(#p63141f6541)" d="M 150.807273 235.313425 
L 169.461818 235.389604 
L 188.116364 235.16182 
L 206.770909 234.955392 
L 225.425455 216.887421 
L 244.08 189.729304 
L 262.734545 170.276679 
L 281.389091 160.132962 
L 300.043636 156.002472 
L 318.698182 155.750487 
L 337.352727 174.188944 
L 356.007273 213.020276 
L 374.661818 255.404234 
L 393.316364 292.245393 
L 411.970909 329.279639 
L 430.625455 366.380592 
L 449.28 396.753424 
L 467.934545 418.999712 
L 486.589091 435.278791 
L 505.243636 445.745178 
L 523.898182 452.453662 
L 542.552727 457.011129 
L 561.207273 460.107259 
L 579.861818 462.248218 
L 598.516364 463.440353 
L 617.170909 464.243209 
L 635.825455 464.768641 
L 654.48 465.187684 
L 673.134545 465.458947 
L 691.789091 465.696301 
L 710.443636 465.957468 
L 729.098182 466.049792 
L 747.752727 466.142534 
" style="fill:none;stroke:#0000ff;stroke-dasharray:1.5,2.475;stroke-dashoffset:0;stroke-width:1.5;"/>
   </g>
   <g id="line2d_16">
    <path clip-path="url(#p63141f6541)" d="M 150.807273 460.803968 
L 169.461818 460.860999 
L 188.116364 460.886329 
L 206.770909 460.845157 
L 225.425455 460.859248 
L 244.08 460.708337 
L 262.734545 460.677075 
L 281.389091 460.80282 
L 300.043636 461.06757 
L 318.698182 460.001216 
L 337.352727 438.155636 
L 356.007273 391.543301 
L 374.661818 341.374029 
L 393.316364 297.723797 
L 411.970909 258.014202 
L 430.625455 222.013934 
L 449.28 192.404287 
L 467.934545 172.167833 
L 486.589091 158.91115 
L 505.243636 150.898361 
L 523.898182 147.100122 
L 542.552727 144.728786 
L 561.207273 143.757427 
L 579.861818 143.722037 
L 598.516364 144.098191 
L 617.170909 144.540892 
L 635.825455 145.110291 
L 654.48 145.661253 
L 673.134545 146.275333 
L 691.789091 146.800902 
L 710.443636 147.273788 
L 729.098182 147.761657 
L 747.752727 148.081478 
" style="fill:none;stroke:#808080;stroke-dasharray:9.6,2.4,1.5,2.4;stroke-dashoffset:0;stroke-width:1.5;"/>
   </g>
   <g id="line2d_17">
    <path clip-path="url(#p63141f6541)" d="M 150.807273 460.803968 
L 169.461818 460.860999 
L 188.116364 460.886329 
L 206.770909 460.845157 
L 225.425455 460.905902 
L 244.08 460.73441 
L 262.734545 460.699877 
L 281.389091 460.90134 
L 300.043636 461.245257 
L 318.698182 460.038502 
L 337.352727 437.128651 
L 356.007273 393.344552 
L 374.661818 346.511535 
L 393.316364 305.763729 
L 411.970909 266.703045 
L 430.625455 229.305305 
L 449.28 198.421577 
L 467.934545 175.998057 
L 486.589091 161.757488 
L 505.243636 152.993049 
L 523.898182 147.754895 
L 542.552727 145.029685 
L 561.207273 143.470879 
L 579.861818 142.929938 
L 598.516364 143.191895 
L 617.170909 143.498315 
L 635.825455 143.888479 
L 654.48 144.5406 
L 673.134545 145.173992 
L 691.789091 145.794786 
L 710.443636 146.533983 
L 729.098182 147.028856 
L 747.752727 147.649406 
" style="fill:none;stroke:#0000ff;stroke-dasharray:9.6,2.4,1.5,2.4;stroke-dashoffset:0;stroke-width:1.5;"/>
   </g>
   <g id="line2d_18">
    <path clip-path="url(#p63141f6541)" d="M 150.807273 460.803968 
L 169.461818 460.860999 
L 188.116364 460.886329 
L 206.770909 460.845157 
L 225.425455 460.867257 
L 244.08 460.698623 
L 262.734545 460.682507 
L 281.389091 460.93504 
L 300.043636 461.383535 
L 318.698182 459.663009 
L 337.352727 434.959839 
L 356.007273 389.014176 
L 374.661818 341.677092 
L 393.316364 300.32676 
L 411.970909 261.053907 
L 430.625455 224.408425 
L 449.28 194.311324 
L 467.934545 172.110091 
L 486.589091 158.890646 
L 505.243636 151.262791 
L 523.898182 146.363795 
L 542.552727 144.055796 
L 561.207273 142.676834 
L 579.861818 142.577426 
L 598.516364 142.74647 
L 617.170909 143.242219 
L 635.825455 144.005958 
L 654.48 144.584065 
L 673.134545 145.376675 
L 691.789091 146.11361 
L 710.443636 146.634801 
L 729.098182 147.101849 
L 747.752727 147.684918 
" style="fill:none;stroke:#808080;stroke-dasharray:1.5,2.475;stroke-dashoffset:0;stroke-width:1.5;"/>
   </g>
   <g id="line2d_19">
    <path clip-path="url(#p63141f6541)" d="M 150.807273 460.803968 
L 169.461818 460.860999 
L 188.116364 460.886329 
L 206.770909 460.845157 
L 225.425455 460.883376 
L 244.08 460.739077 
L 262.734545 460.677181 
L 281.389091 460.84536 
L 300.043636 461.129712 
L 318.698182 460.053923 
L 337.352727 437.411827 
L 356.007273 390.432937 
L 374.661818 340.285701 
L 393.316364 296.617433 
L 411.970909 256.13662 
L 430.625455 218.07343 
L 449.28 189.167153 
L 467.934545 169.755464 
L 486.589091 156.650969 
L 505.243636 149.292759 
L 523.898182 145.360184 
L 542.552727 143.353789 
L 561.207273 142.660027 
L 579.861818 142.625829 
L 598.516364 143.084826 
L 617.170909 143.859243 
L 635.825455 144.644215 
L 654.48 145.238935 
L 673.134545 145.957846 
L 691.789091 146.604398 
L 710.443636 147.294414 
L 729.098182 147.847979 
L 747.752727 148.311451 
" style="fill:none;stroke:#0000ff;stroke-dasharray:1.5,2.475;stroke-dashoffset:0;stroke-width:1.5;"/>
   </g>
   <g id="line2d_20">
    <defs>
     <path d="M 0 3 
C 0.795609 3 1.55874 2.683901 2.12132 2.12132 
C 2.683901 1.55874 3 0.795609 3 0 
C 3 -0.795609 2.683901 -1.55874 2.12132 -2.12132 
C 1.55874 -2.683901 0.795609 -3 0 -3 
C -0.795609 -3 -1.55874 -2.683901 -2.12132 -2.12132 
C -2.683901 -1.55874 -3 -0.795609 -3 0 
C -3 0.795609 -2.683901 1.55874 -2.12132 2.12132 
C -1.55874 2.683901 -0.795609 3 0 3 
z
" id="m16f4093755" style="stroke:#008000;"/>
    </defs>
    <g clip-path="url(#p63141f6541)">
     <use style="fill:#008000;stroke:#008000;" x="150.807273" xlink:href="#m16f4093755" y="235.313593"/>
     <use style="fill:#008000;stroke:#008000;" x="169.461818" xlink:href="#m16f4093755" y="235.389617"/>
     <use style="fill:#008000;stroke:#008000;" x="188.116364" xlink:href="#m16f4093755" y="235.161546"/>
     <use style="fill:#008000;stroke:#008000;" x="206.770909" xlink:href="#m16f4093755" y="234.955634"/>
     <use style="fill:#008000;stroke:#008000;" x="225.425455" xlink:href="#m16f4093755" y="215.16842"/>
     <use style="fill:#008000;stroke:#008000;" x="244.08" xlink:href="#m16f4093755" y="189.621862"/>
     <use style="fill:#008000;stroke:#008000;" x="262.734545" xlink:href="#m16f4093755" y="171.36479"/>
     <use style="fill:#008000;stroke:#008000;" x="281.389091" xlink:href="#m16f4093755" y="157.055023"/>
     <use style="fill:#008000;stroke:#008000;" x="300.043636" xlink:href="#m16f4093755" y="156.855436"/>
     <use style="fill:#008000;stroke:#008000;" x="318.698182" xlink:href="#m16f4093755" y="157.451015"/>
     <use style="fill:#008000;stroke:#008000;" x="337.352727" xlink:href="#m16f4093755" y="173.313081"/>
     <use style="fill:#008000;stroke:#008000;" x="356.007273" xlink:href="#m16f4093755" y="211.132439"/>
     <use style="fill:#008000;stroke:#008000;" x="374.661818" xlink:href="#m16f4093755" y="247.614877"/>
     <use style="fill:#008000;stroke:#008000;" x="393.316364" xlink:href="#m16f4093755" y="282.994831"/>
     <use style="fill:#008000;stroke:#008000;" x="411.970909" xlink:href="#m16f4093755" y="324.533385"/>
     <use style="fill:#008000;stroke:#008000;" x="430.625455" xlink:href="#m16f4093755" y="351.160227"/>
     <use style="fill:#008000;stroke:#008000;" x="449.28" xlink:href="#m16f4093755" y="387.249856"/>
     <use style="fill:#008000;stroke:#008000;" x="467.934545" xlink:href="#m16f4093755" y="410.347583"/>
     <use style="fill:#008000;stroke:#008000;" x="486.589091" xlink:href="#m16f4093755" y="425.826308"/>
     <use style="fill:#008000;stroke:#008000;" x="505.243636" xlink:href="#m16f4093755" y="439.128658"/>
     <use style="fill:#008000;stroke:#008000;" x="523.898182" xlink:href="#m16f4093755" y="447.251358"/>
     <use style="fill:#008000;stroke:#008000;" x="542.552727" xlink:href="#m16f4093755" y="454.591562"/>
     <use style="fill:#008000;stroke:#008000;" x="561.207273" xlink:href="#m16f4093755" y="457.90527"/>
     <use style="fill:#008000;stroke:#008000;" x="579.861818" xlink:href="#m16f4093755" y="459.622312"/>
     <use style="fill:#008000;stroke:#008000;" x="598.516364" xlink:href="#m16f4093755" y="460.398466"/>
     <use style="fill:#008000;stroke:#008000;" x="617.170909" xlink:href="#m16f4093755" y="462.54002"/>
     <use style="fill:#008000;stroke:#008000;" x="635.825455" xlink:href="#m16f4093755" y="463.135599"/>
     <use style="fill:#008000;stroke:#008000;" x="654.48" xlink:href="#m16f4093755" y="463.113424"/>
     <use style="fill:#008000;stroke:#008000;" x="673.134545" xlink:href="#m16f4093755" y="463.179952"/>
     <use style="fill:#008000;stroke:#008000;" x="691.789091" xlink:href="#m16f4093755" y="464.01313"/>
     <use style="fill:#008000;stroke:#008000;" x="710.443636" xlink:href="#m16f4093755" y="464.063816"/>
     <use style="fill:#008000;stroke:#008000;" x="729.098182" xlink:href="#m16f4093755" y="464.954018"/>
     <use style="fill:#008000;stroke:#008000;" x="747.752727" xlink:href="#m16f4093755" y="465.837886"/>
    </g>
   </g>
   <g id="line2d_21">
    <defs>
     <path d="M 0 3 
C 0.795609 3 1.55874 2.683901 2.12132 2.12132 
C 2.683901 1.55874 3 0.795609 3 0 
C 3 -0.795609 2.683901 -1.55874 2.12132 -2.12132 
C 1.55874 -2.683901 0.795609 -3 0 -3 
C -0.795609 -3 -1.55874 -2.683901 -2.12132 -2.12132 
C -2.683901 -1.55874 -3 -0.795609 -3 0 
C -3 0.795609 -2.683901 1.55874 -2.12132 2.12132 
C -1.55874 2.683901 -0.795609 3 0 3 
z
" id="m30140446a8" style="stroke:#ff0000;"/>
    </defs>
    <g clip-path="url(#p63141f6541)">
     <use style="fill:#ff0000;stroke:#ff0000;" x="150.807273" xlink:href="#m30140446a8" y="460.80397"/>
     <use style="fill:#ff0000;stroke:#ff0000;" x="169.461818" xlink:href="#m30140446a8" y="460.860993"/>
     <use style="fill:#ff0000;stroke:#ff0000;" x="188.116364" xlink:href="#m30140446a8" y="460.886335"/>
     <use style="fill:#ff0000;stroke:#ff0000;" x="206.770909" xlink:href="#m30140446a8" y="460.845152"/>
     <use style="fill:#ff0000;stroke:#ff0000;" x="225.425455" xlink:href="#m30140446a8" y="461.016223"/>
     <use style="fill:#ff0000;stroke:#ff0000;" x="244.08" xlink:href="#m30140446a8" y="461.092255"/>
     <use style="fill:#ff0000;stroke:#ff0000;" x="262.734545" xlink:href="#m30140446a8" y="461.009886"/>
     <use style="fill:#ff0000;stroke:#ff0000;" x="281.389091" xlink:href="#m30140446a8" y="460.886335"/>
     <use style="fill:#ff0000;stroke:#ff0000;" x="300.043636" xlink:href="#m30140446a8" y="460.854656"/>
     <use style="fill:#ff0000;stroke:#ff0000;" x="318.698182" xlink:href="#m30140446a8" y="459.752201"/>
     <use style="fill:#ff0000;stroke:#ff0000;" x="337.352727" xlink:href="#m30140446a8" y="438.311322"/>
     <use style="fill:#ff0000;stroke:#ff0000;" x="356.007273" xlink:href="#m30140446a8" y="391.39675"/>
     <use style="fill:#ff0000;stroke:#ff0000;" x="374.661818" xlink:href="#m30140446a8" y="350.251046"/>
     <use style="fill:#ff0000;stroke:#ff0000;" x="393.316364" xlink:href="#m30140446a8" y="306.494916"/>
     <use style="fill:#ff0000;stroke:#ff0000;" x="411.970909" xlink:href="#m30140446a8" y="264.791624"/>
     <use style="fill:#ff0000;stroke:#ff0000;" x="430.625455" xlink:href="#m30140446a8" y="234.683165"/>
     <use style="fill:#ff0000;stroke:#ff0000;" x="449.28" xlink:href="#m30140446a8" y="200.602059"/>
     <use style="fill:#ff0000;stroke:#ff0000;" x="467.934545" xlink:href="#m30140446a8" y="176.95311"/>
     <use style="fill:#ff0000;stroke:#ff0000;" x="486.589091" xlink:href="#m30140446a8" y="167.838816"/>
     <use style="fill:#ff0000;stroke:#ff0000;" x="505.243636" xlink:href="#m30140446a8" y="155.733977"/>
     <use style="fill:#ff0000;stroke:#ff0000;" x="523.898182" xlink:href="#m30140446a8" y="152.246035"/>
     <use style="fill:#ff0000;stroke:#ff0000;" x="542.552727" xlink:href="#m30140446a8" y="147.08223"/>
     <use style="fill:#ff0000;stroke:#ff0000;" x="561.207273" xlink:href="#m30140446a8" y="145.919597"/>
     <use style="fill:#ff0000;stroke:#ff0000;" x="579.861818" xlink:href="#m30140446a8" y="144.950184"/>
     <use style="fill:#ff0000;stroke:#ff0000;" x="598.516364" xlink:href="#m30140446a8" y="145.054732"/>
     <use style="fill:#ff0000;stroke:#ff0000;" x="617.170909" xlink:href="#m30140446a8" y="144.953367"/>
     <use style="fill:#ff0000;stroke:#ff0000;" x="635.825455" xlink:href="#m30140446a8" y="144.722114"/>
     <use style="fill:#ff0000;stroke:#ff0000;" x="654.48" xlink:href="#m30140446a8" y="145.834065"/>
     <use style="fill:#ff0000;stroke:#ff0000;" x="673.134545" xlink:href="#m30140446a8" y="146.185699"/>
     <use style="fill:#ff0000;stroke:#ff0000;" x="691.789091" xlink:href="#m30140446a8" y="146.546842"/>
     <use style="fill:#ff0000;stroke:#ff0000;" x="710.443636" xlink:href="#m30140446a8" y="147.028365"/>
     <use style="fill:#ff0000;stroke:#ff0000;" x="729.098182" xlink:href="#m30140446a8" y="147.877396"/>
     <use style="fill:#ff0000;stroke:#ff0000;" x="747.752727" xlink:href="#m30140446a8" y="147.383182"/>
    </g>
   </g>
   <g id="patch_3">
    <path d="M 120.96 495.36 
L 120.96 115.2 
" style="fill:none;stroke:#000000;stroke-linecap:square;stroke-linejoin:miter;stroke-width:0.8;"/>
   </g>
   <g id="patch_4">
    <path d="M 777.6 495.36 
L 777.6 115.2 
" style="fill:none;stroke:#000000;stroke-linecap:square;stroke-linejoin:miter;stroke-width:0.8;"/>
   </g>
   <g id="patch_5">
    <path d="M 120.96 495.36 
L 777.6 495.36 
" style="fill:none;stroke:#000000;stroke-linecap:square;stroke-linejoin:miter;stroke-width:0.8;"/>
   </g>
   <g id="patch_6">
    <path d="M 120.96 115.2 
L 777.6 115.2 
" style="fill:none;stroke:#000000;stroke-linecap:square;stroke-linejoin:miter;stroke-width:0.8;"/>
   </g>
   <g id="legend_1">
    <g id="patch_7">
     <path d="M 58.600156 108.933375 
L 839.959844 108.933375 
Q 842.759844 108.933375 842.759844 106.133375 
L 842.759844 86.984 
Q 842.759844 84.184 839.959844 84.184 
L 58.600156 84.184 
Q 55.800156 84.184 55.800156 86.984 
L 55.800156 106.133375 
Q 55.800156 108.933375 58.600156 108.933375 
z
" style="fill:#ffffff;opacity:0.8;stroke:#cccccc;stroke-linejoin:miter;"/>
    </g>
    <g id="line2d_22">
     <path d="M 61.400156 95.521812 
L 89.400156 95.521812 
" style="fill:none;stroke:#808080;stroke-dasharray:9.6,2.4,1.5,2.4;stroke-dashoffset:0;stroke-width:1.5;"/>
    </g>
    <g id="line2d_23"/>
    <g id="text_14">
     <!-- MCMC (100) -->
     <defs>
      <path d="M 9.8125 72.90625 
L 24.515625 72.90625 
L 43.109375 23.296875 
L 61.8125 72.90625 
L 76.515625 72.90625 
L 76.515625 0 
L 66.890625 0 
L 66.890625 64.015625 
L 48.09375 14.015625 
L 38.1875 14.015625 
L 19.390625 64.015625 
L 19.390625 0 
L 9.8125 0 
z
" id="DejaVuSans-77"/>
     </defs>
     <g transform="translate(100.600156 100.421812)scale(0.14 -0.14)">
      <use xlink:href="#DejaVuSans-77"/>
      <use x="86.279297" xlink:href="#DejaVuSans-67"/>
      <use x="156.103516" xlink:href="#DejaVuSans-77"/>
      <use x="242.382812" xlink:href="#DejaVuSans-67"/>
      <use x="312.207031" xlink:href="#DejaVuSans-32"/>
      <use x="343.994141" xlink:href="#DejaVuSans-40"/>
      <use x="383.007812" xlink:href="#DejaVuSans-49"/>
      <use x="446.630859" xlink:href="#DejaVuSans-48"/>
      <use x="510.253906" xlink:href="#DejaVuSans-48"/>
      <use x="573.876953" xlink:href="#DejaVuSans-41"/>
     </g>
    </g>
    <g id="line2d_24">
     <path d="M 214.407031 95.521812 
L 242.407031 95.521812 
" style="fill:none;stroke:#0000ff;stroke-dasharray:9.6,2.4,1.5,2.4;stroke-dashoffset:0;stroke-width:1.5;"/>
    </g>
    <g id="line2d_25"/>
    <g id="text_15">
     <!-- SMC (100) -->
     <defs>
      <path d="M 53.515625 70.515625 
L 53.515625 60.890625 
Q 47.90625 63.578125 42.921875 64.890625 
Q 37.9375 66.21875 33.296875 66.21875 
Q 25.25 66.21875 20.875 63.09375 
Q 16.5 59.96875 16.5 54.203125 
Q 16.5 49.359375 19.40625 46.890625 
Q 22.3125 44.4375 30.421875 42.921875 
L 36.375 41.703125 
Q 47.40625 39.59375 52.65625 34.296875 
Q 57.90625 29 57.90625 20.125 
Q 57.90625 9.515625 50.796875 4.046875 
Q 43.703125 -1.421875 29.984375 -1.421875 
Q 24.8125 -1.421875 18.96875 -0.25 
Q 13.140625 0.921875 6.890625 3.21875 
L 6.890625 13.375 
Q 12.890625 10.015625 18.65625 8.296875 
Q 24.421875 6.59375 29.984375 6.59375 
Q 38.421875 6.59375 43.015625 9.90625 
Q 47.609375 13.234375 47.609375 19.390625 
Q 47.609375 24.75 44.3125 27.78125 
Q 41.015625 30.8125 33.5 32.328125 
L 27.484375 33.5 
Q 16.453125 35.6875 11.515625 40.375 
Q 6.59375 45.0625 6.59375 53.421875 
Q 6.59375 63.09375 13.40625 68.65625 
Q 20.21875 74.21875 32.171875 74.21875 
Q 37.3125 74.21875 42.625 73.28125 
Q 47.953125 72.359375 53.515625 70.515625 
z
" id="DejaVuSans-83"/>
     </defs>
     <g transform="translate(253.607031 100.421812)scale(0.14 -0.14)">
      <use xlink:href="#DejaVuSans-83"/>
      <use x="63.476562" xlink:href="#DejaVuSans-77"/>
      <use x="149.755859" xlink:href="#DejaVuSans-67"/>
      <use x="219.580078" xlink:href="#DejaVuSans-32"/>
      <use x="251.367188" xlink:href="#DejaVuSans-40"/>
      <use x="290.380859" xlink:href="#DejaVuSans-49"/>
      <use x="354.003906" xlink:href="#DejaVuSans-48"/>
      <use x="417.626953" xlink:href="#DejaVuSans-48"/>
      <use x="481.25" xlink:href="#DejaVuSans-41"/>
     </g>
    </g>
    <g id="line2d_26">
     <path d="M 354.446406 95.521812 
L 382.446406 95.521812 
" style="fill:none;stroke:#808080;stroke-dasharray:1.5,2.475;stroke-dashoffset:0;stroke-width:1.5;"/>
    </g>
    <g id="line2d_27"/>
    <g id="text_16">
     <!-- MCMC (1000) -->
     <g transform="translate(393.646406 100.421812)scale(0.14 -0.14)">
      <use xlink:href="#DejaVuSans-77"/>
      <use x="86.279297" xlink:href="#DejaVuSans-67"/>
      <use x="156.103516" xlink:href="#DejaVuSans-77"/>
      <use x="242.382812" xlink:href="#DejaVuSans-67"/>
      <use x="312.207031" xlink:href="#DejaVuSans-32"/>
      <use x="343.994141" xlink:href="#DejaVuSans-40"/>
      <use x="383.007812" xlink:href="#DejaVuSans-49"/>
      <use x="446.630859" xlink:href="#DejaVuSans-48"/>
      <use x="510.253906" xlink:href="#DejaVuSans-48"/>
      <use x="573.876953" xlink:href="#DejaVuSans-48"/>
      <use x="637.5" xlink:href="#DejaVuSans-41"/>
     </g>
    </g>
    <g id="line2d_28">
     <path d="M 516.360781 95.521812 
L 544.360781 95.521812 
" style="fill:none;stroke:#0000ff;stroke-dasharray:1.5,2.475;stroke-dashoffset:0;stroke-width:1.5;"/>
    </g>
    <g id="line2d_29"/>
    <g id="text_17">
     <!-- SMC (1000) -->
     <g transform="translate(555.560781 100.421812)scale(0.14 -0.14)">
      <use xlink:href="#DejaVuSans-83"/>
      <use x="63.476562" xlink:href="#DejaVuSans-77"/>
      <use x="149.755859" xlink:href="#DejaVuSans-67"/>
      <use x="219.580078" xlink:href="#DejaVuSans-32"/>
      <use x="251.367188" xlink:href="#DejaVuSans-40"/>
      <use x="290.380859" xlink:href="#DejaVuSans-49"/>
      <use x="354.003906" xlink:href="#DejaVuSans-48"/>
      <use x="417.626953" xlink:href="#DejaVuSans-48"/>
      <use x="481.25" xlink:href="#DejaVuSans-48"/>
      <use x="544.873047" xlink:href="#DejaVuSans-41"/>
     </g>
    </g>
    <g id="LineCollection_3">
     <path d="M 679.307656 102.521812 
L 679.307656 88.521812 
" style="fill:none;stroke:#008000;stroke-width:1.5;"/>
    </g>
    <g id="line2d_30"/>
    <g id="line2d_31">
     <g>
      <use style="fill:#008000;stroke:#008000;" x="679.307656" xlink:href="#m16f4093755" y="95.521812"/>
     </g>
    </g>
    <g id="text_18">
     <!-- Live -->
     <defs>
      <path d="M 9.8125 72.90625 
L 19.671875 72.90625 
L 19.671875 8.296875 
L 55.171875 8.296875 
L 55.171875 0 
L 9.8125 0 
z
" id="DejaVuSans-76"/>
      <path d="M 2.984375 54.6875 
L 12.5 54.6875 
L 29.59375 8.796875 
L 46.6875 54.6875 
L 56.203125 54.6875 
L 35.6875 0 
L 23.484375 0 
z
" id="DejaVuSans-118"/>
     </defs>
     <g transform="translate(704.507656 100.421812)scale(0.14 -0.14)">
      <use xlink:href="#DejaVuSans-76"/>
      <use x="55.712891" xlink:href="#DejaVuSans-105"/>
      <use x="83.496094" xlink:href="#DejaVuSans-118"/>
      <use x="142.675781" xlink:href="#DejaVuSans-101"/>
     </g>
    </g>
    <g id="LineCollection_4">
     <path d="M 775.098281 102.521812 
L 775.098281 88.521812 
" style="fill:none;stroke:#ff0000;stroke-width:1.5;"/>
    </g>
    <g id="line2d_32"/>
    <g id="line2d_33">
     <g>
      <use style="fill:#ff0000;stroke:#ff0000;" x="775.098281" xlink:href="#m30140446a8" y="95.521812"/>
     </g>
    </g>
    <g id="text_19">
     <!-- Dead -->
     <defs>
      <path d="M 19.671875 64.796875 
L 19.671875 8.109375 
L 31.59375 8.109375 
Q 46.6875 8.109375 53.6875 14.9375 
Q 60.6875 21.78125 60.6875 36.53125 
Q 60.6875 51.171875 53.6875 57.984375 
Q 46.6875 64.796875 31.59375 64.796875 
z
M 9.8125 72.90625 
L 30.078125 72.90625 
Q 51.265625 72.90625 61.171875 64.09375 
Q 71.09375 55.28125 71.09375 36.53125 
Q 71.09375 17.671875 61.125 8.828125 
Q 51.171875 0 30.078125 0 
L 9.8125 0 
z
" id="DejaVuSans-68"/>
      <path d="M 34.28125 27.484375 
Q 23.390625 27.484375 19.1875 25 
Q 14.984375 22.515625 14.984375 16.5 
Q 14.984375 11.71875 18.140625 8.90625 
Q 21.296875 6.109375 26.703125 6.109375 
Q 34.1875 6.109375 38.703125 11.40625 
Q 43.21875 16.703125 43.21875 25.484375 
L 43.21875 27.484375 
z
M 52.203125 31.203125 
L 52.203125 0 
L 43.21875 0 
L 43.21875 8.296875 
Q 40.140625 3.328125 35.546875 0.953125 
Q 30.953125 -1.421875 24.3125 -1.421875 
Q 15.921875 -1.421875 10.953125 3.296875 
Q 6 8.015625 6 15.921875 
Q 6 25.140625 12.171875 29.828125 
Q 18.359375 34.515625 30.609375 34.515625 
L 43.21875 34.515625 
L 43.21875 35.40625 
Q 43.21875 41.609375 39.140625 45 
Q 35.0625 48.390625 27.6875 48.390625 
Q 23 48.390625 18.546875 47.265625 
Q 14.109375 46.140625 10.015625 43.890625 
L 10.015625 52.203125 
Q 14.9375 54.109375 19.578125 55.046875 
Q 24.21875 56 28.609375 56 
Q 40.484375 56 46.34375 49.84375 
Q 52.203125 43.703125 52.203125 31.203125 
z
" id="DejaVuSans-97"/>
      <path d="M 45.40625 46.390625 
L 45.40625 75.984375 
L 54.390625 75.984375 
L 54.390625 0 
L 45.40625 0 
L 45.40625 8.203125 
Q 42.578125 3.328125 38.25 0.953125 
Q 33.9375 -1.421875 27.875 -1.421875 
Q 17.96875 -1.421875 11.734375 6.484375 
Q 5.515625 14.40625 5.515625 27.296875 
Q 5.515625 40.1875 11.734375 48.09375 
Q 17.96875 56 27.875 56 
Q 33.9375 56 38.25 53.625 
Q 42.578125 51.265625 45.40625 46.390625 
z
M 14.796875 27.296875 
Q 14.796875 17.390625 18.875 11.75 
Q 22.953125 6.109375 30.078125 6.109375 
Q 37.203125 6.109375 41.296875 11.75 
Q 45.40625 17.390625 45.40625 27.296875 
Q 45.40625 37.203125 41.296875 42.84375 
Q 37.203125 48.484375 30.078125 48.484375 
Q 22.953125 48.484375 18.875 42.84375 
Q 14.796875 37.203125 14.796875 27.296875 
z
" id="DejaVuSans-100"/>
     </defs>
     <g transform="translate(800.298281 100.421812)scale(0.14 -0.14)">
      <use xlink:href="#DejaVuSans-68"/>
      <use x="77.001953" xlink:href="#DejaVuSans-101"/>
      <use x="138.525391" xlink:href="#DejaVuSans-97"/>
      <use x="199.804688" xlink:href="#DejaVuSans-100"/>
     </g>
    </g>
   </g>
  </g>
 </g>
 <defs>
  <clipPath id="p63141f6541">
   <rect height="380.16" width="656.64" x="120.96" y="115.2"/>
  </clipPath>
 </defs>
</svg>
