<?xml version="1.0" encoding="utf-8" standalone="no"?>
<!DOCTYPE svg PUBLIC "-//W3C//DTD SVG 1.1//EN"
  "http://www.w3.org/Graphics/SVG/1.1/DTD/svg11.dtd">
<!-- Created with matplotlib (https://matplotlib.org/) -->
<svg height="345.6pt" version="1.1" viewBox="0 0 460.8 345.6" width="460.8pt" xmlns="http://www.w3.org/2000/svg" xmlns:xlink="http://www.w3.org/1999/xlink">
 <defs>
  <style type="text/css">
*{stroke-linecap:butt;stroke-linejoin:round;}
  </style>
 </defs>
 <g id="figure_1">
  <g id="patch_1">
   <path d="M 0 345.6 
L 460.8 345.6 
L 460.8 0 
L 0 0 
z
" style="fill:#ffffff;"/>
  </g>
  <g id="axes_1">
   <g id="patch_2">
    <path d="M 59.904 293.76 
L 218.667025 293.76 
L 218.667025 114.048 
L 59.904 114.048 
z
" style="fill:#ffffff;"/>
   </g>
   <g id="matplotlib.axis_1">
    <g id="xtick_1">
     <g id="text_1">
      <!-- 0.0 -->
      <defs>
       <path d="M 4.15625 35.296875 
Q 4.15625 48 6.765625 55.734375 
Q 9.375 63.484375 14.515625 67.671875 
Q 19.671875 71.875 27.484375 71.875 
Q 33.25 71.875 37.59375 69.546875 
Q 41.9375 67.234375 44.765625 62.859375 
Q 47.609375 58.5 49.21875 52.21875 
Q 50.828125 45.953125 50.828125 35.296875 
Q 50.828125 22.703125 48.234375 14.96875 
Q 45.65625 7.234375 40.5 3 
Q 35.359375 -1.21875 27.484375 -1.21875 
Q 17.140625 -1.21875 11.234375 6.203125 
Q 4.15625 15.140625 4.15625 35.296875 
z
M 13.1875 35.296875 
Q 13.1875 17.671875 17.3125 11.828125 
Q 21.4375 6 27.484375 6 
Q 33.546875 6 37.671875 11.859375 
Q 41.796875 17.71875 41.796875 35.296875 
Q 41.796875 52.984375 37.671875 58.78125 
Q 33.546875 64.59375 27.390625 64.59375 
Q 21.34375 64.59375 17.71875 59.46875 
Q 13.1875 52.9375 13.1875 35.296875 
z
" id="ArialMT-48"/>
       <path d="M 9.078125 0 
L 9.078125 10.015625 
L 19.09375 10.015625 
L 19.09375 0 
z
" id="ArialMT-46"/>
      </defs>
      <g style="fill:#262626;" transform="translate(52.259 311.133594)scale(0.11 -0.11)">
       <use xlink:href="#ArialMT-48"/>
       <use x="55.615234" xlink:href="#ArialMT-46"/>
       <use x="83.398438" xlink:href="#ArialMT-48"/>
      </g>
     </g>
    </g>
    <g id="xtick_2">
     <g id="text_2">
      <!-- 0.2 -->
      <defs>
       <path d="M 50.34375 8.453125 
L 50.34375 0 
L 3.03125 0 
Q 2.9375 3.171875 4.046875 6.109375 
Q 5.859375 10.9375 9.828125 15.625 
Q 13.8125 20.3125 21.34375 26.46875 
Q 33.015625 36.03125 37.109375 41.625 
Q 41.21875 47.21875 41.21875 52.203125 
Q 41.21875 57.421875 37.46875 61 
Q 33.734375 64.59375 27.734375 64.59375 
Q 21.390625 64.59375 17.578125 60.78125 
Q 13.765625 56.984375 13.71875 50.25 
L 4.6875 51.171875 
Q 5.609375 61.28125 11.65625 66.578125 
Q 17.71875 71.875 27.9375 71.875 
Q 38.234375 71.875 44.234375 66.15625 
Q 50.25 60.453125 50.25 52 
Q 50.25 47.703125 48.484375 43.546875 
Q 46.734375 39.40625 42.65625 34.8125 
Q 38.578125 30.21875 29.109375 22.21875 
Q 21.1875 15.578125 18.9375 13.203125 
Q 16.703125 10.84375 15.234375 8.453125 
z
" id="ArialMT-50"/>
      </defs>
      <g style="fill:#262626;" transform="translate(105.180008 311.133594)scale(0.11 -0.11)">
       <use xlink:href="#ArialMT-48"/>
       <use x="55.615234" xlink:href="#ArialMT-46"/>
       <use x="83.398438" xlink:href="#ArialMT-50"/>
      </g>
     </g>
    </g>
    <g id="xtick_3">
     <g id="text_3">
      <!-- 0.4 -->
      <defs>
       <path d="M 32.328125 0 
L 32.328125 17.140625 
L 1.265625 17.140625 
L 1.265625 25.203125 
L 33.9375 71.578125 
L 41.109375 71.578125 
L 41.109375 25.203125 
L 50.78125 25.203125 
L 50.78125 17.140625 
L 41.109375 17.140625 
L 41.109375 0 
z
M 32.328125 25.203125 
L 32.328125 57.46875 
L 9.90625 25.203125 
z
" id="ArialMT-52"/>
      </defs>
      <g style="fill:#262626;" transform="translate(158.101017 311.133594)scale(0.11 -0.11)">
       <use xlink:href="#ArialMT-48"/>
       <use x="55.615234" xlink:href="#ArialMT-46"/>
       <use x="83.398438" xlink:href="#ArialMT-52"/>
      </g>
     </g>
    </g>
    <g id="xtick_4">
     <g id="text_4">
      <!-- 0.6 -->
      <defs>
       <path d="M 49.75 54.046875 
L 41.015625 53.375 
Q 39.84375 58.546875 37.703125 60.890625 
Q 34.125 64.65625 28.90625 64.65625 
Q 24.703125 64.65625 21.53125 62.3125 
Q 17.390625 59.28125 14.984375 53.46875 
Q 12.59375 47.65625 12.5 36.921875 
Q 15.671875 41.75 20.265625 44.09375 
Q 24.859375 46.4375 29.890625 46.4375 
Q 38.671875 46.4375 44.84375 39.96875 
Q 51.03125 33.5 51.03125 23.25 
Q 51.03125 16.5 48.125 10.71875 
Q 45.21875 4.9375 40.140625 1.859375 
Q 35.0625 -1.21875 28.609375 -1.21875 
Q 17.625 -1.21875 10.6875 6.859375 
Q 3.765625 14.9375 3.765625 33.5 
Q 3.765625 54.25 11.421875 63.671875 
Q 18.109375 71.875 29.4375 71.875 
Q 37.890625 71.875 43.28125 67.140625 
Q 48.6875 62.40625 49.75 54.046875 
z
M 13.875 23.1875 
Q 13.875 18.65625 15.796875 14.5 
Q 17.71875 10.359375 21.1875 8.171875 
Q 24.65625 6 28.46875 6 
Q 34.03125 6 38.03125 10.484375 
Q 42.046875 14.984375 42.046875 22.703125 
Q 42.046875 30.125 38.078125 34.390625 
Q 34.125 38.671875 28.125 38.671875 
Q 22.171875 38.671875 18.015625 34.390625 
Q 13.875 30.125 13.875 23.1875 
z
" id="ArialMT-54"/>
      </defs>
      <g style="fill:#262626;" transform="translate(211.022025 311.133594)scale(0.11 -0.11)">
       <use xlink:href="#ArialMT-48"/>
       <use x="55.615234" xlink:href="#ArialMT-46"/>
       <use x="83.398438" xlink:href="#ArialMT-54"/>
      </g>
     </g>
    </g>
    <g id="text_5">
     <!-- $\bar{\alpha}_{P}$ -->
     <defs>
      <path d="M -39.40625 74.515625 
L -10.203125 74.515625 
L -10.203125 67.28125 
L -39.40625 67.28125 
z
" id="DejaVuSans-772"/>
      <path d="M 40.921875 25.4375 
L 40.96875 36.71875 
Q 41.015625 48.25 32.328125 48.296875 
Q 25.828125 48.34375 21.78125 42.921875 
Q 16.703125 36.234375 14.984375 27.296875 
Q 12.890625 16.546875 15.53125 11.421875 
Q 18.265625 6.203125 24.171875 6.203125 
Q 30.71875 6.203125 36.234375 16.609375 
z
M 33.84375 55.90625 
Q 49.078125 56.15625 48.875 40.375 
Q 48.875 40.375 56.5 54.6875 
L 64.5 54.6875 
L 48.734375 25.046875 
L 48.578125 14.359375 
Q 48.578125 11.96875 49.90625 9.96875 
Q 51.421875 7.625 52.984375 7.625 
L 57.328125 7.625 
L 55.859375 0 
L 50.4375 0 
Q 45.84375 0 42.53125 4.109375 
Q 40.96875 6.15625 40.921875 10.453125 
Q 37.75 5.21875 32.28125 0.78125 
Q 29.6875 -1.265625 22.703125 -1.21875 
Q 11.28125 -1.125 7.125 6.203125 
Q 2.875 13.8125 5.515625 27.296875 
Q 8.34375 41.796875 15.765625 48.390625 
Q 24.125 55.765625 33.84375 55.90625 
z
" id="DejaVuSans-Oblique-945"/>
      <path d="M 16.890625 72.90625 
L 39.703125 72.90625 
Q 49.65625 72.90625 54.875 68.265625 
Q 60.109375 63.625 60.109375 54.6875 
Q 60.109375 42.671875 52.390625 35.984375 
Q 44.671875 29.296875 30.71875 29.296875 
L 18.3125 29.296875 
L 12.59375 0 
L 2.6875 0 
z
M 25.203125 64.796875 
L 19.921875 37.40625 
L 32.328125 37.40625 
Q 40.71875 37.40625 45.203125 41.703125 
Q 49.703125 46 49.703125 54 
Q 49.703125 59.125 46.65625 61.953125 
Q 43.609375 64.796875 38.09375 64.796875 
z
" id="DejaVuSans-Oblique-80"/>
     </defs>
     <g style="fill:#262626;" transform="translate(129.205513 330.482344)scale(0.18 -0.18)">
      <use transform="translate(65.885742 1.484375)" xlink:href="#DejaVuSans-772"/>
      <use transform="translate(0 0.109375)" xlink:href="#DejaVuSans-Oblique-945"/>
      <use transform="translate(66.875 -16.296875)scale(0.7)" xlink:href="#DejaVuSans-Oblique-80"/>
     </g>
    </g>
   </g>
   <g id="matplotlib.axis_2">
    <g id="ytick_1">
     <g id="text_6">
      <!-- 0 -->
      <g style="fill:#262626;" transform="translate(44.286969 297.696797)scale(0.11 -0.11)">
       <use xlink:href="#ArialMT-48"/>
      </g>
     </g>
    </g>
    <g id="ytick_2">
     <g id="text_7">
      <!-- 1 -->
      <defs>
       <path d="M 37.25 0 
L 28.46875 0 
L 28.46875 56 
Q 25.296875 52.984375 20.140625 49.953125 
Q 14.984375 46.921875 10.890625 45.40625 
L 10.890625 53.90625 
Q 18.265625 57.375 23.78125 62.296875 
Q 29.296875 67.234375 31.59375 71.875 
L 37.25 71.875 
z
" id="ArialMT-49"/>
      </defs>
      <g style="fill:#262626;" transform="translate(44.286969 253.175871)scale(0.11 -0.11)">
       <use xlink:href="#ArialMT-49"/>
      </g>
     </g>
    </g>
    <g id="ytick_3">
     <g id="text_8">
      <!-- 2 -->
      <g style="fill:#262626;" transform="translate(44.286969 208.654946)scale(0.11 -0.11)">
       <use xlink:href="#ArialMT-50"/>
      </g>
     </g>
    </g>
    <g id="ytick_4">
     <g id="text_9">
      <!-- 3 -->
      <defs>
       <path d="M 4.203125 18.890625 
L 12.984375 20.0625 
Q 14.5 12.59375 18.140625 9.296875 
Q 21.78125 6 27 6 
Q 33.203125 6 37.46875 10.296875 
Q 41.75 14.59375 41.75 20.953125 
Q 41.75 27 37.796875 30.921875 
Q 33.84375 34.859375 27.734375 34.859375 
Q 25.25 34.859375 21.53125 33.890625 
L 22.515625 41.609375 
Q 23.390625 41.5 23.921875 41.5 
Q 29.546875 41.5 34.03125 44.421875 
Q 38.53125 47.359375 38.53125 53.46875 
Q 38.53125 58.296875 35.25 61.46875 
Q 31.984375 64.65625 26.8125 64.65625 
Q 21.6875 64.65625 18.265625 61.421875 
Q 14.84375 58.203125 13.875 51.765625 
L 5.078125 53.328125 
Q 6.6875 62.15625 12.390625 67.015625 
Q 18.109375 71.875 26.609375 71.875 
Q 32.46875 71.875 37.390625 69.359375 
Q 42.328125 66.84375 44.9375 62.5 
Q 47.5625 58.15625 47.5625 53.265625 
Q 47.5625 48.640625 45.0625 44.828125 
Q 42.578125 41.015625 37.703125 38.765625 
Q 44.046875 37.3125 47.5625 32.6875 
Q 51.078125 28.078125 51.078125 21.140625 
Q 51.078125 11.765625 44.234375 5.25 
Q 37.40625 -1.265625 26.953125 -1.265625 
Q 17.53125 -1.265625 11.296875 4.34375 
Q 5.078125 9.96875 4.203125 18.890625 
z
" id="ArialMT-51"/>
      </defs>
      <g style="fill:#262626;" transform="translate(44.286969 164.134021)scale(0.11 -0.11)">
       <use xlink:href="#ArialMT-51"/>
      </g>
     </g>
    </g>
    <g id="ytick_5">
     <g id="text_10">
      <!-- 4 -->
      <g style="fill:#262626;" transform="translate(44.286969 119.613095)scale(0.11 -0.11)">
       <use xlink:href="#ArialMT-52"/>
      </g>
     </g>
    </g>
    <g id="text_11">
     <!-- Density -->
     <defs>
      <path d="M 7.71875 0 
L 7.71875 71.578125 
L 32.375 71.578125 
Q 40.71875 71.578125 45.125 70.5625 
Q 51.265625 69.140625 55.609375 65.4375 
Q 61.28125 60.640625 64.078125 53.1875 
Q 66.890625 45.75 66.890625 36.1875 
Q 66.890625 28.03125 64.984375 21.734375 
Q 63.09375 15.4375 60.109375 11.296875 
Q 57.125 7.171875 53.578125 4.796875 
Q 50.046875 2.4375 45.046875 1.21875 
Q 40.046875 0 33.546875 0 
z
M 17.1875 8.453125 
L 32.46875 8.453125 
Q 39.546875 8.453125 43.578125 9.765625 
Q 47.609375 11.078125 50 13.484375 
Q 53.375 16.84375 55.25 22.53125 
Q 57.125 28.21875 57.125 36.328125 
Q 57.125 47.5625 53.4375 53.59375 
Q 49.75 59.625 44.484375 61.671875 
Q 40.671875 63.140625 32.234375 63.140625 
L 17.1875 63.140625 
z
" id="ArialMT-68"/>
      <path d="M 42.09375 16.703125 
L 51.171875 15.578125 
Q 49.03125 7.625 43.21875 3.21875 
Q 37.40625 -1.171875 28.375 -1.171875 
Q 17 -1.171875 10.328125 5.828125 
Q 3.65625 12.84375 3.65625 25.484375 
Q 3.65625 38.578125 10.390625 45.796875 
Q 17.140625 53.03125 27.875 53.03125 
Q 38.28125 53.03125 44.875 45.953125 
Q 51.46875 38.875 51.46875 26.03125 
Q 51.46875 25.25 51.421875 23.6875 
L 12.75 23.6875 
Q 13.234375 15.140625 17.578125 10.59375 
Q 21.921875 6.0625 28.421875 6.0625 
Q 33.25 6.0625 36.671875 8.59375 
Q 40.09375 11.140625 42.09375 16.703125 
z
M 13.234375 30.90625 
L 42.1875 30.90625 
Q 41.609375 37.453125 38.875 40.71875 
Q 34.671875 45.796875 27.984375 45.796875 
Q 21.921875 45.796875 17.796875 41.75 
Q 13.671875 37.703125 13.234375 30.90625 
z
" id="ArialMT-101"/>
      <path d="M 6.59375 0 
L 6.59375 51.859375 
L 14.5 51.859375 
L 14.5 44.484375 
Q 20.21875 53.03125 31 53.03125 
Q 35.6875 53.03125 39.625 51.34375 
Q 43.5625 49.65625 45.515625 46.921875 
Q 47.46875 44.1875 48.25 40.4375 
Q 48.734375 37.984375 48.734375 31.890625 
L 48.734375 0 
L 39.9375 0 
L 39.9375 31.546875 
Q 39.9375 36.921875 38.90625 39.578125 
Q 37.890625 42.234375 35.28125 43.8125 
Q 32.671875 45.40625 29.15625 45.40625 
Q 23.53125 45.40625 19.453125 41.84375 
Q 15.375 38.28125 15.375 28.328125 
L 15.375 0 
z
" id="ArialMT-110"/>
      <path d="M 3.078125 15.484375 
L 11.765625 16.84375 
Q 12.5 11.625 15.84375 8.84375 
Q 19.1875 6.0625 25.203125 6.0625 
Q 31.25 6.0625 34.171875 8.515625 
Q 37.109375 10.984375 37.109375 14.3125 
Q 37.109375 17.28125 34.515625 19 
Q 32.71875 20.171875 25.53125 21.96875 
Q 15.875 24.421875 12.140625 26.203125 
Q 8.40625 27.984375 6.46875 31.125 
Q 4.546875 34.28125 4.546875 38.09375 
Q 4.546875 41.546875 6.125 44.5 
Q 7.71875 47.46875 10.453125 49.421875 
Q 12.5 50.921875 16.03125 51.96875 
Q 19.578125 53.03125 23.640625 53.03125 
Q 29.734375 53.03125 34.34375 51.265625 
Q 38.96875 49.515625 41.15625 46.5 
Q 43.359375 43.5 44.1875 38.484375 
L 35.59375 37.3125 
Q 35.015625 41.3125 32.203125 43.546875 
Q 29.390625 45.796875 24.265625 45.796875 
Q 18.21875 45.796875 15.625 43.796875 
Q 13.03125 41.796875 13.03125 39.109375 
Q 13.03125 37.40625 14.109375 36.03125 
Q 15.1875 34.625 17.484375 33.6875 
Q 18.796875 33.203125 25.25 31.453125 
Q 34.578125 28.953125 38.25 27.359375 
Q 41.9375 25.78125 44.03125 22.75 
Q 46.140625 19.734375 46.140625 15.234375 
Q 46.140625 10.84375 43.578125 6.953125 
Q 41.015625 3.078125 36.171875 0.953125 
Q 31.34375 -1.171875 25.25 -1.171875 
Q 15.140625 -1.171875 9.84375 3.03125 
Q 4.546875 7.234375 3.078125 15.484375 
z
" id="ArialMT-115"/>
      <path d="M 6.640625 61.46875 
L 6.640625 71.578125 
L 15.4375 71.578125 
L 15.4375 61.46875 
z
M 6.640625 0 
L 6.640625 51.859375 
L 15.4375 51.859375 
L 15.4375 0 
z
" id="ArialMT-105"/>
      <path d="M 25.78125 7.859375 
L 27.046875 0.09375 
Q 23.34375 -0.6875 20.40625 -0.6875 
Q 15.625 -0.6875 12.984375 0.828125 
Q 10.359375 2.34375 9.28125 4.8125 
Q 8.203125 7.28125 8.203125 15.1875 
L 8.203125 45.015625 
L 1.765625 45.015625 
L 1.765625 51.859375 
L 8.203125 51.859375 
L 8.203125 64.703125 
L 16.9375 69.96875 
L 16.9375 51.859375 
L 25.78125 51.859375 
L 25.78125 45.015625 
L 16.9375 45.015625 
L 16.9375 14.703125 
Q 16.9375 10.9375 17.40625 9.859375 
Q 17.875 8.796875 18.921875 8.15625 
Q 19.96875 7.515625 21.921875 7.515625 
Q 23.390625 7.515625 25.78125 7.859375 
z
" id="ArialMT-116"/>
      <path d="M 6.203125 -19.96875 
L 5.21875 -11.71875 
Q 8.109375 -12.5 10.25 -12.5 
Q 13.1875 -12.5 14.9375 -11.515625 
Q 16.703125 -10.546875 17.828125 -8.796875 
Q 18.65625 -7.46875 20.515625 -2.25 
Q 20.75 -1.515625 21.296875 -0.09375 
L 1.609375 51.859375 
L 11.078125 51.859375 
L 21.875 21.828125 
Q 23.96875 16.109375 25.640625 9.8125 
Q 27.15625 15.875 29.25 21.625 
L 40.328125 51.859375 
L 49.125 51.859375 
L 29.390625 -0.875 
Q 26.21875 -9.421875 24.46875 -12.640625 
Q 22.125 -17 19.09375 -19.015625 
Q 16.0625 -21.046875 11.859375 -21.046875 
Q 9.328125 -21.046875 6.203125 -19.96875 
z
" id="ArialMT-121"/>
     </defs>
     <g style="fill:#262626;" transform="translate(36.498531 233.913375)rotate(-90)scale(0.18 -0.18)">
      <use xlink:href="#ArialMT-68"/>
      <use x="72.216797" xlink:href="#ArialMT-101"/>
      <use x="127.832031" xlink:href="#ArialMT-110"/>
      <use x="183.447266" xlink:href="#ArialMT-115"/>
      <use x="233.447266" xlink:href="#ArialMT-105"/>
      <use x="255.664062" xlink:href="#ArialMT-116"/>
      <use x="283.447266" xlink:href="#ArialMT-121"/>
     </g>
    </g>
   </g>
   <g id="patch_3">
    <path clip-path="url(#p85d3f3a666)" d="M 80.16119 293.76 
L 88.07658 293.76 
L 88.07658 194.044025 
L 80.16119 194.044025 
z
" style="fill:#0000ff;opacity:0.4;stroke:#ffffff;stroke-linejoin:miter;"/>
   </g>
   <g id="patch_4">
    <path clip-path="url(#p85d3f3a666)" d="M 88.07658 293.76 
L 95.991971 293.76 
L 95.991971 144.930186 
L 88.07658 144.930186 
z
" style="fill:#0000ff;opacity:0.4;stroke:#ffffff;stroke-linejoin:miter;"/>
   </g>
   <g id="patch_5">
    <path clip-path="url(#p85d3f3a666)" d="M 95.991971 293.76 
L 103.907362 293.76 
L 103.907362 149.395081 
L 95.991971 149.395081 
z
" style="fill:#0000ff;opacity:0.4;stroke:#ffffff;stroke-linejoin:miter;"/>
   </g>
   <g id="patch_6">
    <path clip-path="url(#p85d3f3a666)" d="M 103.907362 293.76 
L 111.822753 293.76 
L 111.822753 122.605714 
L 103.907362 122.605714 
z
" style="fill:#0000ff;opacity:0.4;stroke:#ffffff;stroke-linejoin:miter;"/>
   </g>
   <g id="patch_7">
    <path clip-path="url(#p85d3f3a666)" d="M 111.822753 293.76 
L 119.738143 293.76 
L 119.738143 133.023801 
L 111.822753 133.023801 
z
" style="fill:#0000ff;opacity:0.4;stroke:#ffffff;stroke-linejoin:miter;"/>
   </g>
   <g id="patch_8">
    <path clip-path="url(#p85d3f3a666)" d="M 119.738143 293.76 
L 127.653534 293.76 
L 127.653534 165.76636 
L 119.738143 165.76636 
z
" style="fill:#0000ff;opacity:0.4;stroke:#ffffff;stroke-linejoin:miter;"/>
   </g>
   <g id="patch_9">
    <path clip-path="url(#p85d3f3a666)" d="M 127.653534 293.76 
L 135.568925 293.76 
L 135.568925 153.859975 
L 127.653534 153.859975 
z
" style="fill:#0000ff;opacity:0.4;stroke:#ffffff;stroke-linejoin:miter;"/>
   </g>
   <g id="patch_10">
    <path clip-path="url(#p85d3f3a666)" d="M 135.568925 293.76 
L 143.484316 293.76 
L 143.484316 183.625938 
L 135.568925 183.625938 
z
" style="fill:#0000ff;opacity:0.4;stroke:#ffffff;stroke-linejoin:miter;"/>
   </g>
   <g id="patch_11">
    <path clip-path="url(#p85d3f3a666)" d="M 143.484316 293.76 
L 151.399707 293.76 
L 151.399707 201.485516 
L 143.484316 201.485516 
z
" style="fill:#0000ff;opacity:0.4;stroke:#ffffff;stroke-linejoin:miter;"/>
   </g>
   <g id="patch_12">
    <path clip-path="url(#p85d3f3a666)" d="M 151.399707 293.76 
L 159.315097 293.76 
L 159.315097 211.903602 
L 151.399707 211.903602 
z
" style="fill:#0000ff;opacity:0.4;stroke:#ffffff;stroke-linejoin:miter;"/>
   </g>
   <g id="patch_13">
    <path clip-path="url(#p85d3f3a666)" d="M 159.315097 293.76 
L 167.230488 293.76 
L 167.230488 237.204671 
L 159.315097 237.204671 
z
" style="fill:#0000ff;opacity:0.4;stroke:#ffffff;stroke-linejoin:miter;"/>
   </g>
   <g id="patch_14">
    <path clip-path="url(#p85d3f3a666)" d="M 167.230488 293.76 
L 175.145879 293.76 
L 175.145879 252.087652 
L 167.230488 252.087652 
z
" style="fill:#0000ff;opacity:0.4;stroke:#ffffff;stroke-linejoin:miter;"/>
   </g>
   <g id="patch_15">
    <path clip-path="url(#p85d3f3a666)" d="M 175.145879 293.76 
L 183.06127 293.76 
L 183.06127 237.204671 
L 175.145879 237.204671 
z
" style="fill:#0000ff;opacity:0.4;stroke:#ffffff;stroke-linejoin:miter;"/>
   </g>
   <g id="patch_16">
    <path clip-path="url(#p85d3f3a666)" d="M 183.06127 293.76 
L 190.97666 293.76 
L 190.97666 237.204671 
L 183.06127 237.204671 
z
" style="fill:#0000ff;opacity:0.4;stroke:#ffffff;stroke-linejoin:miter;"/>
   </g>
   <g id="line2d_1">
    <path clip-path="url(#p85d3f3a666)" d="M 58.904219 293.655029 
L 60.453001 293.547637 
L 62.001783 293.348123 
L 63.550565 292.993735 
L 65.099347 292.39169 
L 66.648129 291.413155 
L 68.196911 289.890927 
L 69.745693 287.623626 
L 71.294475 284.388895 
L 72.843257 279.966675 
L 74.392039 274.171284 
L 75.940821 266.888181 
L 77.489603 258.108768 
L 79.038384 247.955318 
L 80.587166 236.688793 
L 82.135948 224.695065 
L 83.68473 212.449307 
L 85.233512 200.463108 
L 86.782294 189.222878 
L 88.331076 179.130385 
L 89.879858 170.456168 
L 91.42864 163.314203 
L 92.977422 157.661979 
L 94.526204 153.325163 
L 96.074986 150.041214 
L 97.623768 147.512809 
L 99.17255 145.460469 
L 100.721332 143.664575 
L 102.270113 141.989961 
L 103.818895 140.39054 
L 105.367677 138.896073 
L 106.916459 137.586862 
L 108.465241 136.564001 
L 110.014023 135.922391 
L 111.562805 135.73148 
L 113.111587 136.025622 
L 114.660369 136.803229 
L 116.209151 138.032327 
L 117.757933 139.659869 
L 119.306715 141.622593 
L 120.855497 143.857758 
L 122.404279 146.3123 
L 123.953061 148.948981 
L 125.501842 151.748411 
L 127.050624 154.706616 
L 128.599406 157.828962 
L 130.148188 161.122203 
L 131.69697 164.586741 
L 133.245752 168.210749 
L 134.794534 171.967066 
L 136.343316 175.813035 
L 137.892098 179.693167 
L 139.44088 183.544359 
L 140.989662 187.303263 
L 142.538444 190.914944 
L 144.087226 194.341557 
L 145.636008 197.569419 
L 147.184789 200.613003 
L 148.733571 203.514744 
L 150.282353 206.340112 
L 151.831135 209.167929 
L 153.379917 212.0766 
L 154.928699 215.127858 
L 156.477481 218.350741 
L 158.026263 221.729327 
L 159.575045 225.197754 
L 161.123827 228.64481 
L 162.672609 231.928238 
L 164.221391 234.896506 
L 165.770173 237.413939 
L 167.318955 239.384379 
L 168.867737 240.768945 
L 170.416518 241.594835 
L 171.9653 241.953995 
L 173.514082 241.992548 
L 175.062864 241.893619 
L 176.611646 241.857195 
L 178.160428 242.080501 
L 179.70921 242.741176 
L 181.257992 243.983751 
L 182.806774 245.908553 
L 184.355556 248.562004 
L 185.904338 251.928461 
L 187.45312 255.92559 
L 189.001902 260.406515 
L 190.550684 265.171551 
L 192.099466 269.989967 
L 193.648247 274.628889 
L 195.197029 278.883536 
L 196.745811 282.602019 
L 198.294593 285.699321 
L 199.843375 288.158289 
L 201.392157 290.019103 
L 202.940939 291.361449 
L 204.489721 292.284592 
L 206.038503 292.889866 
L 207.587285 293.268262 
L 209.136067 293.493834 
L 210.684849 293.622068 
L 212.233631 293.69159 
" style="fill:none;stroke:#0000ff;stroke-linecap:round;stroke-width:1.5;"/>
   </g>
   <g id="patch_17">
    <path d="M 59.904 293.76 
L 59.904 114.048 
" style="fill:none;stroke:#262626;stroke-linecap:square;stroke-linejoin:miter;stroke-width:1.25;"/>
   </g>
   <g id="patch_18">
    <path d="M 218.667025 293.76 
L 218.667025 114.048 
" style="fill:none;stroke:#262626;stroke-linecap:square;stroke-linejoin:miter;stroke-width:1.25;"/>
   </g>
   <g id="patch_19">
    <path d="M 59.904 293.76 
L 218.667025 293.76 
" style="fill:none;stroke:#262626;stroke-linecap:square;stroke-linejoin:miter;stroke-width:1.25;"/>
   </g>
   <g id="patch_20">
    <path d="M 59.904 114.048 
L 218.667025 114.048 
" style="fill:none;stroke:#262626;stroke-linecap:square;stroke-linejoin:miter;stroke-width:1.25;"/>
   </g>
   <g id="text_12">
    <!-- MAP = 0.1952 -->
    <defs>
     <path d="M 7.421875 0 
L 7.421875 71.578125 
L 21.6875 71.578125 
L 38.625 20.90625 
Q 40.96875 13.8125 42.046875 10.296875 
Q 43.265625 14.203125 45.84375 21.78125 
L 62.984375 71.578125 
L 75.734375 71.578125 
L 75.734375 0 
L 66.609375 0 
L 66.609375 59.90625 
L 45.796875 0 
L 37.25 0 
L 16.546875 60.9375 
L 16.546875 0 
z
" id="ArialMT-77"/>
     <path d="M -0.140625 0 
L 27.34375 71.578125 
L 37.546875 71.578125 
L 66.84375 0 
L 56.0625 0 
L 47.703125 21.6875 
L 17.78125 21.6875 
L 9.90625 0 
z
M 20.515625 29.390625 
L 44.78125 29.390625 
L 37.3125 49.21875 
Q 33.890625 58.25 32.234375 64.0625 
Q 30.859375 57.171875 28.375 50.390625 
z
" id="ArialMT-65"/>
     <path d="M 7.71875 0 
L 7.71875 71.578125 
L 34.71875 71.578125 
Q 41.84375 71.578125 45.609375 70.90625 
Q 50.875 70.015625 54.4375 67.546875 
Q 58.015625 65.09375 60.1875 60.640625 
Q 62.359375 56.203125 62.359375 50.875 
Q 62.359375 41.75 56.546875 35.421875 
Q 50.734375 29.109375 35.546875 29.109375 
L 17.1875 29.109375 
L 17.1875 0 
z
M 17.1875 37.546875 
L 35.6875 37.546875 
Q 44.875 37.546875 48.734375 40.96875 
Q 52.59375 44.390625 52.59375 50.59375 
Q 52.59375 55.078125 50.3125 58.265625 
Q 48.046875 61.46875 44.34375 62.5 
Q 41.9375 63.140625 35.5 63.140625 
L 17.1875 63.140625 
z
" id="ArialMT-80"/>
     <path id="ArialMT-32"/>
     <path d="M 52.828125 42.09375 
L 5.5625 42.09375 
L 5.5625 50.296875 
L 52.828125 50.296875 
z
M 52.828125 20.359375 
L 5.5625 20.359375 
L 5.5625 28.5625 
L 52.828125 28.5625 
z
" id="ArialMT-61"/>
     <path d="M 5.46875 16.546875 
L 13.921875 17.328125 
Q 14.984375 11.375 18.015625 8.6875 
Q 21.046875 6 25.78125 6 
Q 29.828125 6 32.875 7.859375 
Q 35.9375 9.71875 37.890625 12.8125 
Q 39.84375 15.921875 41.15625 21.1875 
Q 42.484375 26.46875 42.484375 31.9375 
Q 42.484375 32.515625 42.4375 33.6875 
Q 39.796875 29.5 35.234375 26.875 
Q 30.671875 24.265625 25.34375 24.265625 
Q 16.453125 24.265625 10.296875 30.703125 
Q 4.15625 37.15625 4.15625 47.703125 
Q 4.15625 58.59375 10.578125 65.234375 
Q 17 71.875 26.65625 71.875 
Q 33.640625 71.875 39.421875 68.109375 
Q 45.21875 64.359375 48.21875 57.390625 
Q 51.21875 50.4375 51.21875 37.25 
Q 51.21875 23.53125 48.234375 15.40625 
Q 45.265625 7.28125 39.375 3.03125 
Q 33.5 -1.21875 25.59375 -1.21875 
Q 17.1875 -1.21875 11.859375 3.4375 
Q 6.546875 8.109375 5.46875 16.546875 
z
M 41.453125 48.140625 
Q 41.453125 55.71875 37.421875 60.15625 
Q 33.40625 64.59375 27.734375 64.59375 
Q 21.875 64.59375 17.53125 59.8125 
Q 13.1875 55.03125 13.1875 47.40625 
Q 13.1875 40.578125 17.3125 36.296875 
Q 21.4375 32.03125 27.484375 32.03125 
Q 33.59375 32.03125 37.515625 36.296875 
Q 41.453125 40.578125 41.453125 48.140625 
z
" id="ArialMT-57"/>
     <path d="M 4.15625 18.75 
L 13.375 19.53125 
Q 14.40625 12.796875 18.140625 9.390625 
Q 21.875 6 27.15625 6 
Q 33.5 6 37.890625 10.78125 
Q 42.28125 15.578125 42.28125 23.484375 
Q 42.28125 31 38.0625 35.34375 
Q 33.84375 39.703125 27 39.703125 
Q 22.75 39.703125 19.328125 37.765625 
Q 15.921875 35.84375 13.96875 32.765625 
L 5.71875 33.84375 
L 12.640625 70.609375 
L 48.25 70.609375 
L 48.25 62.203125 
L 19.671875 62.203125 
L 15.828125 42.96875 
Q 22.265625 47.46875 29.34375 47.46875 
Q 38.71875 47.46875 45.15625 40.96875 
Q 51.609375 34.46875 51.609375 24.265625 
Q 51.609375 14.546875 45.953125 7.46875 
Q 39.0625 -1.21875 27.15625 -1.21875 
Q 17.390625 -1.21875 11.203125 4.25 
Q 5.03125 9.71875 4.15625 18.75 
z
" id="ArialMT-53"/>
    </defs>
    <g style="fill:#262626;" transform="translate(82.158013 108.048)scale(0.18 -0.18)">
     <use xlink:href="#ArialMT-77"/>
     <use x="83.300781" xlink:href="#ArialMT-65"/>
     <use x="150" xlink:href="#ArialMT-80"/>
     <use x="214.949219" xlink:href="#ArialMT-32"/>
     <use x="242.732422" xlink:href="#ArialMT-61"/>
     <use x="301.130859" xlink:href="#ArialMT-32"/>
     <use x="328.914062" xlink:href="#ArialMT-48"/>
     <use x="384.529297" xlink:href="#ArialMT-46"/>
     <use x="412.3125" xlink:href="#ArialMT-49"/>
     <use x="467.927734" xlink:href="#ArialMT-57"/>
     <use x="523.542969" xlink:href="#ArialMT-53"/>
     <use x="579.158203" xlink:href="#ArialMT-50"/>
    </g>
   </g>
  </g>
  <g id="axes_2">
   <g id="patch_21">
    <path d="M 278.996975 293.76 
L 437.76 293.76 
L 437.76 114.048 
L 278.996975 114.048 
z
" style="fill:#ffffff;"/>
   </g>
   <g id="matplotlib.axis_3">
    <g id="xtick_5">
     <g id="text_13">
      <!-- 0.0 -->
      <g style="fill:#262626;" transform="translate(271.351975 311.133594)scale(0.11 -0.11)">
       <use xlink:href="#ArialMT-48"/>
       <use x="55.615234" xlink:href="#ArialMT-46"/>
       <use x="83.398438" xlink:href="#ArialMT-48"/>
      </g>
     </g>
    </g>
    <g id="xtick_6">
     <g id="text_14">
      <!-- 0.1 -->
      <g style="fill:#262626;" transform="translate(311.042731 311.133594)scale(0.11 -0.11)">
       <use xlink:href="#ArialMT-48"/>
       <use x="55.615234" xlink:href="#ArialMT-46"/>
       <use x="83.398438" xlink:href="#ArialMT-49"/>
      </g>
     </g>
    </g>
    <g id="xtick_7">
     <g id="text_15">
      <!-- 0.2 -->
      <g style="fill:#262626;" transform="translate(350.733487 311.133594)scale(0.11 -0.11)">
       <use xlink:href="#ArialMT-48"/>
       <use x="55.615234" xlink:href="#ArialMT-46"/>
       <use x="83.398438" xlink:href="#ArialMT-50"/>
      </g>
     </g>
    </g>
    <g id="xtick_8">
     <g id="text_16">
      <!-- 0.3 -->
      <g style="fill:#262626;" transform="translate(390.424244 311.133594)scale(0.11 -0.11)">
       <use xlink:href="#ArialMT-48"/>
       <use x="55.615234" xlink:href="#ArialMT-46"/>
       <use x="83.398438" xlink:href="#ArialMT-51"/>
      </g>
     </g>
    </g>
    <g id="xtick_9">
     <g id="text_17">
      <!-- 0.4 -->
      <g style="fill:#262626;" transform="translate(430.115 311.133594)scale(0.11 -0.11)">
       <use xlink:href="#ArialMT-48"/>
       <use x="55.615234" xlink:href="#ArialMT-46"/>
       <use x="83.398438" xlink:href="#ArialMT-52"/>
      </g>
     </g>
    </g>
    <g id="text_18">
     <!-- $\bar{\alpha}_{D}$ -->
     <defs>
      <path d="M 16.890625 72.90625 
L 38.09375 72.90625 
Q 54.984375 72.90625 63.59375 65.75 
Q 72.21875 58.59375 72.21875 44.484375 
Q 72.21875 35.15625 68.9375 26.53125 
Q 65.671875 17.921875 59.90625 12.015625 
Q 54.109375 5.953125 45.171875 2.96875 
Q 36.234375 0 24.03125 0 
L 2.6875 0 
z
M 25.203125 64.796875 
L 14.203125 8.109375 
L 27.09375 8.109375 
Q 43.65625 8.109375 52.734375 17.625 
Q 61.8125 27.15625 61.8125 44.484375 
Q 61.8125 54.984375 55.953125 59.890625 
Q 50.09375 64.796875 37.59375 64.796875 
z
" id="DejaVuSans-Oblique-68"/>
     </defs>
     <g style="fill:#262626;" transform="translate(347.218487 330.482344)scale(0.18 -0.18)">
      <use transform="translate(65.885742 1.484375)" xlink:href="#DejaVuSans-772"/>
      <use transform="translate(0 0.109375)" xlink:href="#DejaVuSans-Oblique-945"/>
      <use transform="translate(66.875 -16.296875)scale(0.7)" xlink:href="#DejaVuSans-Oblique-68"/>
     </g>
    </g>
   </g>
   <g id="matplotlib.axis_4">
    <g id="ytick_6">
     <g id="text_19">
      <!-- 0 -->
      <g style="fill:#262626;" transform="translate(263.379944 297.696797)scale(0.11 -0.11)">
       <use xlink:href="#ArialMT-48"/>
      </g>
     </g>
    </g>
    <g id="ytick_7">
     <g id="text_20">
      <!-- 2 -->
      <g style="fill:#262626;" transform="translate(263.379944 273.130253)scale(0.11 -0.11)">
       <use xlink:href="#ArialMT-50"/>
      </g>
     </g>
    </g>
    <g id="ytick_8">
     <g id="text_21">
      <!-- 4 -->
      <g style="fill:#262626;" transform="translate(263.379944 248.563709)scale(0.11 -0.11)">
       <use xlink:href="#ArialMT-52"/>
      </g>
     </g>
    </g>
    <g id="ytick_9">
     <g id="text_22">
      <!-- 6 -->
      <g style="fill:#262626;" transform="translate(263.379944 223.997165)scale(0.11 -0.11)">
       <use xlink:href="#ArialMT-54"/>
      </g>
     </g>
    </g>
    <g id="ytick_10">
     <g id="text_23">
      <!-- 8 -->
      <defs>
       <path d="M 17.671875 38.8125 
Q 12.203125 40.828125 9.5625 44.53125 
Q 6.9375 48.25 6.9375 53.421875 
Q 6.9375 61.234375 12.546875 66.546875 
Q 18.171875 71.875 27.484375 71.875 
Q 36.859375 71.875 42.578125 66.421875 
Q 48.296875 60.984375 48.296875 53.171875 
Q 48.296875 48.1875 45.671875 44.5 
Q 43.0625 40.828125 37.75 38.8125 
Q 44.34375 36.671875 47.78125 31.875 
Q 51.21875 27.09375 51.21875 20.453125 
Q 51.21875 11.28125 44.71875 5.03125 
Q 38.234375 -1.21875 27.640625 -1.21875 
Q 17.046875 -1.21875 10.546875 5.046875 
Q 4.046875 11.328125 4.046875 20.703125 
Q 4.046875 27.6875 7.59375 32.390625 
Q 11.140625 37.109375 17.671875 38.8125 
z
M 15.921875 53.71875 
Q 15.921875 48.640625 19.1875 45.40625 
Q 22.46875 42.1875 27.6875 42.1875 
Q 32.765625 42.1875 36.015625 45.375 
Q 39.265625 48.578125 39.265625 53.21875 
Q 39.265625 58.0625 35.90625 61.359375 
Q 32.5625 64.65625 27.59375 64.65625 
Q 22.5625 64.65625 19.234375 61.421875 
Q 15.921875 58.203125 15.921875 53.71875 
z
M 13.09375 20.65625 
Q 13.09375 16.890625 14.875 13.375 
Q 16.65625 9.859375 20.171875 7.921875 
Q 23.6875 6 27.734375 6 
Q 34.03125 6 38.125 10.046875 
Q 42.234375 14.109375 42.234375 20.359375 
Q 42.234375 26.703125 38.015625 30.859375 
Q 33.796875 35.015625 27.4375 35.015625 
Q 21.234375 35.015625 17.15625 30.90625 
Q 13.09375 26.8125 13.09375 20.65625 
z
" id="ArialMT-56"/>
      </defs>
      <g style="fill:#262626;" transform="translate(263.379944 199.43062)scale(0.11 -0.11)">
       <use xlink:href="#ArialMT-56"/>
      </g>
     </g>
    </g>
    <g id="ytick_11">
     <g id="text_24">
      <!-- 10 -->
      <g style="fill:#262626;" transform="translate(257.262912 174.864076)scale(0.11 -0.11)">
       <use xlink:href="#ArialMT-49"/>
       <use x="55.615234" xlink:href="#ArialMT-48"/>
      </g>
     </g>
    </g>
    <g id="ytick_12">
     <g id="text_25">
      <!-- 12 -->
      <g style="fill:#262626;" transform="translate(257.262912 150.297532)scale(0.11 -0.11)">
       <use xlink:href="#ArialMT-49"/>
       <use x="55.615234" xlink:href="#ArialMT-50"/>
      </g>
     </g>
    </g>
    <g id="ytick_13">
     <g id="text_26">
      <!-- 14 -->
      <g style="fill:#262626;" transform="translate(257.262912 125.730988)scale(0.11 -0.11)">
       <use xlink:href="#ArialMT-49"/>
       <use x="55.615234" xlink:href="#ArialMT-52"/>
      </g>
     </g>
    </g>
   </g>
   <g id="patch_22">
    <path clip-path="url(#pcb7296f713)" d="M 306.989643 293.76 
L 310.265414 293.76 
L 310.265414 292.271702 
L 306.989643 292.271702 
z
" style="fill:#0000ff;opacity:0.4;stroke:#ffffff;stroke-linejoin:miter;"/>
   </g>
   <g id="patch_23">
    <path clip-path="url(#pcb7296f713)" d="M 310.265414 293.76 
L 313.541184 293.76 
L 313.541184 293.76 
L 310.265414 293.76 
z
" style="fill:#0000ff;opacity:0.4;stroke:#ffffff;stroke-linejoin:miter;"/>
   </g>
   <g id="patch_24">
    <path clip-path="url(#pcb7296f713)" d="M 313.541184 293.76 
L 316.816955 293.76 
L 316.816955 293.76 
L 313.541184 293.76 
z
" style="fill:#0000ff;opacity:0.4;stroke:#ffffff;stroke-linejoin:miter;"/>
   </g>
   <g id="patch_25">
    <path clip-path="url(#pcb7296f713)" d="M 316.816955 293.76 
L 320.092726 293.76 
L 320.092726 293.76 
L 316.816955 293.76 
z
" style="fill:#0000ff;opacity:0.4;stroke:#ffffff;stroke-linejoin:miter;"/>
   </g>
   <g id="patch_26">
    <path clip-path="url(#pcb7296f713)" d="M 320.092726 293.76 
L 323.368497 293.76 
L 323.368497 293.76 
L 320.092726 293.76 
z
" style="fill:#0000ff;opacity:0.4;stroke:#ffffff;stroke-linejoin:miter;"/>
   </g>
   <g id="patch_27">
    <path clip-path="url(#pcb7296f713)" d="M 323.368497 293.76 
L 326.644268 293.76 
L 326.644268 243.157863 
L 323.368497 243.157863 
z
" style="fill:#0000ff;opacity:0.4;stroke:#ffffff;stroke-linejoin:miter;"/>
   </g>
   <g id="patch_28">
    <path clip-path="url(#pcb7296f713)" d="M 326.644268 293.76 
L 329.920038 293.76 
L 329.920038 174.696149 
L 326.644268 174.696149 
z
" style="fill:#0000ff;opacity:0.4;stroke:#ffffff;stroke-linejoin:miter;"/>
   </g>
   <g id="patch_29">
    <path clip-path="url(#pcb7296f713)" d="M 329.920038 293.76 
L 333.195809 293.76 
L 333.195809 144.930186 
L 329.920038 144.930186 
z
" style="fill:#0000ff;opacity:0.4;stroke:#ffffff;stroke-linejoin:miter;"/>
   </g>
   <g id="patch_30">
    <path clip-path="url(#pcb7296f713)" d="M 333.195809 293.76 
L 336.47158 293.76 
L 336.47158 136.000398 
L 333.195809 136.000398 
z
" style="fill:#0000ff;opacity:0.4;stroke:#ffffff;stroke-linejoin:miter;"/>
   </g>
   <g id="patch_31">
    <path clip-path="url(#pcb7296f713)" d="M 336.47158 293.76 
L 339.747351 293.76 
L 339.747351 155.348273 
L 336.47158 155.348273 
z
" style="fill:#0000ff;opacity:0.4;stroke:#ffffff;stroke-linejoin:miter;"/>
   </g>
   <g id="patch_32">
    <path clip-path="url(#pcb7296f713)" d="M 339.747351 293.76 
L 343.023122 293.76 
L 343.023122 122.605714 
L 339.747351 122.605714 
z
" style="fill:#0000ff;opacity:0.4;stroke:#ffffff;stroke-linejoin:miter;"/>
   </g>
   <g id="patch_33">
    <path clip-path="url(#pcb7296f713)" d="M 343.023122 293.76 
L 346.298892 293.76 
L 346.298892 122.605714 
L 343.023122 122.605714 
z
" style="fill:#0000ff;opacity:0.4;stroke:#ffffff;stroke-linejoin:miter;"/>
   </g>
   <g id="patch_34">
    <path clip-path="url(#pcb7296f713)" d="M 346.298892 293.76 
L 349.574663 293.76 
L 349.574663 158.32487 
L 346.298892 158.32487 
z
" style="fill:#0000ff;opacity:0.4;stroke:#ffffff;stroke-linejoin:miter;"/>
   </g>
   <g id="patch_35">
    <path clip-path="url(#pcb7296f713)" d="M 349.574663 293.76 
L 352.850434 293.76 
L 352.850434 167.254658 
L 349.574663 167.254658 
z
" style="fill:#0000ff;opacity:0.4;stroke:#ffffff;stroke-linejoin:miter;"/>
   </g>
   <g id="patch_36">
    <path clip-path="url(#pcb7296f713)" d="M 352.850434 293.76 
L 356.126205 293.76 
L 356.126205 189.57913 
L 352.850434 189.57913 
z
" style="fill:#0000ff;opacity:0.4;stroke:#ffffff;stroke-linejoin:miter;"/>
   </g>
   <g id="patch_37">
    <path clip-path="url(#pcb7296f713)" d="M 356.126205 293.76 
L 359.401976 293.76 
L 359.401976 234.228075 
L 356.126205 234.228075 
z
" style="fill:#0000ff;opacity:0.4;stroke:#ffffff;stroke-linejoin:miter;"/>
   </g>
   <g id="patch_38">
    <path clip-path="url(#pcb7296f713)" d="M 359.401976 293.76 
L 362.677746 293.76 
L 362.677746 259.529143 
L 359.401976 259.529143 
z
" style="fill:#0000ff;opacity:0.4;stroke:#ffffff;stroke-linejoin:miter;"/>
   </g>
   <g id="patch_39">
    <path clip-path="url(#pcb7296f713)" d="M 362.677746 293.76 
L 365.953517 293.76 
L 365.953517 262.505739 
L 362.677746 262.505739 
z
" style="fill:#0000ff;opacity:0.4;stroke:#ffffff;stroke-linejoin:miter;"/>
   </g>
   <g id="patch_40">
    <path clip-path="url(#pcb7296f713)" d="M 365.953517 293.76 
L 369.229288 293.76 
L 369.229288 262.505739 
L 365.953517 262.505739 
z
" style="fill:#0000ff;opacity:0.4;stroke:#ffffff;stroke-linejoin:miter;"/>
   </g>
   <g id="patch_41">
    <path clip-path="url(#pcb7296f713)" d="M 369.229288 293.76 
L 372.505059 293.76 
L 372.505059 286.318509 
L 369.229288 286.318509 
z
" style="fill:#0000ff;opacity:0.4;stroke:#ffffff;stroke-linejoin:miter;"/>
   </g>
   <g id="line2d_2">
    <path clip-path="url(#pcb7296f713)" d="M 299.056341 293.751797 
L 299.878381 293.740156 
L 300.700422 293.716413 
L 301.522462 293.673075 
L 302.344503 293.602596 
L 303.166544 293.501203 
L 303.988584 293.373652 
L 304.810625 293.236312 
L 305.632666 293.115472 
L 306.454706 293.039744 
L 307.276747 293.029187 
L 308.098787 293.086711 
L 308.920828 293.196788 
L 309.742869 293.332223 
L 310.564909 293.464986 
L 311.38695 293.575253 
L 312.20899 293.654882 
L 313.031031 293.705383 
L 313.853072 293.732985 
L 314.675112 293.743301 
L 315.497153 293.736075 
L 316.319193 293.697952 
L 317.141234 293.589447 
L 317.963275 293.322401 
L 318.785315 292.727712 
L 319.607356 291.521445 
L 320.429396 289.288833 
L 321.251437 285.513061 
L 322.073478 279.66832 
L 322.895518 271.368902 
L 323.717559 260.528104 
L 324.5396 247.457415 
L 325.36164 232.850441 
L 326.183681 217.645452 
L 327.005721 202.816359 
L 327.827762 189.171098 
L 328.649803 177.226411 
L 329.471843 167.191186 
L 330.293884 159.045979 
L 331.115924 152.668926 
L 331.937965 147.940532 
L 332.760006 144.77429 
L 333.582046 143.065745 
L 334.404087 142.604346 
L 335.226127 143.015038 
L 336.048168 143.775008 
L 336.870209 144.304778 
L 337.692249 144.096108 
L 338.51429 142.831248 
L 339.336331 140.462221 
L 340.158371 137.236505 
L 340.980412 133.665137 
L 341.802452 130.433809 
L 342.624493 128.266843 
L 343.446534 127.770765 
L 344.268574 129.297281 
L 345.090615 132.860342 
L 345.912655 138.12084 
L 346.734696 144.436678 
L 347.556737 150.979995 
L 348.378777 156.929944 
L 349.200818 161.723902 
L 350.022858 165.288323 
L 350.844899 168.124206 
L 351.66694 171.156462 
L 352.48898 175.377192 
L 353.311021 181.442284 
L 354.133061 189.41953 
L 354.955102 198.801274 
L 355.777143 208.746269 
L 356.599183 218.40435 
L 357.421224 227.165163 
L 358.243265 234.746155 
L 359.065305 241.13378 
L 359.887346 246.455224 
L 360.709386 250.86285 
L 361.531427 254.476935 
L 362.353468 257.3881 
L 363.175508 259.693955 
L 363.997549 261.538666 
L 364.819589 263.130661 
L 365.64163 264.725161 
L 366.463671 266.573126 
L 367.285711 268.854406 
L 368.107752 271.623184 
L 368.929792 274.790702 
L 369.751833 278.154173 
L 370.573874 281.460196 
L 371.395914 284.476662 
L 372.217955 287.045824 
L 373.039996 289.102956 
L 373.862036 290.662794 
L 374.684077 291.789217 
L 375.506117 292.565487 
L 376.328158 293.074682 
L 377.150199 293.390504 
L 377.972239 293.574116 
L 378.79428 293.673299 
L 379.61632 293.722703 
L 380.438361 293.745263 
" style="fill:none;stroke:#0000ff;stroke-linecap:round;stroke-width:1.5;"/>
   </g>
   <g id="patch_42">
    <path d="M 278.996975 293.76 
L 278.996975 114.048 
" style="fill:none;stroke:#262626;stroke-linecap:square;stroke-linejoin:miter;stroke-width:1.25;"/>
   </g>
   <g id="patch_43">
    <path d="M 437.76 293.76 
L 437.76 114.048 
" style="fill:none;stroke:#262626;stroke-linecap:square;stroke-linejoin:miter;stroke-width:1.25;"/>
   </g>
   <g id="patch_44">
    <path d="M 278.996975 293.76 
L 437.76 293.76 
" style="fill:none;stroke:#262626;stroke-linecap:square;stroke-linejoin:miter;stroke-width:1.25;"/>
   </g>
   <g id="patch_45">
    <path d="M 278.996975 114.048 
L 437.76 114.048 
" style="fill:none;stroke:#262626;stroke-linecap:square;stroke-linejoin:miter;stroke-width:1.25;"/>
   </g>
   <g id="text_27">
    <!-- MAP = 0.1624 -->
    <g style="fill:#262626;" transform="translate(301.250987 108.048)scale(0.18 -0.18)">
     <use xlink:href="#ArialMT-77"/>
     <use x="83.300781" xlink:href="#ArialMT-65"/>
     <use x="150" xlink:href="#ArialMT-80"/>
     <use x="214.949219" xlink:href="#ArialMT-32"/>
     <use x="242.732422" xlink:href="#ArialMT-61"/>
     <use x="301.130859" xlink:href="#ArialMT-32"/>
     <use x="328.914062" xlink:href="#ArialMT-48"/>
     <use x="384.529297" xlink:href="#ArialMT-46"/>
     <use x="412.3125" xlink:href="#ArialMT-49"/>
     <use x="467.927734" xlink:href="#ArialMT-54"/>
     <use x="523.542969" xlink:href="#ArialMT-50"/>
     <use x="579.158203" xlink:href="#ArialMT-52"/>
    </g>
   </g>
  </g>
 </g>
 <defs>
  <clipPath id="p85d3f3a666">
   <rect height="179.712" width="158.763025" x="59.904" y="114.048"/>
  </clipPath>
  <clipPath id="pcb7296f713">
   <rect height="179.712" width="158.763025" x="278.996975" y="114.048"/>
  </clipPath>
 </defs>
</svg>
