<?xml version="1.0" encoding="utf-8" standalone="no"?>
<!DOCTYPE svg PUBLIC "-//W3C//DTD SVG 1.1//EN"
  "http://www.w3.org/Graphics/SVG/1.1/DTD/svg11.dtd">
<!-- Created with matplotlib (https://matplotlib.org/) -->
<svg height="345.6pt" version="1.1" viewBox="0 0 460.8 345.6" width="460.8pt" xmlns="http://www.w3.org/2000/svg" xmlns:xlink="http://www.w3.org/1999/xlink">
 <defs>
  <style type="text/css">
*{stroke-linecap:butt;stroke-linejoin:round;}
  </style>
 </defs>
 <g id="figure_1">
  <g id="patch_1">
   <path d="M 0 345.6 
L 460.8 345.6 
L 460.8 0 
L 0 0 
z
" style="fill:#ffffff;"/>
  </g>
  <g id="axes_1">
   <g id="patch_2">
    <path d="M 59.904 293.76 
L 218.667025 293.76 
L 218.667025 114.048 
L 59.904 114.048 
z
" style="fill:#ffffff;"/>
   </g>
   <g id="matplotlib.axis_1">
    <g id="xtick_1">
     <g id="text_1">
      <!-- 0.0 -->
      <defs>
       <path d="M 4.15625 35.296875 
Q 4.15625 48 6.765625 55.734375 
Q 9.375 63.484375 14.515625 67.671875 
Q 19.671875 71.875 27.484375 71.875 
Q 33.25 71.875 37.59375 69.546875 
Q 41.9375 67.234375 44.765625 62.859375 
Q 47.609375 58.5 49.21875 52.21875 
Q 50.828125 45.953125 50.828125 35.296875 
Q 50.828125 22.703125 48.234375 14.96875 
Q 45.65625 7.234375 40.5 3 
Q 35.359375 -1.21875 27.484375 -1.21875 
Q 17.140625 -1.21875 11.234375 6.203125 
Q 4.15625 15.140625 4.15625 35.296875 
z
M 13.1875 35.296875 
Q 13.1875 17.671875 17.3125 11.828125 
Q 21.4375 6 27.484375 6 
Q 33.546875 6 37.671875 11.859375 
Q 41.796875 17.71875 41.796875 35.296875 
Q 41.796875 52.984375 37.671875 58.78125 
Q 33.546875 64.59375 27.390625 64.59375 
Q 21.34375 64.59375 17.71875 59.46875 
Q 13.1875 52.9375 13.1875 35.296875 
z
" id="ArialMT-48"/>
       <path d="M 9.078125 0 
L 9.078125 10.015625 
L 19.09375 10.015625 
L 19.09375 0 
z
" id="ArialMT-46"/>
      </defs>
      <g style="fill:#262626;" transform="translate(52.259 311.133594)scale(0.11 -0.11)">
       <use xlink:href="#ArialMT-48"/>
       <use x="55.615234" xlink:href="#ArialMT-46"/>
       <use x="83.398438" xlink:href="#ArialMT-48"/>
      </g>
     </g>
    </g>
    <g id="xtick_2">
     <g id="text_2">
      <!-- 0.2 -->
      <defs>
       <path d="M 50.34375 8.453125 
L 50.34375 0 
L 3.03125 0 
Q 2.9375 3.171875 4.046875 6.109375 
Q 5.859375 10.9375 9.828125 15.625 
Q 13.8125 20.3125 21.34375 26.46875 
Q 33.015625 36.03125 37.109375 41.625 
Q 41.21875 47.21875 41.21875 52.203125 
Q 41.21875 57.421875 37.46875 61 
Q 33.734375 64.59375 27.734375 64.59375 
Q 21.390625 64.59375 17.578125 60.78125 
Q 13.765625 56.984375 13.71875 50.25 
L 4.6875 51.171875 
Q 5.609375 61.28125 11.65625 66.578125 
Q 17.71875 71.875 27.9375 71.875 
Q 38.234375 71.875 44.234375 66.15625 
Q 50.25 60.453125 50.25 52 
Q 50.25 47.703125 48.484375 43.546875 
Q 46.734375 39.40625 42.65625 34.8125 
Q 38.578125 30.21875 29.109375 22.21875 
Q 21.1875 15.578125 18.9375 13.203125 
Q 16.703125 10.84375 15.234375 8.453125 
z
" id="ArialMT-50"/>
      </defs>
      <g style="fill:#262626;" transform="translate(105.180008 311.133594)scale(0.11 -0.11)">
       <use xlink:href="#ArialMT-48"/>
       <use x="55.615234" xlink:href="#ArialMT-46"/>
       <use x="83.398438" xlink:href="#ArialMT-50"/>
      </g>
     </g>
    </g>
    <g id="xtick_3">
     <g id="text_3">
      <!-- 0.4 -->
      <defs>
       <path d="M 32.328125 0 
L 32.328125 17.140625 
L 1.265625 17.140625 
L 1.265625 25.203125 
L 33.9375 71.578125 
L 41.109375 71.578125 
L 41.109375 25.203125 
L 50.78125 25.203125 
L 50.78125 17.140625 
L 41.109375 17.140625 
L 41.109375 0 
z
M 32.328125 25.203125 
L 32.328125 57.46875 
L 9.90625 25.203125 
z
" id="ArialMT-52"/>
      </defs>
      <g style="fill:#262626;" transform="translate(158.101017 311.133594)scale(0.11 -0.11)">
       <use xlink:href="#ArialMT-48"/>
       <use x="55.615234" xlink:href="#ArialMT-46"/>
       <use x="83.398438" xlink:href="#ArialMT-52"/>
      </g>
     </g>
    </g>
    <g id="xtick_4">
     <g id="text_4">
      <!-- 0.6 -->
      <defs>
       <path d="M 49.75 54.046875 
L 41.015625 53.375 
Q 39.84375 58.546875 37.703125 60.890625 
Q 34.125 64.65625 28.90625 64.65625 
Q 24.703125 64.65625 21.53125 62.3125 
Q 17.390625 59.28125 14.984375 53.46875 
Q 12.59375 47.65625 12.5 36.921875 
Q 15.671875 41.75 20.265625 44.09375 
Q 24.859375 46.4375 29.890625 46.4375 
Q 38.671875 46.4375 44.84375 39.96875 
Q 51.03125 33.5 51.03125 23.25 
Q 51.03125 16.5 48.125 10.71875 
Q 45.21875 4.9375 40.140625 1.859375 
Q 35.0625 -1.21875 28.609375 -1.21875 
Q 17.625 -1.21875 10.6875 6.859375 
Q 3.765625 14.9375 3.765625 33.5 
Q 3.765625 54.25 11.421875 63.671875 
Q 18.109375 71.875 29.4375 71.875 
Q 37.890625 71.875 43.28125 67.140625 
Q 48.6875 62.40625 49.75 54.046875 
z
M 13.875 23.1875 
Q 13.875 18.65625 15.796875 14.5 
Q 17.71875 10.359375 21.1875 8.171875 
Q 24.65625 6 28.46875 6 
Q 34.03125 6 38.03125 10.484375 
Q 42.046875 14.984375 42.046875 22.703125 
Q 42.046875 30.125 38.078125 34.390625 
Q 34.125 38.671875 28.125 38.671875 
Q 22.171875 38.671875 18.015625 34.390625 
Q 13.875 30.125 13.875 23.1875 
z
" id="ArialMT-54"/>
      </defs>
      <g style="fill:#262626;" transform="translate(211.022025 311.133594)scale(0.11 -0.11)">
       <use xlink:href="#ArialMT-48"/>
       <use x="55.615234" xlink:href="#ArialMT-46"/>
       <use x="83.398438" xlink:href="#ArialMT-54"/>
      </g>
     </g>
    </g>
    <g id="text_5">
     <!-- $\bar{\alpha}_{P}$ -->
     <defs>
      <path d="M -39.40625 74.515625 
L -10.203125 74.515625 
L -10.203125 67.28125 
L -39.40625 67.28125 
z
" id="DejaVuSans-772"/>
      <path d="M 40.921875 25.4375 
L 40.96875 36.71875 
Q 41.015625 48.25 32.328125 48.296875 
Q 25.828125 48.34375 21.78125 42.921875 
Q 16.703125 36.234375 14.984375 27.296875 
Q 12.890625 16.546875 15.53125 11.421875 
Q 18.265625 6.203125 24.171875 6.203125 
Q 30.71875 6.203125 36.234375 16.609375 
z
M 33.84375 55.90625 
Q 49.078125 56.15625 48.875 40.375 
Q 48.875 40.375 56.5 54.6875 
L 64.5 54.6875 
L 48.734375 25.046875 
L 48.578125 14.359375 
Q 48.578125 11.96875 49.90625 9.96875 
Q 51.421875 7.625 52.984375 7.625 
L 57.328125 7.625 
L 55.859375 0 
L 50.4375 0 
Q 45.84375 0 42.53125 4.109375 
Q 40.96875 6.15625 40.921875 10.453125 
Q 37.75 5.21875 32.28125 0.78125 
Q 29.6875 -1.265625 22.703125 -1.21875 
Q 11.28125 -1.125 7.125 6.203125 
Q 2.875 13.8125 5.515625 27.296875 
Q 8.34375 41.796875 15.765625 48.390625 
Q 24.125 55.765625 33.84375 55.90625 
z
" id="DejaVuSans-Oblique-945"/>
      <path d="M 16.890625 72.90625 
L 39.703125 72.90625 
Q 49.65625 72.90625 54.875 68.265625 
Q 60.109375 63.625 60.109375 54.6875 
Q 60.109375 42.671875 52.390625 35.984375 
Q 44.671875 29.296875 30.71875 29.296875 
L 18.3125 29.296875 
L 12.59375 0 
L 2.6875 0 
z
M 25.203125 64.796875 
L 19.921875 37.40625 
L 32.328125 37.40625 
Q 40.71875 37.40625 45.203125 41.703125 
Q 49.703125 46 49.703125 54 
Q 49.703125 59.125 46.65625 61.953125 
Q 43.609375 64.796875 38.09375 64.796875 
z
" id="DejaVuSans-Oblique-80"/>
     </defs>
     <g style="fill:#262626;" transform="translate(129.205513 330.482344)scale(0.18 -0.18)">
      <use transform="translate(65.885742 1.484375)" xlink:href="#DejaVuSans-772"/>
      <use transform="translate(0 0.109375)" xlink:href="#DejaVuSans-Oblique-945"/>
      <use transform="translate(66.875 -16.296875)scale(0.7)" xlink:href="#DejaVuSans-Oblique-80"/>
     </g>
    </g>
   </g>
   <g id="matplotlib.axis_2">
    <g id="ytick_1">
     <g id="text_6">
      <!-- 0.0 -->
      <g style="fill:#262626;" transform="translate(35.114 297.696797)scale(0.11 -0.11)">
       <use xlink:href="#ArialMT-48"/>
       <use x="55.615234" xlink:href="#ArialMT-46"/>
       <use x="83.398438" xlink:href="#ArialMT-48"/>
      </g>
     </g>
    </g>
    <g id="ytick_2">
     <g id="text_7">
      <!-- 0.5 -->
      <defs>
       <path d="M 4.15625 18.75 
L 13.375 19.53125 
Q 14.40625 12.796875 18.140625 9.390625 
Q 21.875 6 27.15625 6 
Q 33.5 6 37.890625 10.78125 
Q 42.28125 15.578125 42.28125 23.484375 
Q 42.28125 31 38.0625 35.34375 
Q 33.84375 39.703125 27 39.703125 
Q 22.75 39.703125 19.328125 37.765625 
Q 15.921875 35.84375 13.96875 32.765625 
L 5.71875 33.84375 
L 12.640625 70.609375 
L 48.25 70.609375 
L 48.25 62.203125 
L 19.671875 62.203125 
L 15.828125 42.96875 
Q 22.265625 47.46875 29.34375 47.46875 
Q 38.71875 47.46875 45.15625 40.96875 
Q 51.609375 34.46875 51.609375 24.265625 
Q 51.609375 14.546875 45.953125 7.46875 
Q 39.0625 -1.21875 27.15625 -1.21875 
Q 17.390625 -1.21875 11.203125 4.25 
Q 5.03125 9.71875 4.15625 18.75 
z
" id="ArialMT-53"/>
      </defs>
      <g style="fill:#262626;" transform="translate(35.114 273.296254)scale(0.11 -0.11)">
       <use xlink:href="#ArialMT-48"/>
       <use x="55.615234" xlink:href="#ArialMT-46"/>
       <use x="83.398438" xlink:href="#ArialMT-53"/>
      </g>
     </g>
    </g>
    <g id="ytick_3">
     <g id="text_8">
      <!-- 1.0 -->
      <defs>
       <path d="M 37.25 0 
L 28.46875 0 
L 28.46875 56 
Q 25.296875 52.984375 20.140625 49.953125 
Q 14.984375 46.921875 10.890625 45.40625 
L 10.890625 53.90625 
Q 18.265625 57.375 23.78125 62.296875 
Q 29.296875 67.234375 31.59375 71.875 
L 37.25 71.875 
z
" id="ArialMT-49"/>
      </defs>
      <g style="fill:#262626;" transform="translate(35.114 248.895712)scale(0.11 -0.11)">
       <use xlink:href="#ArialMT-49"/>
       <use x="55.615234" xlink:href="#ArialMT-46"/>
       <use x="83.398438" xlink:href="#ArialMT-48"/>
      </g>
     </g>
    </g>
    <g id="ytick_4">
     <g id="text_9">
      <!-- 1.5 -->
      <g style="fill:#262626;" transform="translate(35.114 224.495169)scale(0.11 -0.11)">
       <use xlink:href="#ArialMT-49"/>
       <use x="55.615234" xlink:href="#ArialMT-46"/>
       <use x="83.398438" xlink:href="#ArialMT-53"/>
      </g>
     </g>
    </g>
    <g id="ytick_5">
     <g id="text_10">
      <!-- 2.0 -->
      <g style="fill:#262626;" transform="translate(35.114 200.094626)scale(0.11 -0.11)">
       <use xlink:href="#ArialMT-50"/>
       <use x="55.615234" xlink:href="#ArialMT-46"/>
       <use x="83.398438" xlink:href="#ArialMT-48"/>
      </g>
     </g>
    </g>
    <g id="ytick_6">
     <g id="text_11">
      <!-- 2.5 -->
      <g style="fill:#262626;" transform="translate(35.114 175.694084)scale(0.11 -0.11)">
       <use xlink:href="#ArialMT-50"/>
       <use x="55.615234" xlink:href="#ArialMT-46"/>
       <use x="83.398438" xlink:href="#ArialMT-53"/>
      </g>
     </g>
    </g>
    <g id="ytick_7">
     <g id="text_12">
      <!-- 3.0 -->
      <defs>
       <path d="M 4.203125 18.890625 
L 12.984375 20.0625 
Q 14.5 12.59375 18.140625 9.296875 
Q 21.78125 6 27 6 
Q 33.203125 6 37.46875 10.296875 
Q 41.75 14.59375 41.75 20.953125 
Q 41.75 27 37.796875 30.921875 
Q 33.84375 34.859375 27.734375 34.859375 
Q 25.25 34.859375 21.53125 33.890625 
L 22.515625 41.609375 
Q 23.390625 41.5 23.921875 41.5 
Q 29.546875 41.5 34.03125 44.421875 
Q 38.53125 47.359375 38.53125 53.46875 
Q 38.53125 58.296875 35.25 61.46875 
Q 31.984375 64.65625 26.8125 64.65625 
Q 21.6875 64.65625 18.265625 61.421875 
Q 14.84375 58.203125 13.875 51.765625 
L 5.078125 53.328125 
Q 6.6875 62.15625 12.390625 67.015625 
Q 18.109375 71.875 26.609375 71.875 
Q 32.46875 71.875 37.390625 69.359375 
Q 42.328125 66.84375 44.9375 62.5 
Q 47.5625 58.15625 47.5625 53.265625 
Q 47.5625 48.640625 45.0625 44.828125 
Q 42.578125 41.015625 37.703125 38.765625 
Q 44.046875 37.3125 47.5625 32.6875 
Q 51.078125 28.078125 51.078125 21.140625 
Q 51.078125 11.765625 44.234375 5.25 
Q 37.40625 -1.265625 26.953125 -1.265625 
Q 17.53125 -1.265625 11.296875 4.34375 
Q 5.078125 9.96875 4.203125 18.890625 
z
" id="ArialMT-51"/>
      </defs>
      <g style="fill:#262626;" transform="translate(35.114 151.293541)scale(0.11 -0.11)">
       <use xlink:href="#ArialMT-51"/>
       <use x="55.615234" xlink:href="#ArialMT-46"/>
       <use x="83.398438" xlink:href="#ArialMT-48"/>
      </g>
     </g>
    </g>
    <g id="ytick_8">
     <g id="text_13">
      <!-- 3.5 -->
      <g style="fill:#262626;" transform="translate(35.114 126.892999)scale(0.11 -0.11)">
       <use xlink:href="#ArialMT-51"/>
       <use x="55.615234" xlink:href="#ArialMT-46"/>
       <use x="83.398438" xlink:href="#ArialMT-53"/>
      </g>
     </g>
    </g>
    <g id="text_14">
     <!-- Density -->
     <defs>
      <path d="M 7.71875 0 
L 7.71875 71.578125 
L 32.375 71.578125 
Q 40.71875 71.578125 45.125 70.5625 
Q 51.265625 69.140625 55.609375 65.4375 
Q 61.28125 60.640625 64.078125 53.1875 
Q 66.890625 45.75 66.890625 36.1875 
Q 66.890625 28.03125 64.984375 21.734375 
Q 63.09375 15.4375 60.109375 11.296875 
Q 57.125 7.171875 53.578125 4.796875 
Q 50.046875 2.4375 45.046875 1.21875 
Q 40.046875 0 33.546875 0 
z
M 17.1875 8.453125 
L 32.46875 8.453125 
Q 39.546875 8.453125 43.578125 9.765625 
Q 47.609375 11.078125 50 13.484375 
Q 53.375 16.84375 55.25 22.53125 
Q 57.125 28.21875 57.125 36.328125 
Q 57.125 47.5625 53.4375 53.59375 
Q 49.75 59.625 44.484375 61.671875 
Q 40.671875 63.140625 32.234375 63.140625 
L 17.1875 63.140625 
z
" id="ArialMT-68"/>
      <path d="M 42.09375 16.703125 
L 51.171875 15.578125 
Q 49.03125 7.625 43.21875 3.21875 
Q 37.40625 -1.171875 28.375 -1.171875 
Q 17 -1.171875 10.328125 5.828125 
Q 3.65625 12.84375 3.65625 25.484375 
Q 3.65625 38.578125 10.390625 45.796875 
Q 17.140625 53.03125 27.875 53.03125 
Q 38.28125 53.03125 44.875 45.953125 
Q 51.46875 38.875 51.46875 26.03125 
Q 51.46875 25.25 51.421875 23.6875 
L 12.75 23.6875 
Q 13.234375 15.140625 17.578125 10.59375 
Q 21.921875 6.0625 28.421875 6.0625 
Q 33.25 6.0625 36.671875 8.59375 
Q 40.09375 11.140625 42.09375 16.703125 
z
M 13.234375 30.90625 
L 42.1875 30.90625 
Q 41.609375 37.453125 38.875 40.71875 
Q 34.671875 45.796875 27.984375 45.796875 
Q 21.921875 45.796875 17.796875 41.75 
Q 13.671875 37.703125 13.234375 30.90625 
z
" id="ArialMT-101"/>
      <path d="M 6.59375 0 
L 6.59375 51.859375 
L 14.5 51.859375 
L 14.5 44.484375 
Q 20.21875 53.03125 31 53.03125 
Q 35.6875 53.03125 39.625 51.34375 
Q 43.5625 49.65625 45.515625 46.921875 
Q 47.46875 44.1875 48.25 40.4375 
Q 48.734375 37.984375 48.734375 31.890625 
L 48.734375 0 
L 39.9375 0 
L 39.9375 31.546875 
Q 39.9375 36.921875 38.90625 39.578125 
Q 37.890625 42.234375 35.28125 43.8125 
Q 32.671875 45.40625 29.15625 45.40625 
Q 23.53125 45.40625 19.453125 41.84375 
Q 15.375 38.28125 15.375 28.328125 
L 15.375 0 
z
" id="ArialMT-110"/>
      <path d="M 3.078125 15.484375 
L 11.765625 16.84375 
Q 12.5 11.625 15.84375 8.84375 
Q 19.1875 6.0625 25.203125 6.0625 
Q 31.25 6.0625 34.171875 8.515625 
Q 37.109375 10.984375 37.109375 14.3125 
Q 37.109375 17.28125 34.515625 19 
Q 32.71875 20.171875 25.53125 21.96875 
Q 15.875 24.421875 12.140625 26.203125 
Q 8.40625 27.984375 6.46875 31.125 
Q 4.546875 34.28125 4.546875 38.09375 
Q 4.546875 41.546875 6.125 44.5 
Q 7.71875 47.46875 10.453125 49.421875 
Q 12.5 50.921875 16.03125 51.96875 
Q 19.578125 53.03125 23.640625 53.03125 
Q 29.734375 53.03125 34.34375 51.265625 
Q 38.96875 49.515625 41.15625 46.5 
Q 43.359375 43.5 44.1875 38.484375 
L 35.59375 37.3125 
Q 35.015625 41.3125 32.203125 43.546875 
Q 29.390625 45.796875 24.265625 45.796875 
Q 18.21875 45.796875 15.625 43.796875 
Q 13.03125 41.796875 13.03125 39.109375 
Q 13.03125 37.40625 14.109375 36.03125 
Q 15.1875 34.625 17.484375 33.6875 
Q 18.796875 33.203125 25.25 31.453125 
Q 34.578125 28.953125 38.25 27.359375 
Q 41.9375 25.78125 44.03125 22.75 
Q 46.140625 19.734375 46.140625 15.234375 
Q 46.140625 10.84375 43.578125 6.953125 
Q 41.015625 3.078125 36.171875 0.953125 
Q 31.34375 -1.171875 25.25 -1.171875 
Q 15.140625 -1.171875 9.84375 3.03125 
Q 4.546875 7.234375 3.078125 15.484375 
z
" id="ArialMT-115"/>
      <path d="M 6.640625 61.46875 
L 6.640625 71.578125 
L 15.4375 71.578125 
L 15.4375 61.46875 
z
M 6.640625 0 
L 6.640625 51.859375 
L 15.4375 51.859375 
L 15.4375 0 
z
" id="ArialMT-105"/>
      <path d="M 25.78125 7.859375 
L 27.046875 0.09375 
Q 23.34375 -0.6875 20.40625 -0.6875 
Q 15.625 -0.6875 12.984375 0.828125 
Q 10.359375 2.34375 9.28125 4.8125 
Q 8.203125 7.28125 8.203125 15.1875 
L 8.203125 45.015625 
L 1.765625 45.015625 
L 1.765625 51.859375 
L 8.203125 51.859375 
L 8.203125 64.703125 
L 16.9375 69.96875 
L 16.9375 51.859375 
L 25.78125 51.859375 
L 25.78125 45.015625 
L 16.9375 45.015625 
L 16.9375 14.703125 
Q 16.9375 10.9375 17.40625 9.859375 
Q 17.875 8.796875 18.921875 8.15625 
Q 19.96875 7.515625 21.921875 7.515625 
Q 23.390625 7.515625 25.78125 7.859375 
z
" id="ArialMT-116"/>
      <path d="M 6.203125 -19.96875 
L 5.21875 -11.71875 
Q 8.109375 -12.5 10.25 -12.5 
Q 13.1875 -12.5 14.9375 -11.515625 
Q 16.703125 -10.546875 17.828125 -8.796875 
Q 18.65625 -7.46875 20.515625 -2.25 
Q 20.75 -1.515625 21.296875 -0.09375 
L 1.609375 51.859375 
L 11.078125 51.859375 
L 21.875 21.828125 
Q 23.96875 16.109375 25.640625 9.8125 
Q 27.15625 15.875 29.25 21.625 
L 40.328125 51.859375 
L 49.125 51.859375 
L 29.390625 -0.875 
Q 26.21875 -9.421875 24.46875 -12.640625 
Q 22.125 -17 19.09375 -19.015625 
Q 16.0625 -21.046875 11.859375 -21.046875 
Q 9.328125 -21.046875 6.203125 -19.96875 
z
" id="ArialMT-121"/>
     </defs>
     <g style="fill:#262626;" transform="translate(27.325563 233.913375)rotate(-90)scale(0.18 -0.18)">
      <use xlink:href="#ArialMT-68"/>
      <use x="72.216797" xlink:href="#ArialMT-101"/>
      <use x="127.832031" xlink:href="#ArialMT-110"/>
      <use x="183.447266" xlink:href="#ArialMT-115"/>
      <use x="233.447266" xlink:href="#ArialMT-105"/>
      <use x="255.664062" xlink:href="#ArialMT-116"/>
      <use x="283.447266" xlink:href="#ArialMT-121"/>
     </g>
    </g>
   </g>
   <g id="patch_3">
    <path clip-path="url(#p7d4b9c16e0)" d="M 80.13215 293.76 
L 90.317444 293.76 
L 90.317444 179.657143 
L 80.13215 179.657143 
z
" style="fill:#0000ff;opacity:0.4;stroke:#ffffff;stroke-linejoin:miter;"/>
   </g>
   <g id="patch_4">
    <path clip-path="url(#p7d4b9c16e0)" d="M 90.317444 293.76 
L 100.502739 293.76 
L 100.502739 170.782476 
L 90.317444 170.782476 
z
" style="fill:#0000ff;opacity:0.4;stroke:#ffffff;stroke-linejoin:miter;"/>
   </g>
   <g id="patch_5">
    <path clip-path="url(#p7d4b9c16e0)" d="M 100.502739 293.76 
L 110.688033 293.76 
L 110.688033 122.605714 
L 100.502739 122.605714 
z
" style="fill:#0000ff;opacity:0.4;stroke:#ffffff;stroke-linejoin:miter;"/>
   </g>
   <g id="patch_6">
    <path clip-path="url(#p7d4b9c16e0)" d="M 110.688033 293.76 
L 120.873327 293.76 
L 120.873327 154.300952 
L 110.688033 154.300952 
z
" style="fill:#0000ff;opacity:0.4;stroke:#ffffff;stroke-linejoin:miter;"/>
   </g>
   <g id="patch_7">
    <path clip-path="url(#p7d4b9c16e0)" d="M 120.873327 293.76 
L 131.058622 293.76 
L 131.058622 170.782476 
L 120.873327 170.782476 
z
" style="fill:#0000ff;opacity:0.4;stroke:#ffffff;stroke-linejoin:miter;"/>
   </g>
   <g id="patch_8">
    <path clip-path="url(#p7d4b9c16e0)" d="M 131.058622 293.76 
L 141.243916 293.76 
L 141.243916 173.318095 
L 131.058622 173.318095 
z
" style="fill:#0000ff;opacity:0.4;stroke:#ffffff;stroke-linejoin:miter;"/>
   </g>
   <g id="patch_9">
    <path clip-path="url(#p7d4b9c16e0)" d="M 141.243916 293.76 
L 151.429211 293.76 
L 151.429211 189.799619 
L 141.243916 189.799619 
z
" style="fill:#0000ff;opacity:0.4;stroke:#ffffff;stroke-linejoin:miter;"/>
   </g>
   <g id="patch_10">
    <path clip-path="url(#p7d4b9c16e0)" d="M 151.429211 293.76 
L 161.614505 293.76 
L 161.614505 177.121524 
L 151.429211 177.121524 
z
" style="fill:#0000ff;opacity:0.4;stroke:#ffffff;stroke-linejoin:miter;"/>
   </g>
   <g id="patch_11">
    <path clip-path="url(#p7d4b9c16e0)" d="M 161.614505 293.76 
L 171.799799 293.76 
L 171.799799 169.514667 
L 161.614505 169.514667 
z
" style="fill:#0000ff;opacity:0.4;stroke:#ffffff;stroke-linejoin:miter;"/>
   </g>
   <g id="patch_12">
    <path clip-path="url(#p7d4b9c16e0)" d="M 171.799799 293.76 
L 181.985094 293.76 
L 181.985094 215.15581 
L 171.799799 215.15581 
z
" style="fill:#0000ff;opacity:0.4;stroke:#ffffff;stroke-linejoin:miter;"/>
   </g>
   <g id="patch_13">
    <path clip-path="url(#p7d4b9c16e0)" d="M 181.985094 293.76 
L 192.170388 293.76 
L 192.170388 240.512 
L 181.985094 240.512 
z
" style="fill:#0000ff;opacity:0.4;stroke:#ffffff;stroke-linejoin:miter;"/>
   </g>
   <g id="line2d_1">
    <path clip-path="url(#p7d4b9c16e0)" d="M 57.669699 293.666136 
L 59.255186 293.571679 
L 60.840672 293.396936 
L 62.426158 293.087164 
L 64.011644 292.560901 
L 65.597131 291.704048 
L 67.182617 290.366922 
L 68.768103 288.366994 
L 70.353589 285.499931 
L 71.939076 281.560446 
L 73.524562 276.372271 
L 75.110048 269.823543 
L 76.695534 261.900864 
L 78.281021 252.713436 
L 79.866507 242.498986 
L 81.451993 231.606349 
L 83.037479 220.455043 
L 84.622966 209.478589 
L 86.208452 199.063567 
L 87.793938 189.498515 
L 89.379424 180.944765 
L 90.964911 173.435528 
L 92.550397 166.901877 
L 94.135883 161.217098 
L 95.721369 156.246596 
L 97.306856 151.890184 
L 98.892342 148.107032 
L 100.477828 144.919396 
L 102.063315 142.397389 
L 103.648801 140.631689 
L 105.234287 139.703094 
L 106.819773 139.656945 
L 108.40526 140.487537 
L 109.990746 142.133951 
L 111.576232 144.48563 
L 113.161718 147.394351 
L 114.747205 150.689103 
L 116.332691 154.191227 
L 117.918177 157.72818 
L 119.503663 161.144922 
L 121.08915 164.312133 
L 122.674636 167.130707 
L 124.260122 169.532661 
L 125.845608 171.479654 
L 127.431095 172.961281 
L 129.016581 173.995204 
L 130.602067 174.629773 
L 132.187553 174.947348 
L 133.77304 175.064338 
L 135.358526 175.123489 
L 136.944012 175.275916 
L 138.529498 175.654388 
L 140.114985 176.343792 
L 141.700471 177.357445 
L 143.285957 178.627467 
L 144.871443 180.013746 
L 146.45693 181.330371 
L 148.042416 182.383158 
L 149.627902 183.008941 
L 151.213388 183.107621 
L 152.798875 182.660949 
L 154.384361 181.736276 
L 155.969847 180.477087 
L 157.555333 179.08421 
L 159.14082 177.791777 
L 160.726306 176.841238 
L 162.311792 176.455796 
L 163.897278 176.81731 
L 165.482765 178.047954 
L 167.068251 180.199252 
L 168.653737 183.250759 
L 170.239224 187.11927 
L 171.82471 191.677258 
L 173.410196 196.776816 
L 174.995682 202.273907 
L 176.581169 208.047552 
L 178.166655 214.010088 
L 179.752141 220.107079 
L 181.337627 226.3082 
L 182.923114 232.592529 
L 184.5086 238.932716 
L 186.094086 245.282252 
L 187.679572 251.56889 
L 189.265059 257.695506 
L 190.850545 263.547886 
L 192.436031 269.007412 
L 194.021517 273.965777 
L 195.607004 278.3386 
L 197.19249 282.07534 
L 198.777976 285.163834 
L 200.363462 287.629036 
L 201.948949 289.526732 
L 203.534435 290.93394 
L 205.119921 291.938083 
L 206.705407 292.626956 
L 208.290894 293.080937 
L 209.87638 293.368136 
L 211.461866 293.54244 
L 213.047352 293.643872 
L 214.632839 293.700442 
" style="fill:none;stroke:#0000ff;stroke-linecap:round;stroke-width:1.5;"/>
   </g>
   <g id="patch_14">
    <path d="M 59.904 293.76 
L 59.904 114.048 
" style="fill:none;stroke:#262626;stroke-linecap:square;stroke-linejoin:miter;stroke-width:1.25;"/>
   </g>
   <g id="patch_15">
    <path d="M 218.667025 293.76 
L 218.667025 114.048 
" style="fill:none;stroke:#262626;stroke-linecap:square;stroke-linejoin:miter;stroke-width:1.25;"/>
   </g>
   <g id="patch_16">
    <path d="M 59.904 293.76 
L 218.667025 293.76 
" style="fill:none;stroke:#262626;stroke-linecap:square;stroke-linejoin:miter;stroke-width:1.25;"/>
   </g>
   <g id="patch_17">
    <path d="M 59.904 114.048 
L 218.667025 114.048 
" style="fill:none;stroke:#262626;stroke-linecap:square;stroke-linejoin:miter;stroke-width:1.25;"/>
   </g>
   <g id="text_15">
    <!-- MAP = 0.1773 -->
    <defs>
     <path d="M 7.421875 0 
L 7.421875 71.578125 
L 21.6875 71.578125 
L 38.625 20.90625 
Q 40.96875 13.8125 42.046875 10.296875 
Q 43.265625 14.203125 45.84375 21.78125 
L 62.984375 71.578125 
L 75.734375 71.578125 
L 75.734375 0 
L 66.609375 0 
L 66.609375 59.90625 
L 45.796875 0 
L 37.25 0 
L 16.546875 60.9375 
L 16.546875 0 
z
" id="ArialMT-77"/>
     <path d="M -0.140625 0 
L 27.34375 71.578125 
L 37.546875 71.578125 
L 66.84375 0 
L 56.0625 0 
L 47.703125 21.6875 
L 17.78125 21.6875 
L 9.90625 0 
z
M 20.515625 29.390625 
L 44.78125 29.390625 
L 37.3125 49.21875 
Q 33.890625 58.25 32.234375 64.0625 
Q 30.859375 57.171875 28.375 50.390625 
z
" id="ArialMT-65"/>
     <path d="M 7.71875 0 
L 7.71875 71.578125 
L 34.71875 71.578125 
Q 41.84375 71.578125 45.609375 70.90625 
Q 50.875 70.015625 54.4375 67.546875 
Q 58.015625 65.09375 60.1875 60.640625 
Q 62.359375 56.203125 62.359375 50.875 
Q 62.359375 41.75 56.546875 35.421875 
Q 50.734375 29.109375 35.546875 29.109375 
L 17.1875 29.109375 
L 17.1875 0 
z
M 17.1875 37.546875 
L 35.6875 37.546875 
Q 44.875 37.546875 48.734375 40.96875 
Q 52.59375 44.390625 52.59375 50.59375 
Q 52.59375 55.078125 50.3125 58.265625 
Q 48.046875 61.46875 44.34375 62.5 
Q 41.9375 63.140625 35.5 63.140625 
L 17.1875 63.140625 
z
" id="ArialMT-80"/>
     <path id="ArialMT-32"/>
     <path d="M 52.828125 42.09375 
L 5.5625 42.09375 
L 5.5625 50.296875 
L 52.828125 50.296875 
z
M 52.828125 20.359375 
L 5.5625 20.359375 
L 5.5625 28.5625 
L 52.828125 28.5625 
z
" id="ArialMT-61"/>
     <path d="M 4.734375 62.203125 
L 4.734375 70.65625 
L 51.078125 70.65625 
L 51.078125 63.8125 
Q 44.234375 56.546875 37.515625 44.484375 
Q 30.8125 32.421875 27.15625 19.671875 
Q 24.515625 10.6875 23.78125 0 
L 14.75 0 
Q 14.890625 8.453125 18.0625 20.40625 
Q 21.234375 32.375 27.171875 43.484375 
Q 33.109375 54.59375 39.796875 62.203125 
z
" id="ArialMT-55"/>
    </defs>
    <g style="fill:#262626;" transform="translate(82.158013 108.048)scale(0.18 -0.18)">
     <use xlink:href="#ArialMT-77"/>
     <use x="83.300781" xlink:href="#ArialMT-65"/>
     <use x="150" xlink:href="#ArialMT-80"/>
     <use x="214.949219" xlink:href="#ArialMT-32"/>
     <use x="242.732422" xlink:href="#ArialMT-61"/>
     <use x="301.130859" xlink:href="#ArialMT-32"/>
     <use x="328.914062" xlink:href="#ArialMT-48"/>
     <use x="384.529297" xlink:href="#ArialMT-46"/>
     <use x="412.3125" xlink:href="#ArialMT-49"/>
     <use x="467.927734" xlink:href="#ArialMT-55"/>
     <use x="523.542969" xlink:href="#ArialMT-55"/>
     <use x="579.158203" xlink:href="#ArialMT-51"/>
    </g>
   </g>
  </g>
  <g id="axes_2">
   <g id="patch_18">
    <path d="M 278.996975 293.76 
L 437.76 293.76 
L 437.76 114.048 
L 278.996975 114.048 
z
" style="fill:#ffffff;"/>
   </g>
   <g id="matplotlib.axis_3">
    <g id="xtick_5">
     <g id="text_16">
      <!-- 0.0 -->
      <g style="fill:#262626;" transform="translate(271.351975 311.133594)scale(0.11 -0.11)">
       <use xlink:href="#ArialMT-48"/>
       <use x="55.615234" xlink:href="#ArialMT-46"/>
       <use x="83.398438" xlink:href="#ArialMT-48"/>
      </g>
     </g>
    </g>
    <g id="xtick_6">
     <g id="text_17">
      <!-- 0.1 -->
      <g style="fill:#262626;" transform="translate(311.042731 311.133594)scale(0.11 -0.11)">
       <use xlink:href="#ArialMT-48"/>
       <use x="55.615234" xlink:href="#ArialMT-46"/>
       <use x="83.398438" xlink:href="#ArialMT-49"/>
      </g>
     </g>
    </g>
    <g id="xtick_7">
     <g id="text_18">
      <!-- 0.2 -->
      <g style="fill:#262626;" transform="translate(350.733487 311.133594)scale(0.11 -0.11)">
       <use xlink:href="#ArialMT-48"/>
       <use x="55.615234" xlink:href="#ArialMT-46"/>
       <use x="83.398438" xlink:href="#ArialMT-50"/>
      </g>
     </g>
    </g>
    <g id="xtick_8">
     <g id="text_19">
      <!-- 0.3 -->
      <g style="fill:#262626;" transform="translate(390.424244 311.133594)scale(0.11 -0.11)">
       <use xlink:href="#ArialMT-48"/>
       <use x="55.615234" xlink:href="#ArialMT-46"/>
       <use x="83.398438" xlink:href="#ArialMT-51"/>
      </g>
     </g>
    </g>
    <g id="xtick_9">
     <g id="text_20">
      <!-- 0.4 -->
      <g style="fill:#262626;" transform="translate(430.115 311.133594)scale(0.11 -0.11)">
       <use xlink:href="#ArialMT-48"/>
       <use x="55.615234" xlink:href="#ArialMT-46"/>
       <use x="83.398438" xlink:href="#ArialMT-52"/>
      </g>
     </g>
    </g>
    <g id="text_21">
     <!-- $\bar{\alpha}_{D}$ -->
     <defs>
      <path d="M 16.890625 72.90625 
L 38.09375 72.90625 
Q 54.984375 72.90625 63.59375 65.75 
Q 72.21875 58.59375 72.21875 44.484375 
Q 72.21875 35.15625 68.9375 26.53125 
Q 65.671875 17.921875 59.90625 12.015625 
Q 54.109375 5.953125 45.171875 2.96875 
Q 36.234375 0 24.03125 0 
L 2.6875 0 
z
M 25.203125 64.796875 
L 14.203125 8.109375 
L 27.09375 8.109375 
Q 43.65625 8.109375 52.734375 17.625 
Q 61.8125 27.15625 61.8125 44.484375 
Q 61.8125 54.984375 55.953125 59.890625 
Q 50.09375 64.796875 37.59375 64.796875 
z
" id="DejaVuSans-Oblique-68"/>
     </defs>
     <g style="fill:#262626;" transform="translate(347.218487 330.482344)scale(0.18 -0.18)">
      <use transform="translate(65.885742 1.484375)" xlink:href="#DejaVuSans-772"/>
      <use transform="translate(0 0.109375)" xlink:href="#DejaVuSans-Oblique-945"/>
      <use transform="translate(66.875 -16.296875)scale(0.7)" xlink:href="#DejaVuSans-Oblique-68"/>
     </g>
    </g>
   </g>
   <g id="matplotlib.axis_4">
    <g id="ytick_9">
     <g id="text_22">
      <!-- 0 -->
      <g style="fill:#262626;" transform="translate(263.379944 297.696797)scale(0.11 -0.11)">
       <use xlink:href="#ArialMT-48"/>
      </g>
     </g>
    </g>
    <g id="ytick_10">
     <g id="text_23">
      <!-- 2 -->
      <g style="fill:#262626;" transform="translate(263.379944 274.668806)scale(0.11 -0.11)">
       <use xlink:href="#ArialMT-50"/>
      </g>
     </g>
    </g>
    <g id="ytick_11">
     <g id="text_24">
      <!-- 4 -->
      <g style="fill:#262626;" transform="translate(263.379944 251.640814)scale(0.11 -0.11)">
       <use xlink:href="#ArialMT-52"/>
      </g>
     </g>
    </g>
    <g id="ytick_12">
     <g id="text_25">
      <!-- 6 -->
      <g style="fill:#262626;" transform="translate(263.379944 228.612823)scale(0.11 -0.11)">
       <use xlink:href="#ArialMT-54"/>
      </g>
     </g>
    </g>
    <g id="ytick_13">
     <g id="text_26">
      <!-- 8 -->
      <defs>
       <path d="M 17.671875 38.8125 
Q 12.203125 40.828125 9.5625 44.53125 
Q 6.9375 48.25 6.9375 53.421875 
Q 6.9375 61.234375 12.546875 66.546875 
Q 18.171875 71.875 27.484375 71.875 
Q 36.859375 71.875 42.578125 66.421875 
Q 48.296875 60.984375 48.296875 53.171875 
Q 48.296875 48.1875 45.671875 44.5 
Q 43.0625 40.828125 37.75 38.8125 
Q 44.34375 36.671875 47.78125 31.875 
Q 51.21875 27.09375 51.21875 20.453125 
Q 51.21875 11.28125 44.71875 5.03125 
Q 38.234375 -1.21875 27.640625 -1.21875 
Q 17.046875 -1.21875 10.546875 5.046875 
Q 4.046875 11.328125 4.046875 20.703125 
Q 4.046875 27.6875 7.59375 32.390625 
Q 11.140625 37.109375 17.671875 38.8125 
z
M 15.921875 53.71875 
Q 15.921875 48.640625 19.1875 45.40625 
Q 22.46875 42.1875 27.6875 42.1875 
Q 32.765625 42.1875 36.015625 45.375 
Q 39.265625 48.578125 39.265625 53.21875 
Q 39.265625 58.0625 35.90625 61.359375 
Q 32.5625 64.65625 27.59375 64.65625 
Q 22.5625 64.65625 19.234375 61.421875 
Q 15.921875 58.203125 15.921875 53.71875 
z
M 13.09375 20.65625 
Q 13.09375 16.890625 14.875 13.375 
Q 16.65625 9.859375 20.171875 7.921875 
Q 23.6875 6 27.734375 6 
Q 34.03125 6 38.125 10.046875 
Q 42.234375 14.109375 42.234375 20.359375 
Q 42.234375 26.703125 38.015625 30.859375 
Q 33.796875 35.015625 27.4375 35.015625 
Q 21.234375 35.015625 17.15625 30.90625 
Q 13.09375 26.8125 13.09375 20.65625 
z
" id="ArialMT-56"/>
      </defs>
      <g style="fill:#262626;" transform="translate(263.379944 205.584831)scale(0.11 -0.11)">
       <use xlink:href="#ArialMT-56"/>
      </g>
     </g>
    </g>
    <g id="ytick_14">
     <g id="text_27">
      <!-- 10 -->
      <g style="fill:#262626;" transform="translate(257.262912 182.55684)scale(0.11 -0.11)">
       <use xlink:href="#ArialMT-49"/>
       <use x="55.615234" xlink:href="#ArialMT-48"/>
      </g>
     </g>
    </g>
    <g id="ytick_15">
     <g id="text_28">
      <!-- 12 -->
      <g style="fill:#262626;" transform="translate(257.262912 159.528849)scale(0.11 -0.11)">
       <use xlink:href="#ArialMT-49"/>
       <use x="55.615234" xlink:href="#ArialMT-50"/>
      </g>
     </g>
    </g>
    <g id="ytick_16">
     <g id="text_29">
      <!-- 14 -->
      <g style="fill:#262626;" transform="translate(257.262912 136.500857)scale(0.11 -0.11)">
       <use xlink:href="#ArialMT-49"/>
       <use x="55.615234" xlink:href="#ArialMT-52"/>
      </g>
     </g>
    </g>
   </g>
   <g id="patch_19">
    <path clip-path="url(#p28a6bd5886)" d="M 324.61214 293.76 
L 327.549251 293.76 
L 327.549251 212.850701 
L 324.61214 212.850701 
z
" style="fill:#0000ff;opacity:0.4;stroke:#ffffff;stroke-linejoin:miter;"/>
   </g>
   <g id="patch_20">
    <path clip-path="url(#p28a6bd5886)" d="M 327.549251 293.76 
L 330.486362 293.76 
L 330.486362 197.291221 
L 327.549251 197.291221 
z
" style="fill:#0000ff;opacity:0.4;stroke:#ffffff;stroke-linejoin:miter;"/>
   </g>
   <g id="patch_21">
    <path clip-path="url(#p28a6bd5886)" d="M 330.486362 293.76 
L 333.423473 293.76 
L 333.423473 141.277091 
L 330.486362 141.277091 
z
" style="fill:#0000ff;opacity:0.4;stroke:#ffffff;stroke-linejoin:miter;"/>
   </g>
   <g id="patch_22">
    <path clip-path="url(#p28a6bd5886)" d="M 333.423473 293.76 
L 336.360584 293.76 
L 336.360584 164.616312 
L 333.423473 164.616312 
z
" style="fill:#0000ff;opacity:0.4;stroke:#ffffff;stroke-linejoin:miter;"/>
   </g>
   <g id="patch_23">
    <path clip-path="url(#p28a6bd5886)" d="M 336.360584 293.76 
L 339.297695 293.76 
L 339.297695 139.721143 
L 336.360584 139.721143 
z
" style="fill:#0000ff;opacity:0.4;stroke:#ffffff;stroke-linejoin:miter;"/>
   </g>
   <g id="patch_24">
    <path clip-path="url(#p28a6bd5886)" d="M 339.297695 293.76 
L 342.234805 293.76 
L 342.234805 166.17226 
L 339.297695 166.17226 
z
" style="fill:#0000ff;opacity:0.4;stroke:#ffffff;stroke-linejoin:miter;"/>
   </g>
   <g id="patch_25">
    <path clip-path="url(#p28a6bd5886)" d="M 342.234805 293.76 
L 345.171916 293.76 
L 345.171916 122.605714 
L 342.234805 122.605714 
z
" style="fill:#0000ff;opacity:0.4;stroke:#ffffff;stroke-linejoin:miter;"/>
   </g>
   <g id="patch_26">
    <path clip-path="url(#p28a6bd5886)" d="M 345.171916 293.76 
L 348.109027 293.76 
L 348.109027 130.385455 
L 345.171916 130.385455 
z
" style="fill:#0000ff;opacity:0.4;stroke:#ffffff;stroke-linejoin:miter;"/>
   </g>
   <g id="patch_27">
    <path clip-path="url(#p28a6bd5886)" d="M 348.109027 293.76 
L 351.046138 293.76 
L 351.046138 124.161662 
L 348.109027 124.161662 
z
" style="fill:#0000ff;opacity:0.4;stroke:#ffffff;stroke-linejoin:miter;"/>
   </g>
   <g id="patch_28">
    <path clip-path="url(#p28a6bd5886)" d="M 351.046138 293.76 
L 353.983249 293.76 
L 353.983249 172.396052 
L 351.046138 172.396052 
z
" style="fill:#0000ff;opacity:0.4;stroke:#ffffff;stroke-linejoin:miter;"/>
   </g>
   <g id="patch_29">
    <path clip-path="url(#p28a6bd5886)" d="M 353.983249 293.76 
L 356.92036 293.76 
L 356.92036 228.410182 
L 353.983249 228.410182 
z
" style="fill:#0000ff;opacity:0.4;stroke:#ffffff;stroke-linejoin:miter;"/>
   </g>
   <g id="patch_30">
    <path clip-path="url(#p28a6bd5886)" d="M 356.92036 293.76 
L 359.857471 293.76 
L 359.857471 245.52561 
L 356.92036 245.52561 
z
" style="fill:#0000ff;opacity:0.4;stroke:#ffffff;stroke-linejoin:miter;"/>
   </g>
   <g id="patch_31">
    <path clip-path="url(#p28a6bd5886)" d="M 359.857471 293.76 
L 362.794582 293.76 
L 362.794582 267.308883 
L 359.857471 267.308883 
z
" style="fill:#0000ff;opacity:0.4;stroke:#ffffff;stroke-linejoin:miter;"/>
   </g>
   <g id="patch_32">
    <path clip-path="url(#p28a6bd5886)" d="M 362.794582 293.76 
L 365.731693 293.76 
L 365.731693 268.864831 
L 362.794582 268.864831 
z
" style="fill:#0000ff;opacity:0.4;stroke:#ffffff;stroke-linejoin:miter;"/>
   </g>
   <g id="patch_33">
    <path clip-path="url(#p28a6bd5886)" d="M 365.731693 293.76 
L 368.668803 293.76 
L 368.668803 290.648104 
L 365.731693 290.648104 
z
" style="fill:#0000ff;opacity:0.4;stroke:#ffffff;stroke-linejoin:miter;"/>
   </g>
   <g id="patch_34">
    <path clip-path="url(#p28a6bd5886)" d="M 368.668803 293.76 
L 371.605914 293.76 
L 371.605914 279.756468 
L 368.668803 279.756468 
z
" style="fill:#0000ff;opacity:0.4;stroke:#ffffff;stroke-linejoin:miter;"/>
   </g>
   <g id="patch_35">
    <path clip-path="url(#p28a6bd5886)" d="M 371.605914 293.76 
L 374.543025 293.76 
L 374.543025 285.98026 
L 371.605914 285.98026 
z
" style="fill:#0000ff;opacity:0.4;stroke:#ffffff;stroke-linejoin:miter;"/>
   </g>
   <g id="line2d_2">
    <path clip-path="url(#p28a6bd5886)" d="M 317.064509 293.678645 
L 317.721339 293.569292 
L 318.378168 293.339878 
L 319.034998 292.889646 
L 319.691828 292.063036 
L 320.348658 290.64321 
L 321.005488 288.361425 
L 321.662317 284.929991 
L 322.319147 280.100026 
L 322.975977 273.733777 
L 323.632807 265.868971 
L 324.289636 256.746825 
L 324.946466 246.782199 
L 325.603296 236.475035 
L 326.260126 226.289061 
L 326.916955 216.543453 
L 327.573785 207.363435 
L 328.230615 198.712984 
L 328.887445 190.496007 
L 329.544275 182.678949 
L 330.201104 175.375331 
L 330.857934 168.848587 
L 331.514764 163.427236 
L 332.171594 159.36815 
L 332.828423 156.72946 
L 333.485253 155.31236 
L 334.142083 154.701934 
L 334.798913 154.394332 
L 335.455743 153.960027 
L 336.112572 153.176244 
L 336.769402 152.07318 
L 337.426232 150.874318 
L 338.083062 149.856777 
L 338.739891 149.193898 
L 339.396721 148.851672 
L 340.053551 148.586801 
L 340.710381 148.046673 
L 341.367211 146.923191 
L 342.02404 145.087799 
L 342.68087 142.64686 
L 343.3377 139.89767 
L 343.99453 137.213277 
L 344.651359 134.914439 
L 345.308189 133.186708 
L 345.965019 132.073928 
L 346.621849 131.542184 
L 347.278678 131.578223 
L 347.935508 132.274402 
L 348.592338 133.860522 
L 349.249168 136.665889 
L 349.905998 141.023158 
L 350.562827 147.148622 
L 351.219657 155.043277 
L 351.876487 164.451886 
L 352.533317 174.89611 
L 353.190146 185.770963 
L 353.846976 196.471797 
L 354.503806 206.51018 
L 355.160636 215.584166 
L 355.817466 223.587751 
L 356.474295 230.56729 
L 357.131125 236.64981 
L 357.787955 241.973507 
L 358.444785 246.643942 
L 359.101614 250.725139 
L 359.758444 254.25977 
L 360.415274 257.302279 
L 361.072104 259.945878 
L 361.728934 262.328663 
L 362.385763 264.613675 
L 363.042593 266.949133 
L 363.699423 269.424175 
L 364.356253 272.038446 
L 365.013082 274.699251 
L 365.669912 277.249318 
L 366.326742 279.516061 
L 366.983572 281.364798 
L 367.640401 282.737244 
L 368.297231 283.663102 
L 368.954061 284.243575 
L 369.610891 284.616307 
L 370.267721 284.916866 
L 370.92455 285.250521 
L 371.58138 285.680907 
L 372.23821 286.233618 
L 372.89504 286.907095 
L 373.551869 287.682932 
L 374.208699 288.53166 
L 374.865529 289.415007 
L 375.522359 290.288174 
L 376.179189 291.104807 
L 376.836018 291.824479 
L 377.492848 292.420006 
L 378.149678 292.881553 
L 378.806508 293.216013 
L 379.463337 293.442393 
L 380.120167 293.585434 
L 380.776997 293.669785 
L 381.433827 293.716205 
L 382.090657 293.740044 
" style="fill:none;stroke:#0000ff;stroke-linecap:round;stroke-width:1.5;"/>
   </g>
   <g id="patch_36">
    <path d="M 278.996975 293.76 
L 278.996975 114.048 
" style="fill:none;stroke:#262626;stroke-linecap:square;stroke-linejoin:miter;stroke-width:1.25;"/>
   </g>
   <g id="patch_37">
    <path d="M 437.76 293.76 
L 437.76 114.048 
" style="fill:none;stroke:#262626;stroke-linecap:square;stroke-linejoin:miter;stroke-width:1.25;"/>
   </g>
   <g id="patch_38">
    <path d="M 278.996975 293.76 
L 437.76 293.76 
" style="fill:none;stroke:#262626;stroke-linecap:square;stroke-linejoin:miter;stroke-width:1.25;"/>
   </g>
   <g id="patch_39">
    <path d="M 278.996975 114.048 
L 437.76 114.048 
" style="fill:none;stroke:#262626;stroke-linecap:square;stroke-linejoin:miter;stroke-width:1.25;"/>
   </g>
   <g id="text_30">
    <!-- MAP = 0.1704 -->
    <g style="fill:#262626;" transform="translate(301.250987 108.048)scale(0.18 -0.18)">
     <use xlink:href="#ArialMT-77"/>
     <use x="83.300781" xlink:href="#ArialMT-65"/>
     <use x="150" xlink:href="#ArialMT-80"/>
     <use x="214.949219" xlink:href="#ArialMT-32"/>
     <use x="242.732422" xlink:href="#ArialMT-61"/>
     <use x="301.130859" xlink:href="#ArialMT-32"/>
     <use x="328.914062" xlink:href="#ArialMT-48"/>
     <use x="384.529297" xlink:href="#ArialMT-46"/>
     <use x="412.3125" xlink:href="#ArialMT-49"/>
     <use x="467.927734" xlink:href="#ArialMT-55"/>
     <use x="523.542969" xlink:href="#ArialMT-48"/>
     <use x="579.158203" xlink:href="#ArialMT-52"/>
    </g>
   </g>
  </g>
 </g>
 <defs>
  <clipPath id="p7d4b9c16e0">
   <rect height="179.712" width="158.763025" x="59.904" y="114.048"/>
  </clipPath>
  <clipPath id="p28a6bd5886">
   <rect height="179.712" width="158.763025" x="278.996975" y="114.048"/>
  </clipPath>
 </defs>
</svg>
