<?xml version="1.0" encoding="utf-8" standalone="no"?>
<!DOCTYPE svg PUBLIC "-//W3C//DTD SVG 1.1//EN"
  "http://www.w3.org/Graphics/SVG/1.1/DTD/svg11.dtd">
<!-- Created with matplotlib (https://matplotlib.org/) -->
<svg height="345.6pt" version="1.1" viewBox="0 0 460.8 345.6" width="460.8pt" xmlns="http://www.w3.org/2000/svg" xmlns:xlink="http://www.w3.org/1999/xlink">
 <defs>
  <style type="text/css">
*{stroke-linecap:butt;stroke-linejoin:round;}
  </style>
 </defs>
 <g id="figure_1">
  <g id="patch_1">
   <path d="M 0 345.6 
L 460.8 345.6 
L 460.8 0 
L 0 0 
z
" style="fill:#ffffff;"/>
  </g>
  <g id="axes_1">
   <g id="patch_2">
    <path d="M 59.904 293.76 
L 218.667025 293.76 
L 218.667025 114.048 
L 59.904 114.048 
z
" style="fill:#ffffff;"/>
   </g>
   <g id="matplotlib.axis_1">
    <g id="xtick_1">
     <g id="text_1">
      <!-- 0.0 -->
      <defs>
       <path d="M 4.15625 35.296875 
Q 4.15625 48 6.765625 55.734375 
Q 9.375 63.484375 14.515625 67.671875 
Q 19.671875 71.875 27.484375 71.875 
Q 33.25 71.875 37.59375 69.546875 
Q 41.9375 67.234375 44.765625 62.859375 
Q 47.609375 58.5 49.21875 52.21875 
Q 50.828125 45.953125 50.828125 35.296875 
Q 50.828125 22.703125 48.234375 14.96875 
Q 45.65625 7.234375 40.5 3 
Q 35.359375 -1.21875 27.484375 -1.21875 
Q 17.140625 -1.21875 11.234375 6.203125 
Q 4.15625 15.140625 4.15625 35.296875 
z
M 13.1875 35.296875 
Q 13.1875 17.671875 17.3125 11.828125 
Q 21.4375 6 27.484375 6 
Q 33.546875 6 37.671875 11.859375 
Q 41.796875 17.71875 41.796875 35.296875 
Q 41.796875 52.984375 37.671875 58.78125 
Q 33.546875 64.59375 27.390625 64.59375 
Q 21.34375 64.59375 17.71875 59.46875 
Q 13.1875 52.9375 13.1875 35.296875 
z
" id="ArialMT-48"/>
       <path d="M 9.078125 0 
L 9.078125 10.015625 
L 19.09375 10.015625 
L 19.09375 0 
z
" id="ArialMT-46"/>
      </defs>
      <g style="fill:#262626;" transform="translate(52.259 311.133594)scale(0.11 -0.11)">
       <use xlink:href="#ArialMT-48"/>
       <use x="55.615234" xlink:href="#ArialMT-46"/>
       <use x="83.398438" xlink:href="#ArialMT-48"/>
      </g>
     </g>
    </g>
    <g id="xtick_2">
     <g id="text_2">
      <!-- 0.2 -->
      <defs>
       <path d="M 50.34375 8.453125 
L 50.34375 0 
L 3.03125 0 
Q 2.9375 3.171875 4.046875 6.109375 
Q 5.859375 10.9375 9.828125 15.625 
Q 13.8125 20.3125 21.34375 26.46875 
Q 33.015625 36.03125 37.109375 41.625 
Q 41.21875 47.21875 41.21875 52.203125 
Q 41.21875 57.421875 37.46875 61 
Q 33.734375 64.59375 27.734375 64.59375 
Q 21.390625 64.59375 17.578125 60.78125 
Q 13.765625 56.984375 13.71875 50.25 
L 4.6875 51.171875 
Q 5.609375 61.28125 11.65625 66.578125 
Q 17.71875 71.875 27.9375 71.875 
Q 38.234375 71.875 44.234375 66.15625 
Q 50.25 60.453125 50.25 52 
Q 50.25 47.703125 48.484375 43.546875 
Q 46.734375 39.40625 42.65625 34.8125 
Q 38.578125 30.21875 29.109375 22.21875 
Q 21.1875 15.578125 18.9375 13.203125 
Q 16.703125 10.84375 15.234375 8.453125 
z
" id="ArialMT-50"/>
      </defs>
      <g style="fill:#262626;" transform="translate(105.180008 311.133594)scale(0.11 -0.11)">
       <use xlink:href="#ArialMT-48"/>
       <use x="55.615234" xlink:href="#ArialMT-46"/>
       <use x="83.398438" xlink:href="#ArialMT-50"/>
      </g>
     </g>
    </g>
    <g id="xtick_3">
     <g id="text_3">
      <!-- 0.4 -->
      <defs>
       <path d="M 32.328125 0 
L 32.328125 17.140625 
L 1.265625 17.140625 
L 1.265625 25.203125 
L 33.9375 71.578125 
L 41.109375 71.578125 
L 41.109375 25.203125 
L 50.78125 25.203125 
L 50.78125 17.140625 
L 41.109375 17.140625 
L 41.109375 0 
z
M 32.328125 25.203125 
L 32.328125 57.46875 
L 9.90625 25.203125 
z
" id="ArialMT-52"/>
      </defs>
      <g style="fill:#262626;" transform="translate(158.101017 311.133594)scale(0.11 -0.11)">
       <use xlink:href="#ArialMT-48"/>
       <use x="55.615234" xlink:href="#ArialMT-46"/>
       <use x="83.398438" xlink:href="#ArialMT-52"/>
      </g>
     </g>
    </g>
    <g id="xtick_4">
     <g id="text_4">
      <!-- 0.6 -->
      <defs>
       <path d="M 49.75 54.046875 
L 41.015625 53.375 
Q 39.84375 58.546875 37.703125 60.890625 
Q 34.125 64.65625 28.90625 64.65625 
Q 24.703125 64.65625 21.53125 62.3125 
Q 17.390625 59.28125 14.984375 53.46875 
Q 12.59375 47.65625 12.5 36.921875 
Q 15.671875 41.75 20.265625 44.09375 
Q 24.859375 46.4375 29.890625 46.4375 
Q 38.671875 46.4375 44.84375 39.96875 
Q 51.03125 33.5 51.03125 23.25 
Q 51.03125 16.5 48.125 10.71875 
Q 45.21875 4.9375 40.140625 1.859375 
Q 35.0625 -1.21875 28.609375 -1.21875 
Q 17.625 -1.21875 10.6875 6.859375 
Q 3.765625 14.9375 3.765625 33.5 
Q 3.765625 54.25 11.421875 63.671875 
Q 18.109375 71.875 29.4375 71.875 
Q 37.890625 71.875 43.28125 67.140625 
Q 48.6875 62.40625 49.75 54.046875 
z
M 13.875 23.1875 
Q 13.875 18.65625 15.796875 14.5 
Q 17.71875 10.359375 21.1875 8.171875 
Q 24.65625 6 28.46875 6 
Q 34.03125 6 38.03125 10.484375 
Q 42.046875 14.984375 42.046875 22.703125 
Q 42.046875 30.125 38.078125 34.390625 
Q 34.125 38.671875 28.125 38.671875 
Q 22.171875 38.671875 18.015625 34.390625 
Q 13.875 30.125 13.875 23.1875 
z
" id="ArialMT-54"/>
      </defs>
      <g style="fill:#262626;" transform="translate(211.022025 311.133594)scale(0.11 -0.11)">
       <use xlink:href="#ArialMT-48"/>
       <use x="55.615234" xlink:href="#ArialMT-46"/>
       <use x="83.398438" xlink:href="#ArialMT-54"/>
      </g>
     </g>
    </g>
    <g id="text_5">
     <!-- $\bar{\alpha}_{P}$ -->
     <defs>
      <path d="M -39.40625 74.515625 
L -10.203125 74.515625 
L -10.203125 67.28125 
L -39.40625 67.28125 
z
" id="DejaVuSans-772"/>
      <path d="M 40.921875 25.4375 
L 40.96875 36.71875 
Q 41.015625 48.25 32.328125 48.296875 
Q 25.828125 48.34375 21.78125 42.921875 
Q 16.703125 36.234375 14.984375 27.296875 
Q 12.890625 16.546875 15.53125 11.421875 
Q 18.265625 6.203125 24.171875 6.203125 
Q 30.71875 6.203125 36.234375 16.609375 
z
M 33.84375 55.90625 
Q 49.078125 56.15625 48.875 40.375 
Q 48.875 40.375 56.5 54.6875 
L 64.5 54.6875 
L 48.734375 25.046875 
L 48.578125 14.359375 
Q 48.578125 11.96875 49.90625 9.96875 
Q 51.421875 7.625 52.984375 7.625 
L 57.328125 7.625 
L 55.859375 0 
L 50.4375 0 
Q 45.84375 0 42.53125 4.109375 
Q 40.96875 6.15625 40.921875 10.453125 
Q 37.75 5.21875 32.28125 0.78125 
Q 29.6875 -1.265625 22.703125 -1.21875 
Q 11.28125 -1.125 7.125 6.203125 
Q 2.875 13.8125 5.515625 27.296875 
Q 8.34375 41.796875 15.765625 48.390625 
Q 24.125 55.765625 33.84375 55.90625 
z
" id="DejaVuSans-Oblique-945"/>
      <path d="M 16.890625 72.90625 
L 39.703125 72.90625 
Q 49.65625 72.90625 54.875 68.265625 
Q 60.109375 63.625 60.109375 54.6875 
Q 60.109375 42.671875 52.390625 35.984375 
Q 44.671875 29.296875 30.71875 29.296875 
L 18.3125 29.296875 
L 12.59375 0 
L 2.6875 0 
z
M 25.203125 64.796875 
L 19.921875 37.40625 
L 32.328125 37.40625 
Q 40.71875 37.40625 45.203125 41.703125 
Q 49.703125 46 49.703125 54 
Q 49.703125 59.125 46.65625 61.953125 
Q 43.609375 64.796875 38.09375 64.796875 
z
" id="DejaVuSans-Oblique-80"/>
     </defs>
     <g style="fill:#262626;" transform="translate(129.205513 330.482344)scale(0.18 -0.18)">
      <use transform="translate(65.885742 1.484375)" xlink:href="#DejaVuSans-772"/>
      <use transform="translate(0 0.109375)" xlink:href="#DejaVuSans-Oblique-945"/>
      <use transform="translate(66.875 -16.296875)scale(0.7)" xlink:href="#DejaVuSans-Oblique-80"/>
     </g>
    </g>
   </g>
   <g id="matplotlib.axis_2">
    <g id="ytick_1">
     <g id="text_6">
      <!-- 0.0 -->
      <g style="fill:#262626;" transform="translate(35.114 297.696797)scale(0.11 -0.11)">
       <use xlink:href="#ArialMT-48"/>
       <use x="55.615234" xlink:href="#ArialMT-46"/>
       <use x="83.398438" xlink:href="#ArialMT-48"/>
      </g>
     </g>
    </g>
    <g id="ytick_2">
     <g id="text_7">
      <!-- 0.5 -->
      <defs>
       <path d="M 4.15625 18.75 
L 13.375 19.53125 
Q 14.40625 12.796875 18.140625 9.390625 
Q 21.875 6 27.15625 6 
Q 33.5 6 37.890625 10.78125 
Q 42.28125 15.578125 42.28125 23.484375 
Q 42.28125 31 38.0625 35.34375 
Q 33.84375 39.703125 27 39.703125 
Q 22.75 39.703125 19.328125 37.765625 
Q 15.921875 35.84375 13.96875 32.765625 
L 5.71875 33.84375 
L 12.640625 70.609375 
L 48.25 70.609375 
L 48.25 62.203125 
L 19.671875 62.203125 
L 15.828125 42.96875 
Q 22.265625 47.46875 29.34375 47.46875 
Q 38.71875 47.46875 45.15625 40.96875 
Q 51.609375 34.46875 51.609375 24.265625 
Q 51.609375 14.546875 45.953125 7.46875 
Q 39.0625 -1.21875 27.15625 -1.21875 
Q 17.390625 -1.21875 11.203125 4.25 
Q 5.03125 9.71875 4.15625 18.75 
z
" id="ArialMT-53"/>
      </defs>
      <g style="fill:#262626;" transform="translate(35.114 273.024732)scale(0.11 -0.11)">
       <use xlink:href="#ArialMT-48"/>
       <use x="55.615234" xlink:href="#ArialMT-46"/>
       <use x="83.398438" xlink:href="#ArialMT-53"/>
      </g>
     </g>
    </g>
    <g id="ytick_3">
     <g id="text_8">
      <!-- 1.0 -->
      <defs>
       <path d="M 37.25 0 
L 28.46875 0 
L 28.46875 56 
Q 25.296875 52.984375 20.140625 49.953125 
Q 14.984375 46.921875 10.890625 45.40625 
L 10.890625 53.90625 
Q 18.265625 57.375 23.78125 62.296875 
Q 29.296875 67.234375 31.59375 71.875 
L 37.25 71.875 
z
" id="ArialMT-49"/>
      </defs>
      <g style="fill:#262626;" transform="translate(35.114 248.352667)scale(0.11 -0.11)">
       <use xlink:href="#ArialMT-49"/>
       <use x="55.615234" xlink:href="#ArialMT-46"/>
       <use x="83.398438" xlink:href="#ArialMT-48"/>
      </g>
     </g>
    </g>
    <g id="ytick_4">
     <g id="text_9">
      <!-- 1.5 -->
      <g style="fill:#262626;" transform="translate(35.114 223.680601)scale(0.11 -0.11)">
       <use xlink:href="#ArialMT-49"/>
       <use x="55.615234" xlink:href="#ArialMT-46"/>
       <use x="83.398438" xlink:href="#ArialMT-53"/>
      </g>
     </g>
    </g>
    <g id="ytick_5">
     <g id="text_10">
      <!-- 2.0 -->
      <g style="fill:#262626;" transform="translate(35.114 199.008536)scale(0.11 -0.11)">
       <use xlink:href="#ArialMT-50"/>
       <use x="55.615234" xlink:href="#ArialMT-46"/>
       <use x="83.398438" xlink:href="#ArialMT-48"/>
      </g>
     </g>
    </g>
    <g id="ytick_6">
     <g id="text_11">
      <!-- 2.5 -->
      <g style="fill:#262626;" transform="translate(35.114 174.336471)scale(0.11 -0.11)">
       <use xlink:href="#ArialMT-50"/>
       <use x="55.615234" xlink:href="#ArialMT-46"/>
       <use x="83.398438" xlink:href="#ArialMT-53"/>
      </g>
     </g>
    </g>
    <g id="ytick_7">
     <g id="text_12">
      <!-- 3.0 -->
      <defs>
       <path d="M 4.203125 18.890625 
L 12.984375 20.0625 
Q 14.5 12.59375 18.140625 9.296875 
Q 21.78125 6 27 6 
Q 33.203125 6 37.46875 10.296875 
Q 41.75 14.59375 41.75 20.953125 
Q 41.75 27 37.796875 30.921875 
Q 33.84375 34.859375 27.734375 34.859375 
Q 25.25 34.859375 21.53125 33.890625 
L 22.515625 41.609375 
Q 23.390625 41.5 23.921875 41.5 
Q 29.546875 41.5 34.03125 44.421875 
Q 38.53125 47.359375 38.53125 53.46875 
Q 38.53125 58.296875 35.25 61.46875 
Q 31.984375 64.65625 26.8125 64.65625 
Q 21.6875 64.65625 18.265625 61.421875 
Q 14.84375 58.203125 13.875 51.765625 
L 5.078125 53.328125 
Q 6.6875 62.15625 12.390625 67.015625 
Q 18.109375 71.875 26.609375 71.875 
Q 32.46875 71.875 37.390625 69.359375 
Q 42.328125 66.84375 44.9375 62.5 
Q 47.5625 58.15625 47.5625 53.265625 
Q 47.5625 48.640625 45.0625 44.828125 
Q 42.578125 41.015625 37.703125 38.765625 
Q 44.046875 37.3125 47.5625 32.6875 
Q 51.078125 28.078125 51.078125 21.140625 
Q 51.078125 11.765625 44.234375 5.25 
Q 37.40625 -1.265625 26.953125 -1.265625 
Q 17.53125 -1.265625 11.296875 4.34375 
Q 5.078125 9.96875 4.203125 18.890625 
z
" id="ArialMT-51"/>
      </defs>
      <g style="fill:#262626;" transform="translate(35.114 149.664406)scale(0.11 -0.11)">
       <use xlink:href="#ArialMT-51"/>
       <use x="55.615234" xlink:href="#ArialMT-46"/>
       <use x="83.398438" xlink:href="#ArialMT-48"/>
      </g>
     </g>
    </g>
    <g id="ytick_8">
     <g id="text_13">
      <!-- 3.5 -->
      <g style="fill:#262626;" transform="translate(35.114 124.992341)scale(0.11 -0.11)">
       <use xlink:href="#ArialMT-51"/>
       <use x="55.615234" xlink:href="#ArialMT-46"/>
       <use x="83.398438" xlink:href="#ArialMT-53"/>
      </g>
     </g>
    </g>
    <g id="text_14">
     <!-- Density -->
     <defs>
      <path d="M 7.71875 0 
L 7.71875 71.578125 
L 32.375 71.578125 
Q 40.71875 71.578125 45.125 70.5625 
Q 51.265625 69.140625 55.609375 65.4375 
Q 61.28125 60.640625 64.078125 53.1875 
Q 66.890625 45.75 66.890625 36.1875 
Q 66.890625 28.03125 64.984375 21.734375 
Q 63.09375 15.4375 60.109375 11.296875 
Q 57.125 7.171875 53.578125 4.796875 
Q 50.046875 2.4375 45.046875 1.21875 
Q 40.046875 0 33.546875 0 
z
M 17.1875 8.453125 
L 32.46875 8.453125 
Q 39.546875 8.453125 43.578125 9.765625 
Q 47.609375 11.078125 50 13.484375 
Q 53.375 16.84375 55.25 22.53125 
Q 57.125 28.21875 57.125 36.328125 
Q 57.125 47.5625 53.4375 53.59375 
Q 49.75 59.625 44.484375 61.671875 
Q 40.671875 63.140625 32.234375 63.140625 
L 17.1875 63.140625 
z
" id="ArialMT-68"/>
      <path d="M 42.09375 16.703125 
L 51.171875 15.578125 
Q 49.03125 7.625 43.21875 3.21875 
Q 37.40625 -1.171875 28.375 -1.171875 
Q 17 -1.171875 10.328125 5.828125 
Q 3.65625 12.84375 3.65625 25.484375 
Q 3.65625 38.578125 10.390625 45.796875 
Q 17.140625 53.03125 27.875 53.03125 
Q 38.28125 53.03125 44.875 45.953125 
Q 51.46875 38.875 51.46875 26.03125 
Q 51.46875 25.25 51.421875 23.6875 
L 12.75 23.6875 
Q 13.234375 15.140625 17.578125 10.59375 
Q 21.921875 6.0625 28.421875 6.0625 
Q 33.25 6.0625 36.671875 8.59375 
Q 40.09375 11.140625 42.09375 16.703125 
z
M 13.234375 30.90625 
L 42.1875 30.90625 
Q 41.609375 37.453125 38.875 40.71875 
Q 34.671875 45.796875 27.984375 45.796875 
Q 21.921875 45.796875 17.796875 41.75 
Q 13.671875 37.703125 13.234375 30.90625 
z
" id="ArialMT-101"/>
      <path d="M 6.59375 0 
L 6.59375 51.859375 
L 14.5 51.859375 
L 14.5 44.484375 
Q 20.21875 53.03125 31 53.03125 
Q 35.6875 53.03125 39.625 51.34375 
Q 43.5625 49.65625 45.515625 46.921875 
Q 47.46875 44.1875 48.25 40.4375 
Q 48.734375 37.984375 48.734375 31.890625 
L 48.734375 0 
L 39.9375 0 
L 39.9375 31.546875 
Q 39.9375 36.921875 38.90625 39.578125 
Q 37.890625 42.234375 35.28125 43.8125 
Q 32.671875 45.40625 29.15625 45.40625 
Q 23.53125 45.40625 19.453125 41.84375 
Q 15.375 38.28125 15.375 28.328125 
L 15.375 0 
z
" id="ArialMT-110"/>
      <path d="M 3.078125 15.484375 
L 11.765625 16.84375 
Q 12.5 11.625 15.84375 8.84375 
Q 19.1875 6.0625 25.203125 6.0625 
Q 31.25 6.0625 34.171875 8.515625 
Q 37.109375 10.984375 37.109375 14.3125 
Q 37.109375 17.28125 34.515625 19 
Q 32.71875 20.171875 25.53125 21.96875 
Q 15.875 24.421875 12.140625 26.203125 
Q 8.40625 27.984375 6.46875 31.125 
Q 4.546875 34.28125 4.546875 38.09375 
Q 4.546875 41.546875 6.125 44.5 
Q 7.71875 47.46875 10.453125 49.421875 
Q 12.5 50.921875 16.03125 51.96875 
Q 19.578125 53.03125 23.640625 53.03125 
Q 29.734375 53.03125 34.34375 51.265625 
Q 38.96875 49.515625 41.15625 46.5 
Q 43.359375 43.5 44.1875 38.484375 
L 35.59375 37.3125 
Q 35.015625 41.3125 32.203125 43.546875 
Q 29.390625 45.796875 24.265625 45.796875 
Q 18.21875 45.796875 15.625 43.796875 
Q 13.03125 41.796875 13.03125 39.109375 
Q 13.03125 37.40625 14.109375 36.03125 
Q 15.1875 34.625 17.484375 33.6875 
Q 18.796875 33.203125 25.25 31.453125 
Q 34.578125 28.953125 38.25 27.359375 
Q 41.9375 25.78125 44.03125 22.75 
Q 46.140625 19.734375 46.140625 15.234375 
Q 46.140625 10.84375 43.578125 6.953125 
Q 41.015625 3.078125 36.171875 0.953125 
Q 31.34375 -1.171875 25.25 -1.171875 
Q 15.140625 -1.171875 9.84375 3.03125 
Q 4.546875 7.234375 3.078125 15.484375 
z
" id="ArialMT-115"/>
      <path d="M 6.640625 61.46875 
L 6.640625 71.578125 
L 15.4375 71.578125 
L 15.4375 61.46875 
z
M 6.640625 0 
L 6.640625 51.859375 
L 15.4375 51.859375 
L 15.4375 0 
z
" id="ArialMT-105"/>
      <path d="M 25.78125 7.859375 
L 27.046875 0.09375 
Q 23.34375 -0.6875 20.40625 -0.6875 
Q 15.625 -0.6875 12.984375 0.828125 
Q 10.359375 2.34375 9.28125 4.8125 
Q 8.203125 7.28125 8.203125 15.1875 
L 8.203125 45.015625 
L 1.765625 45.015625 
L 1.765625 51.859375 
L 8.203125 51.859375 
L 8.203125 64.703125 
L 16.9375 69.96875 
L 16.9375 51.859375 
L 25.78125 51.859375 
L 25.78125 45.015625 
L 16.9375 45.015625 
L 16.9375 14.703125 
Q 16.9375 10.9375 17.40625 9.859375 
Q 17.875 8.796875 18.921875 8.15625 
Q 19.96875 7.515625 21.921875 7.515625 
Q 23.390625 7.515625 25.78125 7.859375 
z
" id="ArialMT-116"/>
      <path d="M 6.203125 -19.96875 
L 5.21875 -11.71875 
Q 8.109375 -12.5 10.25 -12.5 
Q 13.1875 -12.5 14.9375 -11.515625 
Q 16.703125 -10.546875 17.828125 -8.796875 
Q 18.65625 -7.46875 20.515625 -2.25 
Q 20.75 -1.515625 21.296875 -0.09375 
L 1.609375 51.859375 
L 11.078125 51.859375 
L 21.875 21.828125 
Q 23.96875 16.109375 25.640625 9.8125 
Q 27.15625 15.875 29.25 21.625 
L 40.328125 51.859375 
L 49.125 51.859375 
L 29.390625 -0.875 
Q 26.21875 -9.421875 24.46875 -12.640625 
Q 22.125 -17 19.09375 -19.015625 
Q 16.0625 -21.046875 11.859375 -21.046875 
Q 9.328125 -21.046875 6.203125 -19.96875 
z
" id="ArialMT-121"/>
     </defs>
     <g style="fill:#262626;" transform="translate(27.325563 233.913375)rotate(-90)scale(0.18 -0.18)">
      <use xlink:href="#ArialMT-68"/>
      <use x="72.216797" xlink:href="#ArialMT-101"/>
      <use x="127.832031" xlink:href="#ArialMT-110"/>
      <use x="183.447266" xlink:href="#ArialMT-115"/>
      <use x="233.447266" xlink:href="#ArialMT-105"/>
      <use x="255.664062" xlink:href="#ArialMT-116"/>
      <use x="283.447266" xlink:href="#ArialMT-121"/>
     </g>
    </g>
   </g>
   <g id="patch_3">
    <path clip-path="url(#p52b6e7df3a)" d="M 80.339262 293.76 
L 89.646175 293.76 
L 89.646175 208.182857 
L 80.339262 208.182857 
z
" style="fill:#0000ff;opacity:0.4;stroke:#ffffff;stroke-linejoin:miter;"/>
   </g>
   <g id="patch_4">
    <path clip-path="url(#p52b6e7df3a)" d="M 89.646175 293.76 
L 98.953088 293.76 
L 98.953088 159.081218 
L 89.646175 159.081218 
z
" style="fill:#0000ff;opacity:0.4;stroke:#ffffff;stroke-linejoin:miter;"/>
   </g>
   <g id="patch_5">
    <path clip-path="url(#p52b6e7df3a)" d="M 98.953088 293.76 
L 108.260002 293.76 
L 108.260002 122.605714 
L 98.953088 122.605714 
z
" style="fill:#0000ff;opacity:0.4;stroke:#ffffff;stroke-linejoin:miter;"/>
   </g>
   <g id="patch_6">
    <path clip-path="url(#p52b6e7df3a)" d="M 108.260002 293.76 
L 117.566915 293.76 
L 117.566915 129.620234 
L 108.260002 129.620234 
z
" style="fill:#0000ff;opacity:0.4;stroke:#ffffff;stroke-linejoin:miter;"/>
   </g>
   <g id="patch_7">
    <path clip-path="url(#p52b6e7df3a)" d="M 117.566915 293.76 
L 126.873828 293.76 
L 126.873828 145.052178 
L 117.566915 145.052178 
z
" style="fill:#0000ff;opacity:0.4;stroke:#ffffff;stroke-linejoin:miter;"/>
   </g>
   <g id="patch_8">
    <path clip-path="url(#p52b6e7df3a)" d="M 126.873828 293.76 
L 136.180741 293.76 
L 136.180741 170.30445 
L 126.873828 170.30445 
z
" style="fill:#0000ff;opacity:0.4;stroke:#ffffff;stroke-linejoin:miter;"/>
   </g>
   <g id="patch_9">
    <path clip-path="url(#p52b6e7df3a)" d="M 136.180741 293.76 
L 145.487655 293.76 
L 145.487655 157.678314 
L 136.180741 157.678314 
z
" style="fill:#0000ff;opacity:0.4;stroke:#ffffff;stroke-linejoin:miter;"/>
   </g>
   <g id="patch_10">
    <path clip-path="url(#p52b6e7df3a)" d="M 145.487655 293.76 
L 154.794568 293.76 
L 154.794568 187.139297 
L 145.487655 187.139297 
z
" style="fill:#0000ff;opacity:0.4;stroke:#ffffff;stroke-linejoin:miter;"/>
   </g>
   <g id="patch_11">
    <path clip-path="url(#p52b6e7df3a)" d="M 154.794568 293.76 
L 164.101481 293.76 
L 164.101481 167.498642 
L 154.794568 167.498642 
z
" style="fill:#0000ff;opacity:0.4;stroke:#ffffff;stroke-linejoin:miter;"/>
   </g>
   <g id="patch_12">
    <path clip-path="url(#p52b6e7df3a)" d="M 164.101481 293.76 
L 173.408394 293.76 
L 173.408394 192.750913 
L 164.101481 192.750913 
z
" style="fill:#0000ff;opacity:0.4;stroke:#ffffff;stroke-linejoin:miter;"/>
   </g>
   <g id="patch_13">
    <path clip-path="url(#p52b6e7df3a)" d="M 173.408394 293.76 
L 182.715308 293.76 
L 182.715308 222.211897 
L 173.408394 222.211897 
z
" style="fill:#0000ff;opacity:0.4;stroke:#ffffff;stroke-linejoin:miter;"/>
   </g>
   <g id="patch_14">
    <path clip-path="url(#p52b6e7df3a)" d="M 182.715308 293.76 
L 192.022221 293.76 
L 192.022221 260.090304 
L 182.715308 260.090304 
z
" style="fill:#0000ff;opacity:0.4;stroke:#ffffff;stroke-linejoin:miter;"/>
   </g>
   <g id="line2d_1">
    <path clip-path="url(#p52b6e7df3a)" d="M 59.103675 293.679525 
L 60.660788 293.594629 
L 62.2179 293.434598 
L 63.775013 293.146592 
L 65.332125 292.651645 
L 66.889237 291.83925 
L 68.44635 290.565339 
L 70.003462 288.656324 
L 71.560575 285.921406 
L 73.117687 282.173807 
L 74.6748 277.259038 
L 76.231912 271.085414 
L 77.789025 263.649824 
L 79.346137 255.051361 
L 80.903249 245.48755 
L 82.460362 235.232165 
L 84.017474 224.598884 
L 85.574587 213.899304 
L 87.131699 203.405554 
L 88.688812 193.326131 
L 90.245924 183.799284 
L 91.803037 174.902839 
L 93.360149 166.674788 
L 94.917261 159.136744 
L 96.474374 152.312886 
L 98.031486 146.23987 
L 99.588599 140.966876 
L 101.145711 136.548175 
L 102.702824 133.032287 
L 104.259936 130.451598 
L 105.817049 128.814867 
L 107.374161 128.103181 
L 108.931274 128.268746 
L 110.488386 129.235663 
L 112.045498 130.902423 
L 113.602611 133.146465 
L 115.159723 135.831208 
L 116.716836 138.815181 
L 118.273948 141.96178 
L 119.831061 145.147358 
L 121.388173 148.265565 
L 122.945286 151.227217 
L 124.502398 153.957004 
L 126.05951 156.390208 
L 127.616623 158.47313 
L 129.173735 160.169638 
L 130.730848 161.473189 
L 132.28796 162.420085 
L 133.845073 163.097166 
L 135.402185 163.637275 
L 136.959298 164.199135 
L 138.51641 164.933973 
L 140.073522 165.947218 
L 141.630635 167.267243 
L 143.187747 168.832666 
L 144.74486 170.504639 
L 146.301972 172.102613 
L 147.859085 173.454027 
L 149.416197 174.443395 
L 150.97331 175.046316 
L 152.530422 175.33888 
L 154.087535 175.480998 
L 155.644647 175.680006 
L 157.201759 176.146112 
L 158.758872 177.052103 
L 160.315984 178.50687 
L 161.873097 180.547124 
L 163.430209 183.146343 
L 164.987322 186.235875 
L 166.544434 189.731123 
L 168.101547 193.555667 
L 169.658659 197.65772 
L 171.215771 202.01587 
L 172.772884 206.634082 
L 174.329996 211.528718 
L 175.887109 216.712268 
L 177.444221 222.17897 
L 179.001334 227.896354 
L 180.558446 233.804417 
L 182.115559 239.821389 
L 183.672671 245.853065 
L 185.229784 251.802036 
L 186.786896 257.574151 
L 188.344008 263.081471 
L 189.901121 268.242941 
L 191.458233 272.985016 
L 193.015346 277.244123 
L 194.572458 280.971447 
L 196.129571 284.138864 
L 197.686683 286.743831 
L 199.243796 288.811086 
L 200.800908 290.390065 
L 202.35802 291.548418 
L 203.915133 292.363239 
L 205.472245 292.912115 
L 207.029358 293.265817 
L 208.58647 293.483697 
L 210.143583 293.611919 
L 211.700695 293.683976 
L 213.257808 293.722632 
" style="fill:none;stroke:#0000ff;stroke-linecap:round;stroke-width:1.5;"/>
   </g>
   <g id="patch_15">
    <path d="M 59.904 293.76 
L 59.904 114.048 
" style="fill:none;stroke:#262626;stroke-linecap:square;stroke-linejoin:miter;stroke-width:1.25;"/>
   </g>
   <g id="patch_16">
    <path d="M 218.667025 293.76 
L 218.667025 114.048 
" style="fill:none;stroke:#262626;stroke-linecap:square;stroke-linejoin:miter;stroke-width:1.25;"/>
   </g>
   <g id="patch_17">
    <path d="M 59.904 293.76 
L 218.667025 293.76 
" style="fill:none;stroke:#262626;stroke-linecap:square;stroke-linejoin:miter;stroke-width:1.25;"/>
   </g>
   <g id="patch_18">
    <path d="M 59.904 114.048 
L 218.667025 114.048 
" style="fill:none;stroke:#262626;stroke-linecap:square;stroke-linejoin:miter;stroke-width:1.25;"/>
   </g>
   <g id="text_15">
    <!-- MAP = 0.1794 -->
    <defs>
     <path d="M 7.421875 0 
L 7.421875 71.578125 
L 21.6875 71.578125 
L 38.625 20.90625 
Q 40.96875 13.8125 42.046875 10.296875 
Q 43.265625 14.203125 45.84375 21.78125 
L 62.984375 71.578125 
L 75.734375 71.578125 
L 75.734375 0 
L 66.609375 0 
L 66.609375 59.90625 
L 45.796875 0 
L 37.25 0 
L 16.546875 60.9375 
L 16.546875 0 
z
" id="ArialMT-77"/>
     <path d="M -0.140625 0 
L 27.34375 71.578125 
L 37.546875 71.578125 
L 66.84375 0 
L 56.0625 0 
L 47.703125 21.6875 
L 17.78125 21.6875 
L 9.90625 0 
z
M 20.515625 29.390625 
L 44.78125 29.390625 
L 37.3125 49.21875 
Q 33.890625 58.25 32.234375 64.0625 
Q 30.859375 57.171875 28.375 50.390625 
z
" id="ArialMT-65"/>
     <path d="M 7.71875 0 
L 7.71875 71.578125 
L 34.71875 71.578125 
Q 41.84375 71.578125 45.609375 70.90625 
Q 50.875 70.015625 54.4375 67.546875 
Q 58.015625 65.09375 60.1875 60.640625 
Q 62.359375 56.203125 62.359375 50.875 
Q 62.359375 41.75 56.546875 35.421875 
Q 50.734375 29.109375 35.546875 29.109375 
L 17.1875 29.109375 
L 17.1875 0 
z
M 17.1875 37.546875 
L 35.6875 37.546875 
Q 44.875 37.546875 48.734375 40.96875 
Q 52.59375 44.390625 52.59375 50.59375 
Q 52.59375 55.078125 50.3125 58.265625 
Q 48.046875 61.46875 44.34375 62.5 
Q 41.9375 63.140625 35.5 63.140625 
L 17.1875 63.140625 
z
" id="ArialMT-80"/>
     <path id="ArialMT-32"/>
     <path d="M 52.828125 42.09375 
L 5.5625 42.09375 
L 5.5625 50.296875 
L 52.828125 50.296875 
z
M 52.828125 20.359375 
L 5.5625 20.359375 
L 5.5625 28.5625 
L 52.828125 28.5625 
z
" id="ArialMT-61"/>
     <path d="M 4.734375 62.203125 
L 4.734375 70.65625 
L 51.078125 70.65625 
L 51.078125 63.8125 
Q 44.234375 56.546875 37.515625 44.484375 
Q 30.8125 32.421875 27.15625 19.671875 
Q 24.515625 10.6875 23.78125 0 
L 14.75 0 
Q 14.890625 8.453125 18.0625 20.40625 
Q 21.234375 32.375 27.171875 43.484375 
Q 33.109375 54.59375 39.796875 62.203125 
z
" id="ArialMT-55"/>
     <path d="M 5.46875 16.546875 
L 13.921875 17.328125 
Q 14.984375 11.375 18.015625 8.6875 
Q 21.046875 6 25.78125 6 
Q 29.828125 6 32.875 7.859375 
Q 35.9375 9.71875 37.890625 12.8125 
Q 39.84375 15.921875 41.15625 21.1875 
Q 42.484375 26.46875 42.484375 31.9375 
Q 42.484375 32.515625 42.4375 33.6875 
Q 39.796875 29.5 35.234375 26.875 
Q 30.671875 24.265625 25.34375 24.265625 
Q 16.453125 24.265625 10.296875 30.703125 
Q 4.15625 37.15625 4.15625 47.703125 
Q 4.15625 58.59375 10.578125 65.234375 
Q 17 71.875 26.65625 71.875 
Q 33.640625 71.875 39.421875 68.109375 
Q 45.21875 64.359375 48.21875 57.390625 
Q 51.21875 50.4375 51.21875 37.25 
Q 51.21875 23.53125 48.234375 15.40625 
Q 45.265625 7.28125 39.375 3.03125 
Q 33.5 -1.21875 25.59375 -1.21875 
Q 17.1875 -1.21875 11.859375 3.4375 
Q 6.546875 8.109375 5.46875 16.546875 
z
M 41.453125 48.140625 
Q 41.453125 55.71875 37.421875 60.15625 
Q 33.40625 64.59375 27.734375 64.59375 
Q 21.875 64.59375 17.53125 59.8125 
Q 13.1875 55.03125 13.1875 47.40625 
Q 13.1875 40.578125 17.3125 36.296875 
Q 21.4375 32.03125 27.484375 32.03125 
Q 33.59375 32.03125 37.515625 36.296875 
Q 41.453125 40.578125 41.453125 48.140625 
z
" id="ArialMT-57"/>
    </defs>
    <g style="fill:#262626;" transform="translate(82.158013 108.048)scale(0.18 -0.18)">
     <use xlink:href="#ArialMT-77"/>
     <use x="83.300781" xlink:href="#ArialMT-65"/>
     <use x="150" xlink:href="#ArialMT-80"/>
     <use x="214.949219" xlink:href="#ArialMT-32"/>
     <use x="242.732422" xlink:href="#ArialMT-61"/>
     <use x="301.130859" xlink:href="#ArialMT-32"/>
     <use x="328.914062" xlink:href="#ArialMT-48"/>
     <use x="384.529297" xlink:href="#ArialMT-46"/>
     <use x="412.3125" xlink:href="#ArialMT-49"/>
     <use x="467.927734" xlink:href="#ArialMT-55"/>
     <use x="523.542969" xlink:href="#ArialMT-57"/>
     <use x="579.158203" xlink:href="#ArialMT-52"/>
    </g>
   </g>
  </g>
  <g id="axes_2">
   <g id="patch_19">
    <path d="M 278.996975 293.76 
L 437.76 293.76 
L 437.76 114.048 
L 278.996975 114.048 
z
" style="fill:#ffffff;"/>
   </g>
   <g id="matplotlib.axis_3">
    <g id="xtick_5">
     <g id="text_16">
      <!-- 0.0 -->
      <g style="fill:#262626;" transform="translate(271.351975 311.133594)scale(0.11 -0.11)">
       <use xlink:href="#ArialMT-48"/>
       <use x="55.615234" xlink:href="#ArialMT-46"/>
       <use x="83.398438" xlink:href="#ArialMT-48"/>
      </g>
     </g>
    </g>
    <g id="xtick_6">
     <g id="text_17">
      <!-- 0.1 -->
      <g style="fill:#262626;" transform="translate(311.042731 311.133594)scale(0.11 -0.11)">
       <use xlink:href="#ArialMT-48"/>
       <use x="55.615234" xlink:href="#ArialMT-46"/>
       <use x="83.398438" xlink:href="#ArialMT-49"/>
      </g>
     </g>
    </g>
    <g id="xtick_7">
     <g id="text_18">
      <!-- 0.2 -->
      <g style="fill:#262626;" transform="translate(350.733487 311.133594)scale(0.11 -0.11)">
       <use xlink:href="#ArialMT-48"/>
       <use x="55.615234" xlink:href="#ArialMT-46"/>
       <use x="83.398438" xlink:href="#ArialMT-50"/>
      </g>
     </g>
    </g>
    <g id="xtick_8">
     <g id="text_19">
      <!-- 0.3 -->
      <g style="fill:#262626;" transform="translate(390.424244 311.133594)scale(0.11 -0.11)">
       <use xlink:href="#ArialMT-48"/>
       <use x="55.615234" xlink:href="#ArialMT-46"/>
       <use x="83.398438" xlink:href="#ArialMT-51"/>
      </g>
     </g>
    </g>
    <g id="xtick_9">
     <g id="text_20">
      <!-- 0.4 -->
      <g style="fill:#262626;" transform="translate(430.115 311.133594)scale(0.11 -0.11)">
       <use xlink:href="#ArialMT-48"/>
       <use x="55.615234" xlink:href="#ArialMT-46"/>
       <use x="83.398438" xlink:href="#ArialMT-52"/>
      </g>
     </g>
    </g>
    <g id="text_21">
     <!-- $\bar{\alpha}_{D}$ -->
     <defs>
      <path d="M 16.890625 72.90625 
L 38.09375 72.90625 
Q 54.984375 72.90625 63.59375 65.75 
Q 72.21875 58.59375 72.21875 44.484375 
Q 72.21875 35.15625 68.9375 26.53125 
Q 65.671875 17.921875 59.90625 12.015625 
Q 54.109375 5.953125 45.171875 2.96875 
Q 36.234375 0 24.03125 0 
L 2.6875 0 
z
M 25.203125 64.796875 
L 14.203125 8.109375 
L 27.09375 8.109375 
Q 43.65625 8.109375 52.734375 17.625 
Q 61.8125 27.15625 61.8125 44.484375 
Q 61.8125 54.984375 55.953125 59.890625 
Q 50.09375 64.796875 37.59375 64.796875 
z
" id="DejaVuSans-Oblique-68"/>
     </defs>
     <g style="fill:#262626;" transform="translate(347.218487 330.482344)scale(0.18 -0.18)">
      <use transform="translate(65.885742 1.484375)" xlink:href="#DejaVuSans-772"/>
      <use transform="translate(0 0.109375)" xlink:href="#DejaVuSans-Oblique-945"/>
      <use transform="translate(66.875 -16.296875)scale(0.7)" xlink:href="#DejaVuSans-Oblique-68"/>
     </g>
    </g>
   </g>
   <g id="matplotlib.axis_4">
    <g id="ytick_9">
     <g id="text_22">
      <!-- 0 -->
      <g style="fill:#262626;" transform="translate(263.379944 297.696797)scale(0.11 -0.11)">
       <use xlink:href="#ArialMT-48"/>
      </g>
     </g>
    </g>
    <g id="ytick_10">
     <g id="text_23">
      <!-- 2 -->
      <g style="fill:#262626;" transform="translate(263.379944 275.189887)scale(0.11 -0.11)">
       <use xlink:href="#ArialMT-50"/>
      </g>
     </g>
    </g>
    <g id="ytick_11">
     <g id="text_24">
      <!-- 4 -->
      <g style="fill:#262626;" transform="translate(263.379944 252.682977)scale(0.11 -0.11)">
       <use xlink:href="#ArialMT-52"/>
      </g>
     </g>
    </g>
    <g id="ytick_12">
     <g id="text_25">
      <!-- 6 -->
      <g style="fill:#262626;" transform="translate(263.379944 230.176068)scale(0.11 -0.11)">
       <use xlink:href="#ArialMT-54"/>
      </g>
     </g>
    </g>
    <g id="ytick_13">
     <g id="text_26">
      <!-- 8 -->
      <defs>
       <path d="M 17.671875 38.8125 
Q 12.203125 40.828125 9.5625 44.53125 
Q 6.9375 48.25 6.9375 53.421875 
Q 6.9375 61.234375 12.546875 66.546875 
Q 18.171875 71.875 27.484375 71.875 
Q 36.859375 71.875 42.578125 66.421875 
Q 48.296875 60.984375 48.296875 53.171875 
Q 48.296875 48.1875 45.671875 44.5 
Q 43.0625 40.828125 37.75 38.8125 
Q 44.34375 36.671875 47.78125 31.875 
Q 51.21875 27.09375 51.21875 20.453125 
Q 51.21875 11.28125 44.71875 5.03125 
Q 38.234375 -1.21875 27.640625 -1.21875 
Q 17.046875 -1.21875 10.546875 5.046875 
Q 4.046875 11.328125 4.046875 20.703125 
Q 4.046875 27.6875 7.59375 32.390625 
Q 11.140625 37.109375 17.671875 38.8125 
z
M 15.921875 53.71875 
Q 15.921875 48.640625 19.1875 45.40625 
Q 22.46875 42.1875 27.6875 42.1875 
Q 32.765625 42.1875 36.015625 45.375 
Q 39.265625 48.578125 39.265625 53.21875 
Q 39.265625 58.0625 35.90625 61.359375 
Q 32.5625 64.65625 27.59375 64.65625 
Q 22.5625 64.65625 19.234375 61.421875 
Q 15.921875 58.203125 15.921875 53.71875 
z
M 13.09375 20.65625 
Q 13.09375 16.890625 14.875 13.375 
Q 16.65625 9.859375 20.171875 7.921875 
Q 23.6875 6 27.734375 6 
Q 34.03125 6 38.125 10.046875 
Q 42.234375 14.109375 42.234375 20.359375 
Q 42.234375 26.703125 38.015625 30.859375 
Q 33.796875 35.015625 27.4375 35.015625 
Q 21.234375 35.015625 17.15625 30.90625 
Q 13.09375 26.8125 13.09375 20.65625 
z
" id="ArialMT-56"/>
      </defs>
      <g style="fill:#262626;" transform="translate(263.379944 207.669158)scale(0.11 -0.11)">
       <use xlink:href="#ArialMT-56"/>
      </g>
     </g>
    </g>
    <g id="ytick_14">
     <g id="text_27">
      <!-- 10 -->
      <g style="fill:#262626;" transform="translate(257.262912 185.162248)scale(0.11 -0.11)">
       <use xlink:href="#ArialMT-49"/>
       <use x="55.615234" xlink:href="#ArialMT-48"/>
      </g>
     </g>
    </g>
    <g id="ytick_15">
     <g id="text_28">
      <!-- 12 -->
      <g style="fill:#262626;" transform="translate(257.262912 162.655338)scale(0.11 -0.11)">
       <use xlink:href="#ArialMT-49"/>
       <use x="55.615234" xlink:href="#ArialMT-50"/>
      </g>
     </g>
    </g>
    <g id="ytick_16">
     <g id="text_29">
      <!-- 14 -->
      <g style="fill:#262626;" transform="translate(257.262912 140.148429)scale(0.11 -0.11)">
       <use xlink:href="#ArialMT-49"/>
       <use x="55.615234" xlink:href="#ArialMT-52"/>
      </g>
     </g>
    </g>
   </g>
   <g id="patch_20">
    <path clip-path="url(#pda1f4f67b2)" d="M 324.659718 293.76 
L 327.478174 293.76 
L 327.478174 224.030476 
L 324.659718 224.030476 
z
" style="fill:#0000ff;opacity:0.4;stroke:#ffffff;stroke-linejoin:miter;"/>
   </g>
   <g id="patch_21">
    <path clip-path="url(#pda1f4f67b2)" d="M 327.478174 293.76 
L 330.29663 293.76 
L 330.29663 173.318095 
L 327.478174 173.318095 
z
" style="fill:#0000ff;opacity:0.4;stroke:#ffffff;stroke-linejoin:miter;"/>
   </g>
   <g id="patch_22">
    <path clip-path="url(#pda1f4f67b2)" d="M 330.29663 293.76 
L 333.115086 293.76 
L 333.115086 151.131429 
L 330.29663 151.131429 
z
" style="fill:#0000ff;opacity:0.4;stroke:#ffffff;stroke-linejoin:miter;"/>
   </g>
   <g id="patch_23">
    <path clip-path="url(#pda1f4f67b2)" d="M 333.115086 293.76 
L 335.933542 293.76 
L 335.933542 171.733333 
L 333.115086 171.733333 
z
" style="fill:#0000ff;opacity:0.4;stroke:#ffffff;stroke-linejoin:miter;"/>
   </g>
   <g id="patch_24">
    <path clip-path="url(#pda1f4f67b2)" d="M 335.933542 293.76 
L 338.751997 293.76 
L 338.751997 138.453333 
L 335.933542 138.453333 
z
" style="fill:#0000ff;opacity:0.4;stroke:#ffffff;stroke-linejoin:miter;"/>
   </g>
   <g id="patch_25">
    <path clip-path="url(#pda1f4f67b2)" d="M 338.751997 293.76 
L 341.570453 293.76 
L 341.570453 149.546667 
L 338.751997 149.546667 
z
" style="fill:#0000ff;opacity:0.4;stroke:#ffffff;stroke-linejoin:miter;"/>
   </g>
   <g id="patch_26">
    <path clip-path="url(#pda1f4f67b2)" d="M 341.570453 293.76 
L 344.388909 293.76 
L 344.388909 138.453333 
L 341.570453 138.453333 
z
" style="fill:#0000ff;opacity:0.4;stroke:#ffffff;stroke-linejoin:miter;"/>
   </g>
   <g id="patch_27">
    <path clip-path="url(#pda1f4f67b2)" d="M 344.388909 293.76 
L 347.207365 293.76 
L 347.207365 122.605714 
L 344.388909 122.605714 
z
" style="fill:#0000ff;opacity:0.4;stroke:#ffffff;stroke-linejoin:miter;"/>
   </g>
   <g id="patch_28">
    <path clip-path="url(#pda1f4f67b2)" d="M 347.207365 293.76 
L 350.02582 293.76 
L 350.02582 162.224762 
L 347.207365 162.224762 
z
" style="fill:#0000ff;opacity:0.4;stroke:#ffffff;stroke-linejoin:miter;"/>
   </g>
   <g id="patch_29">
    <path clip-path="url(#pda1f4f67b2)" d="M 350.02582 293.76 
L 352.844276 293.76 
L 352.844276 146.377143 
L 350.02582 146.377143 
z
" style="fill:#0000ff;opacity:0.4;stroke:#ffffff;stroke-linejoin:miter;"/>
   </g>
   <g id="patch_30">
    <path clip-path="url(#pda1f4f67b2)" d="M 352.844276 293.76 
L 355.662732 293.76 
L 355.662732 205.013333 
L 352.844276 205.013333 
z
" style="fill:#0000ff;opacity:0.4;stroke:#ffffff;stroke-linejoin:miter;"/>
   </g>
   <g id="patch_31">
    <path clip-path="url(#pda1f4f67b2)" d="M 355.662732 293.76 
L 358.481188 293.76 
L 358.481188 239.878095 
L 355.662732 239.878095 
z
" style="fill:#0000ff;opacity:0.4;stroke:#ffffff;stroke-linejoin:miter;"/>
   </g>
   <g id="patch_32">
    <path clip-path="url(#pda1f4f67b2)" d="M 358.481188 293.76 
L 361.299644 293.76 
L 361.299644 263.649524 
L 358.481188 263.649524 
z
" style="fill:#0000ff;opacity:0.4;stroke:#ffffff;stroke-linejoin:miter;"/>
   </g>
   <g id="patch_33">
    <path clip-path="url(#pda1f4f67b2)" d="M 361.299644 293.76 
L 364.118099 293.76 
L 364.118099 273.158095 
L 361.299644 273.158095 
z
" style="fill:#0000ff;opacity:0.4;stroke:#ffffff;stroke-linejoin:miter;"/>
   </g>
   <g id="patch_34">
    <path clip-path="url(#pda1f4f67b2)" d="M 364.118099 293.76 
L 366.936555 293.76 
L 366.936555 277.912381 
L 364.118099 277.912381 
z
" style="fill:#0000ff;opacity:0.4;stroke:#ffffff;stroke-linejoin:miter;"/>
   </g>
   <g id="patch_35">
    <path clip-path="url(#pda1f4f67b2)" d="M 366.936555 293.76 
L 369.755011 293.76 
L 369.755011 285.83619 
L 366.936555 285.83619 
z
" style="fill:#0000ff;opacity:0.4;stroke:#ffffff;stroke-linejoin:miter;"/>
   </g>
   <g id="patch_36">
    <path clip-path="url(#pda1f4f67b2)" d="M 369.755011 293.76 
L 372.573467 293.76 
L 372.573467 289.005714 
L 369.755011 289.005714 
z
" style="fill:#0000ff;opacity:0.4;stroke:#ffffff;stroke-linejoin:miter;"/>
   </g>
   <g id="patch_37">
    <path clip-path="url(#pda1f4f67b2)" d="M 372.573467 293.76 
L 375.391922 293.76 
L 375.391922 293.76 
L 372.573467 293.76 
z
" style="fill:#0000ff;opacity:0.4;stroke:#ffffff;stroke-linejoin:miter;"/>
   </g>
   <g id="patch_38">
    <path clip-path="url(#pda1f4f67b2)" d="M 375.391922 293.76 
L 378.210378 293.76 
L 378.210378 292.175238 
L 375.391922 292.175238 
z
" style="fill:#0000ff;opacity:0.4;stroke:#ffffff;stroke-linejoin:miter;"/>
   </g>
   <g id="patch_39">
    <path clip-path="url(#pda1f4f67b2)" d="M 378.210378 293.76 
L 381.028834 293.76 
L 381.028834 293.76 
L 378.210378 293.76 
z
" style="fill:#0000ff;opacity:0.4;stroke:#ffffff;stroke-linejoin:miter;"/>
   </g>
   <g id="patch_40">
    <path clip-path="url(#pda1f4f67b2)" d="M 381.028834 293.76 
L 383.84729 293.76 
L 383.84729 293.76 
L 381.028834 293.76 
z
" style="fill:#0000ff;opacity:0.4;stroke:#ffffff;stroke-linejoin:miter;"/>
   </g>
   <g id="patch_41">
    <path clip-path="url(#pda1f4f67b2)" d="M 383.84729 293.76 
L 386.665746 293.76 
L 386.665746 293.76 
L 383.84729 293.76 
z
" style="fill:#0000ff;opacity:0.4;stroke:#ffffff;stroke-linejoin:miter;"/>
   </g>
   <g id="patch_42">
    <path clip-path="url(#pda1f4f67b2)" d="M 386.665746 293.76 
L 389.484201 293.76 
L 389.484201 292.175238 
L 386.665746 292.175238 
z
" style="fill:#0000ff;opacity:0.4;stroke:#ffffff;stroke-linejoin:miter;"/>
   </g>
   <g id="line2d_2">
    <path clip-path="url(#pda1f4f67b2)" d="M 317.278002 293.679576 
L 318.08192 293.533922 
L 318.885839 293.181653 
L 319.689757 292.410805 
L 320.493675 290.88262 
L 321.297594 288.133234 
L 322.101512 283.634091 
L 322.90543 276.917171 
L 323.709349 267.731887 
L 324.513267 256.167936 
L 325.317185 242.684703 
L 326.121104 228.039287 
L 326.925022 213.163989 
L 327.72894 199.055084 
L 328.532859 186.682904 
L 329.336777 176.872314 
L 330.140695 170.110413 
L 330.944614 166.331277 
L 331.748532 164.824026 
L 332.552451 164.398303 
L 333.356369 163.794352 
L 334.160287 162.148001 
L 334.964206 159.261983 
L 335.768124 155.548867 
L 336.572042 151.711096 
L 337.375961 148.363364 
L 338.179879 145.79669 
L 338.983797 143.960551 
L 339.787716 142.601709 
L 340.591634 141.437876 
L 341.395552 140.279754 
L 342.199471 139.0879 
L 343.003389 137.987493 
L 343.807307 137.245648 
L 344.611226 137.190235 
L 345.415144 138.06884 
L 346.219062 139.906366 
L 347.022981 142.46026 
L 347.826899 145.34052 
L 348.630817 148.263136 
L 349.434736 151.302809 
L 350.238654 154.97909 
L 351.042572 160.085176 
L 351.846491 167.316697 
L 352.650409 176.889356 
L 353.454327 188.358895 
L 354.258246 200.749115 
L 355.062164 212.917165 
L 355.866082 223.954331 
L 356.670001 233.419123 
L 357.473919 241.321081 
L 358.277837 247.927022 
L 359.081756 253.541781 
L 359.885674 258.383993 
L 360.689592 262.580688 
L 361.493511 266.224272 
L 362.297429 269.419688 
L 363.101347 272.286145 
L 363.905266 274.923454 
L 364.709184 277.375565 
L 365.513102 279.620118 
L 366.317021 281.594623 
L 367.120939 283.248229 
L 367.924857 284.590665 
L 368.728776 285.706814 
L 369.532694 286.723612 
L 370.336612 287.747341 
L 371.140531 288.81103 
L 371.944449 289.865246 
L 372.748367 290.815451 
L 373.552286 291.579177 
L 374.356204 292.127725 
L 375.160122 292.492267 
L 375.964041 292.73863 
L 376.767959 292.931523 
L 377.571877 293.109645 
L 378.375796 293.281302 
L 379.179714 293.436024 
L 379.983633 293.560336 
L 380.787551 293.647764 
L 381.591469 293.700184 
L 382.395388 293.723454 
L 383.199306 293.721993 
L 384.003224 293.695571 
L 384.807143 293.639695 
L 385.611061 293.549679 
L 386.414979 293.427162 
L 387.218898 293.28599 
L 388.022816 293.153103 
L 388.826734 293.061535 
L 389.630653 293.037457 
L 390.434571 293.088153 
L 391.238489 293.198482 
L 392.042408 293.338163 
L 392.846326 293.475152 
L 393.650244 293.587111 
L 394.454163 293.665678 
L 395.258081 293.713747 
L 396.061999 293.739613 
L 396.865918 293.751923 
" style="fill:none;stroke:#0000ff;stroke-linecap:round;stroke-width:1.5;"/>
   </g>
   <g id="patch_43">
    <path d="M 278.996975 293.76 
L 278.996975 114.048 
" style="fill:none;stroke:#262626;stroke-linecap:square;stroke-linejoin:miter;stroke-width:1.25;"/>
   </g>
   <g id="patch_44">
    <path d="M 437.76 293.76 
L 437.76 114.048 
" style="fill:none;stroke:#262626;stroke-linecap:square;stroke-linejoin:miter;stroke-width:1.25;"/>
   </g>
   <g id="patch_45">
    <path d="M 278.996975 293.76 
L 437.76 293.76 
" style="fill:none;stroke:#262626;stroke-linecap:square;stroke-linejoin:miter;stroke-width:1.25;"/>
   </g>
   <g id="patch_46">
    <path d="M 278.996975 114.048 
L 437.76 114.048 
" style="fill:none;stroke:#262626;stroke-linecap:square;stroke-linejoin:miter;stroke-width:1.25;"/>
   </g>
   <g id="text_30">
    <!-- MAP = 0.1653 -->
    <g style="fill:#262626;" transform="translate(301.250987 108.048)scale(0.18 -0.18)">
     <use xlink:href="#ArialMT-77"/>
     <use x="83.300781" xlink:href="#ArialMT-65"/>
     <use x="150" xlink:href="#ArialMT-80"/>
     <use x="214.949219" xlink:href="#ArialMT-32"/>
     <use x="242.732422" xlink:href="#ArialMT-61"/>
     <use x="301.130859" xlink:href="#ArialMT-32"/>
     <use x="328.914062" xlink:href="#ArialMT-48"/>
     <use x="384.529297" xlink:href="#ArialMT-46"/>
     <use x="412.3125" xlink:href="#ArialMT-49"/>
     <use x="467.927734" xlink:href="#ArialMT-54"/>
     <use x="523.542969" xlink:href="#ArialMT-53"/>
     <use x="579.158203" xlink:href="#ArialMT-51"/>
    </g>
   </g>
  </g>
 </g>
 <defs>
  <clipPath id="p52b6e7df3a">
   <rect height="179.712" width="158.763025" x="59.904" y="114.048"/>
  </clipPath>
  <clipPath id="pda1f4f67b2">
   <rect height="179.712" width="158.763025" x="278.996975" y="114.048"/>
  </clipPath>
 </defs>
</svg>
